<?xml version="1.0" encoding="UTF-8" standalone="no"?>
<!-- Created with Inkscape (http://www.inkscape.org/) -->

<svg
   xmlns:dc="http://purl.org/dc/elements/1.1/"
   xmlns:cc="http://creativecommons.org/ns#"
   xmlns:rdf="http://www.w3.org/1999/02/22-rdf-syntax-ns#"
   xmlns:svg="http://www.w3.org/2000/svg"
   xmlns="http://www.w3.org/2000/svg"
   version="1.1"
   width="497.5"
   height="69.370003"
   viewBox="0 0 497.5 69.370003"
   id="Layer_1">
  <title
     id="title9">ACC-HACK-Logo-Sticky</title>
  <metadata
     id="metadata68">
    <rdf:RDF>
      <cc:Work
         rdf:about="">
        <dc:format>image/svg+xml</dc:format>
        <dc:type
           rdf:resource="http://purl.org/dc/dcmitype/StillImage" />
        <dc:title>ACC-HACK-Logo-Sticky</dc:title>
      </cc:Work>
    </rdf:RDF>
  </metadata>
  <defs
     id="defs7">
    <style
       id="style2" />
    <clipPath
       id="clip-path">
      <rect
         width="497.5"
         height="69.370003"
         x="1.25"
         y="0"
         id="rect4"
         style="fill:none" />
    </clipPath>
  </defs>
  <polygon
     points="246.51,69.37 265.31,0 249.6,0 234.73,54.91 246.51,69.37 "
     transform="translate(-1.25,0)"
     id="polygon11"
     style="fill:#b27202" />
  <polygon
     points="16.01,0 1.25,54.9 234.85,54.9 249.6,0 "
     transform="translate(-1.25,0)"
     id="polygon13"
     style="fill:#ffae20" />
  <polygon
     points="265.15,0 246.51,69.37 480.11,69.37 498.75,0 "
     transform="translate(-1.25,0)"
     id="polygon15"
     style="fill:#00003c" />
  <g
     transform="translate(-1.25,0)"
     clip-path="url(#clip-path)"
     id="g63">
    <path
       d="m 28.45,37.94 0.08,-4.6 h -5.78 l -2.39,4.6 h -3.7 L 27.05,19.17 H 32 l 0.3,18.77 z m 0,-12 0.28,-3.26 H 28.3 l -1.5,3.24 -2.27,4.33 h 3.89 z"
       id="path17"
       style="fill:#00003c" />
    <path
       d="m 41.19,38.27 a 7.84,7.84 0 0 1 -3,-0.51 3.93,3.93 0 0 1 -1.93,-1.64 6,6 0 0 1 -0.74,-3 15.79,15.79 0 0 1 0.64,-4.47 19.54,19.54 0 0 1 1.84,-4.47 12.14,12.14 0 0 1 2.36,-3.05 8.45,8.45 0 0 1 2.84,-1.74 9.67,9.67 0 0 1 3.24,-0.55 5.36,5.36 0 0 1 3.71,1.08 5.53,5.53 0 0 1 1.54,3.28 l -3.81,1.72 a 9.4,9.4 0 0 0 -0.07,-1.1 1.78,1.78 0 0 0 -0.32,-0.86 1.72,1.72 0 0 0 -0.73,-0.55 3.07,3.07 0 0 0 -1.23,-0.2 4.26,4.26 0 0 0 -2.8,1 A 5.55,5.55 0 0 0 41,26.1 L 39.68,31 a 3.6,3.6 0 0 0 0.13,2.92 2.55,2.55 0 0 0 2.28,1 4,4 0 0 0 1.37,-0.22 4.23,4.23 0 0 0 1.1,-0.62 4.72,4.72 0 0 0 0.86,-0.92 10.65,10.65 0 0 0 0.74,-1.16 l 2.7,1.83 a 17.84,17.84 0 0 1 -1.59,1.88 9.54,9.54 0 0 1 -1.74,1.4 7.29,7.29 0 0 1 -2,0.86 8.72,8.72 0 0 1 -2.34,0.3 z"
       id="path19"
       style="fill:#00003c" />
    <path
       d="m 57.16,38.27 a 7.78,7.78 0 0 1 -2.95,-0.51 4,4 0 0 1 -1.94,-1.64 6.15,6.15 0 0 1 -0.74,-3 15.85,15.85 0 0 1 0.65,-4.47 19.55,19.55 0 0 1 1.76,-4.51 12.38,12.38 0 0 1 2.36,-3.05 8.55,8.55 0 0 1 2.84,-1.74 9.76,9.76 0 0 1 3.24,-0.55 5.4,5.4 0 0 1 3.72,1.08 5.52,5.52 0 0 1 1.53,3.28 l -3.81,1.72 a 7.63,7.63 0 0 0 -0.07,-1.1 1.78,1.78 0 0 0 -0.32,-0.86 1.66,1.66 0 0 0 -0.73,-0.55 3,3 0 0 0 -1.22,-0.2 4.24,4.24 0 0 0 -2.8,1 A 5.48,5.48 0 0 0 57,26.1 L 55.66,31 a 3.56,3.56 0 0 0 0.13,2.92 2.53,2.53 0 0 0 2.27,1 3.94,3.94 0 0 0 1.37,-0.22 4.07,4.07 0 0 0 1.1,-0.62 5.09,5.09 0 0 0 0.87,-0.92 c 0.25,-0.35 0.5,-0.73 0.74,-1.14 l 2.69,1.83 a 17.79,17.79 0 0 1 -1.58,1.88 10.27,10.27 0 0 1 -1.74,1.4 7.56,7.56 0 0 1 -2,0.86 8.74,8.74 0 0 1 -2.35,0.28 z"
       id="path21"
       style="fill:#00003c" />
    <path
       d="m 73.05,38.27 a 7.44,7.44 0 0 1 -2.93,-0.53 3.84,3.84 0 0 1 -1.89,-1.69 6.43,6.43 0 0 1 -0.7,-3 16.24,16.24 0 0 1 0.66,-4.48 19.39,19.39 0 0 1 1.74,-4.48 12.1,12.1 0 0 1 2.32,-3 8.12,8.12 0 0 1 2.81,-1.69 9.75,9.75 0 0 1 3.22,-0.53 7.44,7.44 0 0 1 2.93,0.53 3.76,3.76 0 0 1 1.89,1.69 6.44,6.44 0 0 1 0.7,3 16.3,16.3 0 0 1 -0.66,4.48 19.57,19.57 0 0 1 -1.74,4.43 12.22,12.22 0 0 1 -2.32,3 8.12,8.12 0 0 1 -2.81,1.69 9.75,9.75 0 0 1 -3.22,0.58 z M 74,34.9 a 4.1,4.1 0 0 0 2.76,-1 5.71,5.71 0 0 0 1.62,-2.9 l 1.32,-4.9 a 3.71,3.71 0 0 0 -0.09,-2.92 2.44,2.44 0 0 0 -2.24,-1 4.1,4.1 0 0 0 -2.76,1 A 5.71,5.71 0 0 0 73,26.1 L 71.63,31 a 3.71,3.71 0 0 0 0.09,2.92 2.44,2.44 0 0 0 2.28,0.98 z"
       id="path23"
       style="fill:#00003c" />
    <path
       d="M 92.71,19.17 89.43,31.35 A 4,4 0 0 0 89.35,34 c 0.27,0.55 1,0.82 2.06,0.82 a 3.47,3.47 0 0 0 2.5,-0.82 5.82,5.82 0 0 0 1.35,-2.68 l 3.28,-12.18 h 3.85 l -3.13,11.7 a 16.64,16.64 0 0 1 -1.26,3.39 7.67,7.67 0 0 1 -1.76,2.3 6.52,6.52 0 0 1 -2.45,1.32 11.53,11.53 0 0 1 -3.29,0.42 9.41,9.41 0 0 1 -3.08,-0.42 3.23,3.23 0 0 1 -1.73,-1.32 4.15,4.15 0 0 1 -0.53,-2.3 14.47,14.47 0 0 1 0.56,-3.39 l 3.14,-11.67 z"
       id="path25"
       style="fill:#00003c" />
    <path
       d="m 108.9,27.88 -0.38,-3 h -0.43 l -0.63,3.12 -2.67,9.9 h -3.61 l 5,-18.77 h 4.21 l 2,10.06 0.38,3 h 0.44 l 0.63,-3.14 2.66,-9.9 h 3.61 l -5,18.77 H 111 z"
       id="path27"
       style="fill:#00003c" />
    <path
       d="m 130.44,22.53 -4.14,15.41 h -3.86 l 4.15,-15.41 h -4.51 l 0.9,-3.36 h 12.88 L 135,22.53 z"
       id="path29"
       style="fill:#00003c" />
    <path
       d="m 142.57,37.94 0.08,-4.6 h -5.78 l -2.39,4.6 h -3.7 l 10.39,-18.77 h 4.91 l 0.3,18.77 z m 0,-12 0.28,-3.26 h -0.43 l -1.47,3.26 -2.27,4.33 h 3.89 z"
       id="path31"
       style="fill:#00003c" />
    <path
       d="m 154.07,19.17 h 8.37 c 1.51,0 2.51,0.44 3,1.31 a 4.64,4.64 0 0 1 0.15,3.5 7.11,7.11 0 0 1 -0.8,1.95 4.74,4.74 0 0 1 -1.06,1.21 3.82,3.82 0 0 1 -1.18,0.65 4.93,4.93 0 0 1 -1.23,0.23 l -0.11,0.43 a 4,4 0 0 1 1.28,0.21 2.42,2.42 0 0 1 1.06,0.72 2.56,2.56 0 0 1 0.57,1.29 4.58,4.58 0 0 1 -0.16,1.92 9.11,9.11 0 0 1 -0.86,2.09 7.53,7.53 0 0 1 -1.33,1.7 5.78,5.78 0 0 1 -1.68,1.15 4.61,4.61 0 0 1 -2,0.41 H 149 z m -0.31,15.52 h 4.18 a 1.84,1.84 0 0 0 1.14,-0.38 2.26,2.26 0 0 0 0.73,-1.26 l 0.36,-1.35 a 1.48,1.48 0 0 0 0,-1.26 1.1,1.1 0 0 0 -0.94,-0.38 H 155 z m 2.09,-7.8 h 3.57 a 1.81,1.81 0 0 0 1.15,-0.38 2.22,2.22 0 0 0 0.71,-1.24 l 0.33,-1.23 a 1.48,1.48 0 0 0 0,-1.24 1.11,1.11 0 0 0 -0.95,-0.38 h -3.57 z"
       id="path33"
       style="fill:#00003c" />
    <path
       d="m 164.92,37.94 0.82,-3 H 168 l 3.41,-12.69 h -2.21 l 0.82,-3 h 8.28 l -0.82,3 h -2.21 L 171.81,34.9 H 174 l -0.82,3 z"
       id="path35"
       style="fill:#00003c" />
    <path
       d="m 176.52,37.94 5,-18.77 h 3.86 l -4.15,15.41 h 6.4 l -0.9,3.36 z"
       id="path37"
       style="fill:#00003c" />
    <path
       d="m 189.12,37.94 0.82,-3 h 2.21 l 3.42,-12.69 h -2.22 l 0.82,-3 h 8.28 l -0.81,3 h -2.22 L 196,34.9 h 2.22 l -0.82,3 z"
       id="path39"
       style="fill:#00003c" />
    <path
       d="m 212,22.53 -4.15,15.41 H 204 l 4.14,-15.41 h -4.54 l 0.91,-3.36 h 12.87 l -0.91,3.36 z"
       id="path41"
       style="fill:#00003c" />
    <path
       d="m 219.37,37.94 1.9,-7.07 -2.6,-11.7 h 4.21 l 1.28,7.69 h 0.43 l 5.31,-7.69 h 4.1 l -8.9,11.7 -1.9,7.07 z"
       id="path43"
       style="fill:#00003c" />
    <path
       d="M 283.52,36.88 H 274 l -3.18,11.86 H 265 l 7.65,-28.44 h 5.84 l -3.09,11.49 h 9.48 L 288,20.3 h 5.85 l -7.65,28.44 h -5.84 z"
       id="path45"
       style="fill:#ffffff" />
    <path
       d="m 308,48.74 0.11,-7 h -8.74 l -3.63,7 h -5.6 L 305.91,20.3 h 7.44 l 0.45,28.44 z m 0,-18.21 0.42,-4.93 h -0.65 l -2.22,4.93 -3.44,6.56 H 308 z"
       id="path47"
       style="fill:#ffffff" />
    <path
       d="M 327.36,49.23 A 11.88,11.88 0 0 1 322.89,48.46 6,6 0 0 1 320,46 a 9.26,9.26 0 0 1 -1.13,-4.48 23.77,23.77 0 0 1 1,-6.77 29,29 0 0 1 2.67,-6.82 18,18 0 0 1 3.57,-4.62 12.68,12.68 0 0 1 4.3,-2.63 14.39,14.39 0 0 1 4.91,-0.84 c 2.56,0 4.43,0.55 5.63,1.64 a 8.29,8.29 0 0 1 2.32,5 L 337.45,29 a 14.28,14.28 0 0 0 -0.1,-1.67 2.74,2.74 0 0 0 -0.49,-1.3 2.55,2.55 0 0 0 -1.1,-0.84 4.87,4.87 0 0 0 -1.86,-0.31 6.46,6.46 0 0 0 -4.24,1.48 8.32,8.32 0 0 0 -2.58,4.42 l -2,7.44 q -0.79,3 0.2,4.42 a 3.83,3.83 0 0 0 3.45,1.48 5.91,5.91 0 0 0 2.07,-0.35 5.82,5.82 0 0 0 1.67,-0.94 7.49,7.49 0 0 0 1.31,-1.38 19.11,19.11 0 0 0 1.12,-1.73 l 4.1,2.79 a 26.72,26.72 0 0 1 -2.4,2.84 14.45,14.45 0 0 1 -2.64,2.12 11.42,11.42 0 0 1 -3,1.32 13.75,13.75 0 0 1 -3.6,0.44 z"
       id="path49"
       style="fill:#ffffff" />
    <path
       d="m 354.05,36.15 -4.52,4.48 -2.18,8.11 h -5.84 L 349.15,20.3 H 355 l -2.48,9.21 -1.46,4.49 h 0.66 l 4,-4.52 8.69,-9.21 h 6.62 l -11.78,11.89 4.9,16.58 h -6.87 z"
       id="path51"
       style="fill:#ffffff" />
    <path
       d="m 363.94,56.36 1.26,-4.68 h 18.23 l -1.26,4.68 z"
       id="path53"
       style="fill:#ffffff" />
    <path
       d="m 406,48.74 h -18.27 l 1.42,-5.3 9.85,-7.62 a 27.49,27.49 0 0 0 4,-3.56 8,8 0 0 0 1.73,-3.16 l 0.35,-1.3 a 2.48,2.48 0 0 0 -0.28,-2.24 2.58,2.58 0 0 0 -2.2,-0.86 4,4 0 0 0 -1.67,0.35 5.3,5.3 0 0 0 -1.39,0.91 7.77,7.77 0 0 0 -1.13,1.33 10.92,10.92 0 0 0 -0.9,1.61 L 392.93,27 a 17.65,17.65 0 0 1 1.86,-2.77 12.12,12.12 0 0 1 2.46,-2.28 11.57,11.57 0 0 1 3.15,-1.55 13.1,13.1 0 0 1 4,-0.57 11.71,11.71 0 0 1 4,0.57 5,5 0 0 1 2.34,1.6 4.46,4.46 0 0 1 0.84,2.57 11.34,11.34 0 0 1 -0.45,3.4 14.44,14.44 0 0 1 -1,2.69 12.46,12.46 0 0 1 -1.64,2.42 23.69,23.69 0 0 1 -2.56,2.55 q -1.55,1.35 -3.81,3.06 l -6.82,5.17 h 12.05 z"
       id="path55"
       style="fill:#ffffff" />
    <path
       d="m 419,49.23 a 9.07,9.07 0 0 1 -4.19,-0.84 4.92,4.92 0 0 1 -2.35,-2.6 10.48,10.48 0 0 1 -0.55,-4.57 35.33,35.33 0 0 1 1.23,-6.7 39.08,39.08 0 0 1 2.38,-6.7 17.58,17.58 0 0 1 3,-4.57 10.54,10.54 0 0 1 3.75,-2.6 12.16,12.16 0 0 1 4.63,-0.84 9,9 0 0 1 4.19,0.84 4.92,4.92 0 0 1 2.35,2.6 10.48,10.48 0 0 1 0.55,4.57 35.33,35.33 0 0 1 -1.23,6.7 40,40 0 0 1 -2.37,6.7 17.85,17.85 0 0 1 -3,4.57 10.6,10.6 0 0 1 -3.74,2.6 12.25,12.25 0 0 1 -4.65,0.84 z m 1.31,-4.89 a 4.78,4.78 0 0 0 1.8,-0.31 3.49,3.49 0 0 0 1.37,-1 6.87,6.87 0 0 0 1.07,-1.78 19.28,19.28 0 0 0 0.91,-2.73 l 2.17,-8.06 c 0.58,-2.15 0.72,-3.65 0.43,-4.51 -0.29,-0.86 -1.06,-1.25 -2.44,-1.25 a 4,4 0 0 0 -3.16,1.3 11.77,11.77 0 0 0 -2,4.51 l -2.17,8.06 a 17.71,17.71 0 0 0 -0.55,2.73 4.25,4.25 0 0 0 0.12,1.78 1.59,1.59 0 0 0 0.84,1 3.59,3.59 0 0 0 1.64,0.26 z"
       id="path57"
       style="fill:#ffffff" />
    <path
       d="m 433.54,48.74 1.32,-4.89 h 6.33 l 4.91,-18.25 -6.37,3.46 -1.29,-4 8.76,-4.77 h 6.05 l -6.33,23.55 h 5.51 l -1.31,4.89 z"
       id="path59"
       style="fill:#ffffff" />
    <path
       d="m 478.51,31.06 a 23.86,23.86 0 0 1 -2.39,5.8 33.59,33.59 0 0 1 -3.48,5 31.23,31.23 0 0 1 -4.06,4 36.57,36.57 0 0 1 -4.1,2.93 h -8.05 q 2.9,-1.79 5.24,-3.44 a 46.2,46.2 0 0 0 4.21,-3.35 25.94,25.94 0 0 0 3.25,-3.53 19.35,19.35 0 0 0 2.33,-4 h -0.65 a 9.79,9.79 0 0 1 -2.66,2.89 6.51,6.51 0 0 1 -3.95,1.18 c -2.29,0 -3.89,-0.76 -4.8,-2.3 -0.91,-1.54 -1,-3.74 -0.2,-6.62 a 13.4,13.4 0 0 1 4.46,-7.23 12.33,12.33 0 0 1 8,-2.59 c 3.32,0 5.53,1 6.64,2.89 1.11,1.89 1.19,4.73 0.21,8.37 z m -10.6,2.81 a 4.56,4.56 0 0 0 3.08,-1 5.82,5.82 0 0 0 1.72,-3 l 0.35,-1.31 a 3.84,3.84 0 0 0 -0.11,-3 2.72,2.72 0 0 0 -2.52,-1 4.49,4.49 0 0 0 -3.08,1 5.83,5.83 0 0 0 -1.73,3 l -0.35,1.31 a 3.79,3.79 0 0 0 0.12,3 2.73,2.73 0 0 0 2.52,1 z"
       id="path61"
       style="fill:#ffffff" />
  </g>
</svg>
