<?xml version="1.0" encoding="UTF-8" standalone="no"?>
<!-- Created with Inkscape (http://www.inkscape.org/) -->

<svg
   xmlns:dc="http://purl.org/dc/elements/1.1/"
   xmlns:cc="http://creativecommons.org/ns#"
   xmlns:rdf="http://www.w3.org/1999/02/22-rdf-syntax-ns#"
   xmlns:svg="http://www.w3.org/2000/svg"
   xmlns="http://www.w3.org/2000/svg"
   version="1.1"
   width="100%"
   height="100%"
   viewBox="0 0 348 184"
   id="Layer_1">
  <title
     id="title10">ACC-HACK-Logo</title>
  <metadata
     id="metadata52">
    <rdf:RDF>
      <cc:Work
         rdf:about="">
        <dc:format>image/svg+xml</dc:format>
        <dc:type
           rdf:resource="http://purl.org/dc/dcmitype/StillImage" />
        <dc:title>ACC-HACK-Logo</dc:title>
      </cc:Work>
    </rdf:RDF>
  </metadata>
  <defs
     id="defs3">
    <style
       id="style5" />
    <clipPath
       id="clip-path">
      <rect
         width="345.67999"
         height="183.08"
         x="0.87"
         y="0"
         id="rect8"
         style="fill:none" />
    </clipPath>
  </defs>
  <path
     d="M 49.92,0 346.55,0 327.81,69.93 31.19,69.93 49.92,0 z"
     id="polygon12"
     style="fill:#ffae20" />
  <path
     d="m 24.54,94.72 296.63,0 -23.68,88.36 -296.62,0 23.67,-88.36 z"
     id="polygon14"
     style="fill:#00003c" />
  <g
     clip-path="url(#clip-path)"
     id="g16">
    <g
       transform="matrix(0.97,0,-0.26,0.97,50.07,48.33)"
       id="text18"
       style="font-size:35.47999954px;font-weight:700;fill:#00003c;font-family:'IBMPlexSansCond-Bold, IBM Plex Sans Condensed'">
      <path
         d="m 16.21436,0 -1.52564,-6.0670799 -7.5927201,0 L 5.5703599,0 0.70959999,0 7.7346399,-24.76504 l 6.4573601,0 L 21.21704,0 16.21436,0 m -4.29308,-15.85956 -0.78056,-4.29308 -0.56768,0 -0.7805601,4.29308 -1.45468,5.71228 5.1091201,0 -1.52564,-5.71228"
         id="path3032"
         style="letter-spacing:-0.01em" />
      <path
         d="m 33.06552,0.42575999 c -1.49017,-4.2e-7 -2.850236,-0.22470686 -4.0802,-0.67411999 -1.206327,-0.44941263 -2.247072,-1.1708386 -3.12224,-2.16428 -0.851524,-0.9934365 -1.525643,-2.2943686 -2.02236,-3.9027999 -0.473069,-1.6084187 -0.709602,-3.5716434 -0.7096,-5.8896801 -2e-6,-2.318012 0.236531,-4.293063 0.7096,-5.92516 0.496717,-1.655713 1.170836,-3.003952 2.02236,-4.04472 0.875168,-1.040723 1.915913,-1.797629 3.12224,-2.27072 1.229964,-0.496695 2.59003,-0.745054 4.0802,-0.74508 2.223399,2.6e-5 3.973744,0.484918 5.251039,1.45468 1.300916,0.946156 2.365315,2.389008 3.1932,4.32856 l -4.39952,2.27072 c -0.141935,-0.520355 -0.307508,-1.005248 -0.496719,-1.45468 -0.165589,-0.449394 -0.402122,-0.827847 -0.7096,-1.13536 -0.307508,-0.307473 -0.697787,-0.544006 -1.17084,-0.7096 -0.449427,-0.189206 -1.005279,-0.283819 -1.66756,-0.28384 -1.419211,2.1e-5 -2.530916,0.425781 -3.33512,1.27728 -0.804221,0.851539 -1.206327,2.128818 -1.20632,3.83184 l 0,6.4573601 c -7e-6,1.7030474 0.402099,2.9803262 1.20632,3.83184 0.804204,0.8515244 1.915909,1.277284 3.33512,1.27728 0.662281,4e-6 1.22996,-0.094609 1.70304,-0.28384 0.496706,-0.2128755 0.910639,-0.4848886 1.2418,-0.81604 0.331131,-0.3547945 0.603144,-0.7569008 0.816039,-1.20632 0.212865,-0.4730599 0.402092,-0.981606 0.56768,-1.52564 l 4.18664,2.41264 c -0.425779,0.9224845 -0.898845,1.7503503 -1.4192,2.4835999 -0.520391,0.7332556 -1.12355,1.3600683 -1.80948,1.88044 -0.662309,0.49672061 -1.431042,0.87517356 -2.306199,1.13536 -0.875187,0.26018637 -1.868626,0.39027957 -2.98032,0.39027999"
         id="path3034"
         style="letter-spacing:0em" />
      <path
         d="m 53.715988,0.42575999 c -1.49017,-4.2e-7 -2.850235,-0.22470686 -4.0802,-0.67411999 -1.206326,-0.44941263 -2.247071,-1.1708386 -3.12224,-2.16428 -0.851523,-0.9934365 -1.525642,-2.2943686 -2.02236,-3.9027999 -0.473068,-1.6084187 -0.709601,-3.5716434 -0.709599,-5.8896801 -2e-6,-2.318012 0.236531,-4.293063 0.709599,-5.92516 0.496718,-1.655713 1.170837,-3.003952 2.02236,-4.04472 0.875169,-1.040723 1.915914,-1.797629 3.12224,-2.27072 1.229965,-0.496695 2.59003,-0.745054 4.0802,-0.74508 2.2234,2.6e-5 3.973745,0.484918 5.25104,1.45468 1.300916,0.946156 2.365314,2.389008 3.1932,4.32856 l -4.39952,2.27072 c -0.141935,-0.520355 -0.307508,-1.005248 -0.49672,-1.45468 -0.165588,-0.449394 -0.402121,-0.827847 -0.7096,-1.13536 -0.307507,-0.307473 -0.697787,-0.544006 -1.17084,-0.7096 -0.449426,-0.189206 -1.005278,-0.283819 -1.66756,-0.28384 -1.41921,2.1e-5 -2.530915,0.425781 -3.33512,1.27728 -0.80422,0.851539 -1.206327,2.128818 -1.20632,3.83184 l 0,6.4573601 c -7e-6,1.7030474 0.4021,2.9803262 1.20632,3.83184 0.804205,0.8515244 1.91591,1.277284 3.33512,1.27728 0.662282,4e-6 1.229961,-0.094609 1.70304,-0.28384 0.496707,-0.2128755 0.91064,-0.4848886 1.2418,-0.81604 0.331132,-0.3547945 0.603145,-0.7569008 0.81604,-1.20632 0.212865,-0.4730599 0.402091,-0.981606 0.56768,-1.52564 l 4.18664,2.41264 c -0.425779,0.9224845 -0.898846,1.7503503 -1.4192,2.4835999 -0.520391,0.7332556 -1.123551,1.3600683 -1.80948,1.88044 -0.662309,0.49672061 -1.431042,0.87517356 -2.3062,1.13536 -0.875187,0.26018637 -1.868626,0.39027957 -2.98032,0.39027999"
         id="path3036"
         style="letter-spacing:0em" />
      <path
         d="M 74.95908,0.42575999 C 73.46891,0.42575957 72.120671,0.20105313 70.91436,-0.24836 69.708033,-0.72142594 68.679115,-1.4665052 67.8276,-2.4836 c -0.851524,-1.0407431 -1.513816,-2.3653284 -1.98688,-3.9737599 -0.473069,-1.6320719 -0.709602,-3.6071231 -0.7096,-5.9251601 -2e-6,-2.318012 0.236531,-4.281236 0.7096,-5.88968 0.473064,-1.63206 1.135356,-2.956645 1.98688,-3.97376 0.851515,-1.040723 1.880433,-1.785802 3.08676,-2.23524 1.206311,-0.473041 2.55455,-0.709574 4.04472,-0.7096 1.490147,2.6e-5 2.838385,0.236559 4.044719,0.7096 1.206304,0.449438 2.235223,1.194517 3.08676,2.23524 0.851501,1.017115 1.513794,2.3417 1.98688,3.97376 0.473046,1.608444 0.709579,3.571668 0.7096,5.88968 -2.1e-5,2.318037 -0.236554,4.2930882 -0.7096,5.9251601 -0.473086,1.6084315 -1.135379,2.9330168 -1.98688,3.9737599 -0.851537,1.0170948 -1.880456,1.76217406 -3.08676,2.23524 -1.206334,0.44941313 -2.554572,0.67411957 -4.044719,0.67411999 m 0,-4.47047989 c 1.419187,4e-6 2.507239,-0.4257556 3.26416,-1.27728 0.780544,-0.8515138 1.170824,-2.1287926 1.170839,-3.83184 l 0,-6.4573601 c -1.5e-5,-1.703022 -0.390295,-2.980301 -1.170839,-3.83184 -0.756921,-0.851499 -1.844973,-1.277259 -3.26416,-1.27728 -1.41921,2.1e-5 -2.519089,0.425781 -3.29964,1.27728 -0.756914,0.851539 -1.135367,2.128818 -1.13536,3.83184 l 0,6.4573601 c -7e-6,1.7030474 0.378446,2.9803262 1.13536,3.83184 0.780551,0.8515244 1.88043,1.277284 3.29964,1.27728"
         id="path3038"
         style="letter-spacing:0.01em" />
      <path
         d="m 93.713031,-24.76504 0,16.0724401 c -7e-6,1.6320871 0.272006,2.8147525 0.81604,3.548 0.567672,0.7096044 1.572937,1.064404 3.0158,1.0644 1.442841,4e-6 2.43628,-0.3547956 2.980319,-1.0644 0.56767,-0.7332475 0.85151,-1.9159129 0.85152,-3.548 l 0,-16.0724401 5.07364,0 0,15.3983201 c -2e-5,1.7503543 -0.15377,3.2405128 -0.46124,4.47048 -0.30751,1.2299769 -0.81606,2.2470693 -1.52564,3.0512799 -0.68596,0.7805611 -1.59662,1.36006716 -2.73196,1.73852 -1.13537,0.35479975 -2.530918,0.53219957 -4.186639,0.53219999 -1.655743,-4.2e-7 -3.051288,-0.17740024 -4.18664,-0.53219999 -1.135366,-0.37845284 -2.057845,-0.9579589 -2.76744,-1.73852 -0.68595,-0.8042106 -1.182669,-1.821303 -1.49016,-3.0512799 -0.307495,-1.2299672 -0.461242,-2.7201257 -0.46124,-4.47048 l 0,-15.3983201 5.07364,0"
         id="path3040"
         style="letter-spacing:0.01em" />
      <path
         d="m 117.76348,-13.26952 -1.56112,-3.93828 -0.56768,0 0.28384,4.15116 0,13.05664 -4.75432,0 0,-24.76504 5.53488,0 6.24448,13.26952 1.56112,3.9382801 0.56768,0 -0.28384,-4.1511601 0,-13.05664 4.75432,0 0,24.76504 -5.53488,0 -6.24448,-13.26952"
         id="path3042"
         style="letter-spacing:0.01em" />
      <path
         d="m 144.84581,-20.33004 0,20.33004 -5.07364,0 0,-20.33004 -5.92516,0 0,-4.435 16.92396,0 0,4.435 -5.92516,0"
         id="path3044"
         style="letter-spacing:-0.05em" />
      <path
         d="m 166.23436,0 -1.52564,-6.0670799 -7.59272,0 L 155.59036,0 l -4.86076,0 7.02504,-24.76504 6.45736,0 L 171.23704,0 166.23436,0 m -4.29308,-15.85956 -0.78056,-4.29308 -0.56768,0 -0.78056,4.29308 -1.45468,5.71228 5.10912,0 -1.52564,-5.71228"
         id="path3046"
         style="letter-spacing:0.01em" />
      <path
         d="m 174.33046,-24.76504 10.9988,0 c 1.98686,2.5e-5 3.45337,0.579531 4.39952,1.73852 0.96976,1.159035 1.45466,2.696501 1.45468,4.6124 -2e-5,1.040764 -0.13012,1.90411 -0.39028,2.59004 -0.23656,0.662309 -0.55588,1.194508 -0.95796,1.5966 -0.37847,0.378467 -0.81606,0.662307 -1.31276,0.85152 -0.49674,0.165587 -1.00529,0.2602 -1.52564,0.28384 l 0,0.56768 c 0.56766,1.3e-5 1.14717,0.09463 1.73852,0.28384 0.61497,0.189239 1.17082,0.508559 1.66756,0.95796 0.4967,0.425771 0.8988,0.99345 1.20632,1.7030401 0.30747,0.6859556 0.46122,1.5256481 0.46124,2.51908 -2e-5,0.9697927 -0.13012,1.8922718 -0.39028,2.76744 -0.26021,0.8515234 -0.63866,1.5966026 -1.13536,2.2352399 -0.49674,0.6386414 -1.0999,1.14718759 -1.80948,1.52564001 C 188.02572,-0.17739982 187.22151,0 186.3227,0 l -11.99224,0 0,-24.76504 m 5.07364,20.4719601 5.4994,0 c 0.56766,4.2e-6 1.01708,-0.1655689 1.34824,-0.49672 0.35478,-0.3311416 0.53218,-0.8869943 0.5322,-1.66756 l 0,-1.774 c -2e-5,-0.780551 -0.17742,-1.3364037 -0.5322,-1.66756 -0.33116,-0.3311361 -0.78058,-0.4967091 -1.34824,-0.4967201 l -5.4994,0 0,6.1025601 m 0,-10.2892001 4.68336,0 c 0.59132,1.5e-5 1.05256,-0.165558 1.38372,-0.49672 0.33113,-0.331131 0.4967,-0.875157 0.49672,-1.63208 l 0,-1.63208 c -2e-5,-0.756887 -0.16559,-1.300913 -0.49672,-1.63208 -0.33116,-0.331126 -0.7924,-0.496699 -1.38372,-0.49672 l -4.68336,0 0,5.88968"
         id="path3048"
         style="letter-spacing:0.01em" />
      <path
         d="m 194.85785,0 0,-4.0092399 2.90936,0 0,-16.7465601 -2.90936,0 0,-4.00924 10.89236,0 0,4.00924 -2.90936,0 0,16.7465601 2.90936,0 0,4.0092399 -10.89236,0"
         id="path3050"
         style="letter-spacing:0.01em" />
      <path
         d="m 209.74116,0 0,-24.76504 5.07364,0 0,20.3300401 8.40876,0 0,4.4349999 -13.4824,0"
         id="path3052"
         style="letter-spacing:0.01em" />
      <path
         d="m 227.4266,0 0,-4.0092399 2.90936,0 0,-16.7465601 -2.90936,0 0,-4.00924 10.89236,0 0,4.00924 -2.90936,0 0,16.7465601 2.90936,0 0,4.0092399 -10.89236,0"
         id="path3054"
         style="letter-spacing:0.01em" />
      <path
         d="m 252.0158,-20.33004 0,20.33004 -5.07364,0 0,-20.33004 -5.92516,0 0,-4.435 16.92396,0 0,4.435 -5.92516,0"
         id="path3056"
         style="letter-spacing:0.02em" />
      <path
         d="m 267.19463,0 0,-9.3312399 -7.55724,-15.4338001 5.53488,0 4.39952,10.14728 0.56768,0 4.2576,-10.14728 5.42844,0 -7.55724,15.4338001 0,9.3312399 -5.07364,0"
         id="path3058" />
    </g>
    <g
       transform="matrix(0.97,0,-0.26,0.97,20.82,161.48)"
       id="text36"
       style="font-size:53.72999954px;font-weight:700;letter-spacing:0.01em;fill:#ffffff;font-family:'IBMPlexSansCond-Bold, IBM Plex Sans Condensed'">
      <path
         d="m 23.80239,-15.63543 -12.46536,0 0,15.63543 -7.68339,0 0,-37.50354 7.68339,0 0,15.20559 12.46536,0 0,-15.20559 7.68339,0 0,37.50354 -7.68339,0 0,-15.63543"
         id="path3061"
         style="font-size:53.72999954px;font-weight:700;letter-spacing:0.01em;fill:#ffffff;font-family:'IBMPlexSansCond-Bold, IBM Plex Sans Condensed'" />
      <path
         d="m 60.224608,0 -2.31039,-9.1878299 -11.49822,0 L 44.105608,0 l -7.36101,0 10.63854,-37.50354 9.77886,0 L 67.800538,0 60.224608,0 m -6.50133,-24.01731 -1.18206,-6.50133 -0.85968,0 -1.18206,6.50133 -2.20293,8.65053 7.73712,0 -2.31039,-8.65053"
         id="path3063"
         style="letter-spacing:-0.01em" />
      <path
         d="m 85.748516,0.64475999 c -2.256675,-6.4e-7 -4.316323,-0.3402903 -6.17895,-1.02086999 -1.826829,-0.6805789 -3.402908,-1.7730878 -4.72824,-3.27753 -1.289525,-1.5044348 -2.310394,-3.4745328 -3.06261,-5.9102999 -0.716402,-2.4357481 -1.074602,-5.4088051 -1.0746,-8.9191801 -2e-6,-3.510338 0.358198,-6.501305 1.0746,-8.97291 0.752216,-2.50737 1.773085,-4.549108 3.06261,-6.12522 1.325332,-1.576045 2.901411,-2.722283 4.72824,-3.43872 1.862627,-0.752182 3.922275,-1.128292 6.17895,-1.12833 3.367059,3.8e-5 6.017737,0.734348 7.95204,2.20293 1.970073,1.432835 3.581971,3.617853 4.8357,6.55506 l -6.66252,3.43872 c -0.214943,-0.788013 -0.465683,-1.522322 -0.75222,-2.20293 -0.250762,-0.680551 -0.608962,-1.25367 -1.0746,-1.71936 -0.465681,-0.465629 -1.05671,-0.823829 -1.77309,-1.0746 -0.680599,-0.286528 -1.522368,-0.429808 -2.52531,-0.42984 -2.149215,3.2e-5 -3.832753,0.644791 -5.05062,1.93428 -1.217891,1.289548 -1.82683,3.223826 -1.82682,5.80284 l 0,9.77886 c -1e-5,2.579051 0.608929,4.5133294 1.82682,5.8028401 1.217867,1.2895267 2.901405,1.9342861 5.05062,1.93428 1.002942,6.1e-6 1.862621,-0.1432738 2.57904,-0.42984 0.752199,-0.3223732 1.379049,-0.7343027 1.88055,-1.23579 0.501458,-0.5372917 0.913387,-1.1462311 1.23579,-1.82682 0.322357,-0.7163901 0.608916,-1.4865191 0.85968,-2.3103901 l 6.34014,3.6536401 c -0.64479,1.3969868 -1.361189,2.6506856 -2.1492,3.7610999 -0.788067,1.1104234 -1.701476,2.0596525 -2.74023,2.84769 -1.002984,0.75222092 -2.167133,1.32534034 -3.49245,1.71936 -1.32536,0.39401955 -2.829799,0.59102935 -4.51332,0.59102999"
         id="path3065"
         style="letter-spacing:0.01em" />
      <path
         d="m 115.72146,-16.60257 -4.35213,5.9103 0,10.69227 -7.68339,0 0,-37.50354 7.68339,0 0,12.14298 -0.32238,5.96403 0.85968,0 3.70737,-5.96403 8.16696,-12.14298 8.70426,0 -11.33703,15.63543 L 133.45236,0 l -9.02664,0 -8.70426,-16.60257"
         id="path3067"
         style="letter-spacing:0.01em" />
      <path
         d="m 135.37909,10.04751 0,-6.17895 23.96358,0 0,6.17895 -23.96358,0"
         id="path3069"
         style="letter-spacing:0.01em" />
      <path
         d="m 189.06754,0 -24.07104,0 0,-6.9848999 10.26243,-10.0475101 c 1.86262,-1.826801 3.17005,-3.384969 3.92229,-4.67451 0.78802,-1.325317 1.18204,-2.722295 1.18206,-4.19094 l 0,-1.71936 c -2e-5,-1.217851 -0.39404,-2.2029 -1.18206,-2.95515 -0.75224,-0.752188 -1.80893,-1.128298 -3.17007,-1.12833 -0.78806,3.2e-5 -1.48654,0.161222 -2.09547,0.48357 -0.57313,0.286591 -1.07461,0.680611 -1.50444,1.18206 -0.39403,0.50151 -0.73432,1.092539 -1.02087,1.77309 -0.25075,0.644788 -0.44776,1.343277 -0.59103,2.09547 l -6.66252,-2.52531 c 0.3582,-1.28949 0.84176,-2.507369 1.45071,-3.65364 0.64475,-1.146206 1.4507,-2.149165 2.41785,-3.00888 1.00295,-0.859643 2.20292,-1.540223 3.59991,-2.04174 1.43279,-0.501442 3.13424,-0.752182 5.10435,-0.75222 2.14918,3.8e-5 3.95809,0.250778 5.42673,0.75222 1.50442,0.501517 2.72229,1.217916 3.65364,2.1492 0.93129,0.895535 1.59396,2.023864 1.98801,3.38499 0.42981,1.325371 0.64473,2.811899 0.64476,4.45959 -3e-5,1.289546 -0.1254,2.471605 -0.37611,3.54618 -0.25077,1.074623 -0.68061,2.149222 -1.28952,3.2238 -0.60897,1.0388 -1.43283,2.149219 -2.47158,3.33126 -1.0388,1.182076 -2.34623,2.525325 -3.92229,4.02975 l -7.14609,6.8237101 15.85035,0 0,6.4475999"
         id="path3071"
         style="letter-spacing:0.01em" />
      <path
         d="m 206.3071,0.64475999 c -2.25667,-6.4e-7 -4.19095,-0.35820028 -5.80284,-1.07459999 -1.6119,-0.7522188 -2.95515,-1.8984577 -4.02975,-3.43872 -1.03878,-1.5760745 -1.80891,-3.5819925 -2.31039,-6.0177599 -0.50148,-2.4715681 -0.75222,-5.4267151 -0.75222,-8.8654501 0,-3.438698 0.25074,-6.375935 0.75222,-8.81172 0.50148,-2.47155 1.27161,-4.477468 2.31039,-6.01776 1.0746,-1.576045 2.41785,-2.722283 4.02975,-3.43872 1.61189,-0.752182 3.54617,-1.128292 5.80284,-1.12833 2.25665,3.8e-5 4.19092,0.376148 5.80284,1.12833 1.61188,0.716437 2.93722,1.862675 3.97602,3.43872 1.07458,1.540292 1.86262,3.54621 2.36412,6.01776 0.50146,2.435785 0.7522,5.373022 0.75222,8.81172 -2e-5,3.438735 -0.25076,6.393882 -0.75222,8.8654501 -0.5015,2.4357674 -1.28954,4.4416854 -2.36412,6.0177599 -1.0388,1.5402623 -2.36414,2.6865012 -3.97602,3.43872 -1.61192,0.71639971 -3.54619,1.07459935 -5.80284,1.07459999 m 0,-6.44759999 c 0.89549,5.9e-6 1.64771,-0.125364 2.25666,-0.3761099 0.60893,-0.2865536 1.0925,-0.7163931 1.45071,-1.28952 0.35818,-0.608932 0.60892,-1.3969712 0.75222,-2.36412 0.17908,-0.9671291 0.26863,-2.1670981 0.26865,-3.5999101 l 0,-10.63854 c -2e-5,-2.829753 -0.34031,-4.799851 -1.02087,-5.9103 -0.68059,-1.146209 -1.91638,-1.719328 -3.70737,-1.71936 -1.79101,3.2e-5 -3.0268,0.573151 -3.70737,1.71936 -0.68059,1.110449 -1.02088,3.080547 -1.02087,5.9103 l 0,10.63854 c -1e-5,1.432812 0.0716,2.632781 0.21492,3.5999101 0.17909,0.9671488 0.44774,1.755188 0.80595,2.36412 0.35819,0.5731269 0.84176,1.0029664 1.45071,1.28952 0.60893,0.2507459 1.36115,0.3761158 2.25666,0.3761099"
         id="path3073" />
      <path
         d="m 224.68612,0 0,-6.4475999 8.32815,0 0,-24.0710401 -7.14609,4.56705 -3.11634,-5.26554 9.83259,-6.28641 7.95204,0 0,31.0559401 7.25355,0 0,6.4475999 -23.1039,0"
         id="path3075" />
      <path
         d="m 278.1411,-23.31882 c -2e-5,2.722341 -0.37613,5.283468 -1.12833,7.68339 -0.71642,2.364133 -1.64774,4.531241 -2.79396,6.5013301 -1.14626,1.9701071 -2.45369,3.7252854 -3.92229,5.2655399 -1.46863,1.5402623 -2.91934,2.829781 -4.35213,3.86856 l -10.58481,0 c 2.11338,-1.5760784 3.99393,-3.0805169 5.64165,-4.51332 1.68353,-1.468614 3.13424,-2.9372325 4.35213,-4.4058599 1.25369,-1.5044291 2.27456,-3.0625981 3.06261,-4.6745101 0.78803,-1.611885 1.34323,-3.349153 1.66563,-5.21181 l -0.85968,0 c -0.50149,1.504457 -1.32535,2.776066 -2.47158,3.81483 -1.14625,1.038794 -2.74024,1.558184 -4.78197,1.55817 -3.00888,1.4e-5 -5.39091,-1.002945 -7.14609,-3.00888 -1.71936,-2.041721 -2.57904,-4.961048 -2.57904,-8.75799 0,-4.08345 1.09251,-7.253517 3.27753,-9.51021 2.22084,-2.292443 5.44463,-3.438682 9.6714,-3.43872 4.37003,3.8e-5 7.61173,1.271647 9.72513,3.81483 2.14918,2.543252 3.22378,6.214798 3.2238,11.01465 m -12.94893,3.70737 c 1.64771,2e-5 2.86559,-0.44773 3.65364,-1.34325 0.82384,-0.931298 1.23577,-2.256637 1.23579,-3.97602 l 0,-1.71936 c -2e-5,-1.719331 -0.41195,-3.02676 -1.23579,-3.92229 -0.78805,-0.931288 -2.00593,-1.396948 -3.65364,-1.39698 -1.64773,3.2e-5 -2.88352,0.465692 -3.70737,1.39698 -0.78805,0.89553 -1.18207,2.202959 -1.18206,3.92229 l 0,1.71936 c -10e-6,1.719383 0.39401,3.044722 1.18206,3.97602 0.82385,0.89552 2.05964,1.34327 3.70737,1.34325"
         id="path3077"
         style="letter-spacing:0em" />
    </g>
  </g>
  <path
     d="m 53.06,94.72 -21.87,-24.79 268.11,0 21.87,24.79 -268.11,0 z"
     id="polygon48"
     style="fill:#b27202" />
</svg>
