<svg id="Layer_1" data-name="Layer 1" xmlns="http://www.w3.org/2000/svg" viewBox="0 0 70 70"><defs><style>.cls-1{fill:#00003c;}</style></defs><title>ACC-HACK-hallenge-2-1</title><path class="cls-1" d="M14.18,44.52h2.91V30.64a1.46,1.46,0,0,0-2.91,0Zm27-8.73a5.83,5.83,0,1,0-5.82,5.82,5.82,5.82,0,0,0,5.82-5.82m12.48,8.73H56.6V30.64a1.46,1.46,0,0,0-2.91,0V44.52Zm5.82,16.21H39.76V54.11a7.27,7.27,0,0,0-4.37-6.67A7.27,7.27,0,0,0,31,54.11v6.62H11.27V26.28l3.64-6.64V13.22a.73.73,0,1,1,1.45,0v6.42L20,26.28V36.85h2.91L34.66,23.14V19.38a.73.73,0,0,1,1.46,0v3.76L47.86,36.85h2.91V26.28l3.64-6.64V13.22a.73.73,0,1,1,1.46,0v6.42l3.64,6.64V60.73Z"/></svg>