<svg id="Layer_1" data-name="Layer 1" xmlns="http://www.w3.org/2000/svg" viewBox="0 0 70 70"><defs><style>.cls-1{fill:#ffffff;}</style></defs><title>ACC-HACK-hallenge-2</title><path class="cls-1" d="M62.78,36.61A27.39,27.39,0,1,0,35.39,64,27.39,27.39,0,0,0,62.78,36.61M35.39,13.13A23.48,23.48,0,1,1,11.91,36.61,23.52,23.52,0,0,1,35.39,13.13"/><path class="cls-1" d="M24.78,40.57h1.46V33.63a.73.73,0,1,0-1.46,0ZM38.3,36.2a2.91,2.91,0,1,0-2.91,2.91A2.91,2.91,0,0,0,38.3,36.2m6.24,4.37H46V33.63a.73.73,0,1,0-1.45,0v6.94Zm2.91,8.1H37.57V45.36A3.66,3.66,0,0,0,35.39,42a3.65,3.65,0,0,0-2.19,3.34v3.31H23.33V31.44l1.82-3.31V24.91a.36.36,0,0,1,.36-.36.37.37,0,0,1,.37.36v3.22l1.82,3.31v5.29h1.45L35,29.88V28a.38.38,0,0,1,.37-.37.37.37,0,0,1,.36.37v1.88l5.88,6.85h1.45V31.44l1.82-3.31V24.91a.37.37,0,0,1,.73,0v3.22l1.82,3.31V48.67Zm9.46-12.06A21.52,21.52,0,1,0,35.39,58.13,21.51,21.51,0,0,0,56.91,36.61"/></svg>
