<svg id="Layer_1" data-name="Layer 1" xmlns="http://www.w3.org/2000/svg" viewBox="0 0 70 70"><defs><style>.cls-1{fill:#00003c;}</style></defs><title>ACC-HACK-Challenge-1</title><path class="cls-1" d="M56.91,35.65A21.52,21.52,0,1,0,35.39,57.17,21.51,21.51,0,0,0,56.91,35.65M39.3,23.92A3.91,3.91,0,1,1,35.39,20a3.9,3.9,0,0,1,3.91,3.92M50,28.35a1.94,1.94,0,0,1-1.44,2.35,76.56,76.56,0,0,1-9.26,1.77c.12,10.34,1.26,13.21,2.54,16.51l.27.64A2,2,0,0,1,41,52.16a1.81,1.81,0,0,1-.7.12A1.94,1.94,0,0,1,38.45,51l-.25-.61A31.47,31.47,0,0,1,36,42.5H34.75a31.47,31.47,0,0,1-2.17,7.92l-.25.61a1.94,1.94,0,0,1-1.83,1.25,1.78,1.78,0,0,1-.7-.12,2,2,0,0,1-1.14-2.54l.28-.64c1.28-3.3,2.41-6.17,2.54-16.51a76.7,76.7,0,0,1-9.27-1.77,2,2,0,0,1,.92-3.79,53.7,53.7,0,0,0,12.26,1.9,53.7,53.7,0,0,0,12.26-1.9A2,2,0,0,1,50,28.35"/><path class="cls-1" d="M62.78,35.65A27.39,27.39,0,1,0,35.39,63,27.39,27.39,0,0,0,62.78,35.65M35.39,12.18A23.48,23.48,0,1,1,11.91,35.65,23.51,23.51,0,0,1,35.39,12.18"/></svg>