<?xml version="1.0" encoding="utf-8" standalone="no"?><!-- Generator: Adobe Illustrator 18.0.0, SVG Export Plug-In . SVG Version: 6.00 Build 0)  --><svg xmlns="http://www.w3.org/2000/svg" xmlns:xlink="http://www.w3.org/1999/xlink" contentScriptType="application/ecmascript" contentStyleType="text/css" enable-background="new 0 0 600 125" height="125px" id="logo" preserveAspectRatio="xMidYMid meet" version="1.1" viewBox="0 0 600 125" width="600px" x="0px" xml:space="preserve" y="0px" zoomAndPan="magnify">
<g>
	<circle cx="6" cy="62.2" fill="#00B5DD" r="6"/>
	<circle cx="54.5" cy="62.2" fill="#00B5DD" r="20.3"/>
	<ellipse cx="103.1" cy="62.5" fill="#00B5DD" rx="10.8" ry="40.5" transform="matrix(0.866 0.5 -0.5 0.866 45.0651 -43.1837)"/>
	
		<ellipse cx="200.2" cy="62.5" fill="#00B5DD" rx="15.4" ry="9.1" transform="matrix(0.7071 0.7071 -0.7071 0.7071 102.833 -123.217)"/>
	<g>
		<path d="M318.5,61.3h0.6c0.9,0,1.4,0,1.4-0.8V44.2c0-2-0.6-2-1.4-2.3v-0.6c1.1-0.3,2.3-0.8,3.1-1.1    c0.3-0.3,0.6-0.3,0.6-0.3c0.3,0,0.3,0.3,0.3,0.3v20.3c0,0.8,0.6,0.8,1.4,0.8h0.6v0.8c-0.9,0-2,0-3.1,0s-2,0-3.1,0v-0.8H318.5z" fill="#123274"/>
		<path d="M340.4,51h-2.9c0.6,0.6,0.9,1.4,0.9,2.3c0,2-1.7,4.6-5.4,4.6c-0.6,0-1.1,0-1.7-0.3    c-0.6,0.3-0.9,0.8-0.9,1.4s0,1.4,2,1.4c1.4,0,2.9,0,4,0c2.6,0,4,0.8,4,2.9c0,1.1-1.4,5.7-7.7,5.7c-3.7,0-5.4-1.7-5.4-3.1    c0-2,1.7-3.1,3.4-3.4l0,0c-1.1-0.3-2.6-1.1-2.6-2.6c0-0.3,0-0.6,0-0.8c0.9-0.6,2-1.1,2.6-1.4c-1.7-0.8-2.9-2-2.9-4    c0-2.6,2-4.6,5.4-4.6c0.9,0,2,0.3,2.6,0.3c0.9,0.3,1.7,0.6,2.9,0.6c0.6,0,0.9,0,1.7-0.3L340.4,51L340.4,51z M334.2,62.2    c-2,0-4.9,0-4.9,2.9c0,2,1.7,2.9,4,2.9c1.7,0,5.1-0.8,5.1-3.4C338.2,62.4,335.6,62.2,334.2,62.2z M332.7,49.6    c-1.7,0-2.6,1.7-2.6,3.4c0,1.7,0.9,4,2.9,4c2,0,2.9-1.7,2.9-3.4C335.9,51.6,335,49.6,332.7,49.6z" fill="#123274"/>
		<path d="M345.3,54.2c0,0.3,0,0.6,0,1.7c0.3,2.9,2,5.1,4.3,5.1c1.7,0,2.9-0.8,4-2l0.3,0.3c-1.4,1.7-3.1,3.4-5.4,3.4    c-4.6,0-5.7-4.6-5.7-6.3c0-5.7,4-7.4,6-7.4c2.3,0,4.9,1.4,4.9,4.6c0,0.3,0,0.3,0,0.6l-0.3,0.3h-8V54.2z M350.4,53.3    c0.9,0,0.9-0.3,0.9-0.8c0-1.4-0.9-2.6-2.6-2.6s-3.1,1.4-3.4,3.4C345.3,53.3,350.4,53.3,350.4,53.3z" fill="#123274"/>
		<path d="M358.1,52.5c0-1.4-0.6-1.4-1.4-2v-0.6c1.4-0.3,2.9-0.8,3.1-1.1c0.3,0,0.3-0.3,0.6-0.3s0.3,0.3,0.3,0.3v1.7    c1.7-1.1,2.9-2.3,5.1-2.3c1.4,0,2.6,0.8,3.1,2.3c1.7-1.1,2.9-2.3,5.1-2.3c2.6,0,3.4,2,3.4,4v7.4c0,0.8,0.6,0.8,1.4,0.8h0.6v1.7    c-0.9,0-2,0-3.1,0s-2,0-3.1,0v-0.9h0.6c0.9,0,1.4,0,1.4-0.8v-6.6c0-1.7-0.3-3.7-2.6-3.7c-1.1,0-2.9,0.8-3.4,1.4v8.6    c0,0.8,0.6,0.8,1.4,0.8h0.6v1.1c-1.1,0-2,0-3.1,0s-2,0-3.1,0v-0.9h0.6c0.9,0,1.4,0,1.4-0.8v-6.6c0-1.7-0.3-3.7-2.6-3.7    c-1.1,0-2.9,0.8-3.4,1.4v8.6c0,0.8,0.6,0.8,1.4,0.8h0.6v1.1c-1.1,0-2,0-3.1,0s-2,0-3.1,0v-0.9h0.6c0.9,0,1.4,0,1.4-0.8v-8    C358.8,52.5,358.1,52.5,358.1,52.5z" fill="#123274"/>
		<path d="M383.5,54.2c0,0.3,0,0.6,0,1.7c0.3,2.9,2,5.1,4.3,5.1c1.7,0,2.9-0.8,4-2l0.3,0.3c-1.4,1.7-3.1,3.4-5.4,3.4    c-4.6,0-5.7-4.6-5.7-6.3c0-5.7,4-7.4,6-7.4c2.3,0,4.9,1.4,4.9,4.6c0,0.3,0,0.3,0,0.6l-0.3,0.3h-8V54.2z M388.7,53.3    c0.9,0,0.9-0.3,0.9-0.8c0-1.4-0.9-2.6-2.6-2.6s-3.1,1.4-3.4,3.4C383.5,53.3,388.7,53.3,388.7,53.3z" fill="#123274"/>
		<path d="M396.7,52.7c0-1.1-0.3-1.4-1.7-2v-0.6c1.1-0.3,2.6-0.8,4-1.4c0,0,0.3,0,0.3,0.3v2c1.7-1.1,3.1-2.3,5.1-2.3    c2.6,0,3.4,1.7,3.4,4v7.4c0,0.8,0.6,0.8,1.4,0.8h0.6v1.1c-1.1,0-2,0-3.1,0s-2,0-3.1,0v-0.9h0.6c0.9,0,1.4,0,1.4-0.8v-7.7    c0-1.7-1.1-2.6-2.6-2.6c-0.9,0-2.6,0.8-3.4,1.4v8.6c0,0.8,0.6,0.8,1.4,0.8h0.6v1.1c-1.1,0-2,0-3.1,0s-2,0-3.1,0v-0.9h0.6    c0.9,0,1.4,0,1.4-0.8v-7.7H396.7z" fill="#123274"/>
		<path d="M414.1,54.2c0,0.3,0,0.6,0,1.7c0.3,2.9,2,5.1,4.3,5.1c1.7,0,2.9-0.8,4-2l0.3,0.3c-1.4,1.7-3.1,3.4-5.4,3.4    c-4.6,0-5.7-4.6-5.7-6.3c0-5.7,4-7.4,6-7.4c2.3,0,4.9,1.4,4.9,4.6c0,0.3,0,0.3,0,0.6l-0.3,0.3h-8V54.2z M419.2,53.3    c0.9,0,0.9-0.3,0.9-0.8c0-1.4-0.9-2.6-2.6-2.6s-3.1,1.4-3.4,3.4H419.2z" fill="#123274"/>
		<path d="M436.6,52.5v6.8c0,2,1.1,2,2.6,2v0.8c-1.4,0-2.6,0-4,0s-2.9,0-4.3,0v-0.8c1.4,0,2.6-0.3,2.6-2V44.5    c0-2-1.1-2-2.6-2v-0.9c1.7,0,3.1,0,4.6,0c1.1,0,2,0,4,0c5.4,0,6.8,3.1,6.8,5.1c0,2.6-2,4.3-4.3,5.1c2.6,4,4,6.3,5.4,7.7    c0.9,1.1,1.7,1.7,3.4,1.7v0.8c-0.9,0-1.4,0-2.3,0s-1.7,0-2.6,0c-2.6-2.9-4.6-6.3-6.8-9.7L436.6,52.5L436.6,52.5L436.6,52.5z     M438.3,42.8c-0.9,0-1.1,0-1.7,0.3v8.6c0.6,0,1.1,0.3,1.4,0.3c3.7,0,5.1-2.3,5.1-4.6C443.2,44.5,441.8,42.8,438.3,42.8z" fill="#123274"/>
		<path d="M454.6,54.2c0,0.3,0,0.6,0,1.7c0.3,2.9,2,5.1,4.3,5.1c1.7,0,2.9-0.8,4-2l0.3,0.3c-1.4,1.7-3.1,3.4-5.4,3.4    c-4.6,0-5.7-4.6-5.7-6.3c0-5.7,4-7.4,6-7.4c2.3,0,4.9,1.4,4.9,4.6c0,0.3,0,0.3,0,0.6l-0.3,0.3h-8V54.2z M459.7,53.3    c0.9,0,0.9-0.3,0.9-0.8c0-1.4-0.9-2.6-2.6-2.6s-3.1,1.4-3.4,3.4H459.7z" fill="#123274"/>
		<path d="M479.4,50.2c-1.7,0-2.6,0.6-3.7,1.7l-3.1,2.9l4.9,5.4c1.1,1.4,1.4,1.4,2.9,1.4v0.6c-0.9,0-1.1,0-2.3,0    c-0.6,0-1.4,0-2,0c-0.3-0.3-0.6-0.8-0.9-1.1l-4.6-5.1H470v4.8c0,0.8,0.6,0.8,1.4,0.8h0.6v0.6c-1.1,0-2,0-3.1,0s-2,0-3.1,0v-0.9    h0.6c0.9,0,1.4,0,1.4-0.8V44.2c0-2-0.6-2-1.4-2.3v-0.6c1.1-0.3,2.3-0.8,3.1-1.1c0.3-0.3,0.6-0.3,0.6-0.3c0.3,0,0.3,0.3,0.3,0.3V55    l0.9-0.3l3.1-2.9c0.6-0.3,1.1-1.1,1.1-1.4c0-0.6-0.9-0.6-1.4-0.6V49c1.1,0,2,0,3.1,0c0.9,0,1.7,0,2.9,0v1.1L479.4,50.2L479.4,50.2    L479.4,50.2z" fill="#123274"/>
		<path d="M484,54.2c0,0.3,0,0.6,0,1.7c0.3,2.9,2,5.1,4.3,5.1c1.7,0,2.9-0.8,4-2l0.3,0.3c-1.4,1.7-3.1,3.4-5.4,3.4    c-4.6,0-5.7-4.6-5.7-6.3c0-5.7,4-7.4,6-7.4c2.3,0,4.9,1.4,4.9,4.6c0,0.3,0,0.3,0,0.6l-0.3,0.3h-8V54.2z M489.1,53.3    c0.9,0,0.9-0.3,0.9-0.8c0-1.4-0.9-2.6-2.6-2.6s-3.1,1.4-3.4,3.4C484,53.3,489.1,53.3,489.1,53.3z" fill="#123274"/>
		<path d="M497.4,52.7c0-1.1-0.3-1.4-1.7-2v-0.6c1.1-0.3,2.6-0.8,4-1.4c0,0,0.3,0,0.3,0.3v2c1.7-1.1,3.1-2.3,5.1-2.3    c2.6,0,3.4,1.7,3.4,4v7.4c0,0.8,0.6,0.8,1.4,0.8h0.6v1.1c-1.1,0-2,0-3.1,0s-2,0-3.1,0v-0.9h0.6c0.9,0,1.4,0,1.4-0.8v-7.7    c0-1.7-1.1-2.6-2.6-2.6c-0.9,0-2.6,0.8-3.4,1.4v8.6c0,0.8,0.6,0.8,1.4,0.8h0.6v1.1c-1.1,0-2,0-3.1,0s-2,0-3.1,0v-0.9h0.6    c0.9,0,1.4,0,1.4-0.8v-7.7H497.4z" fill="#123274"/>
		<path d="M525.7,50.2c-1.7,0-2.6,0.6-3.7,1.7l-3.1,2.9l4.8,5.4c1.1,1.4,1.4,1.4,2.9,1.4v0.6c-0.8,0-1.1,0-2.3,0    c-0.6,0-1.4,0-2,0c-0.3-0.3-0.6-0.8-0.8-1.1l-4.6-5.1h-0.6v4.8c0,0.8,0.6,0.8,1.4,0.8h0.6v0.6c-1.1,0-2,0-3.1,0s-2,0-3.1,0v-0.9    h0.6c0.8,0,1.4,0,1.4-0.8V44.2c0-2-0.6-2-1.4-2.3v-0.6c1.1-0.3,2.3-0.8,3.1-1.1c0.3-0.3,0.6-0.3,0.6-0.3c0.3,0,0.3,0.3,0.3,0.3V55    l0.8-0.3l3.1-2.9c0.6-0.3,1.1-1.1,1.1-1.4c0-0.6-0.8-0.6-1.4-0.6V49c1.1,0,2,0,3.1,0c0.8,0,1.7,0,2.9,0v1.1L525.7,50.2L525.7,50.2    L525.7,50.2z" fill="#123274"/>
		<path d="M539.9,61c-0.8,0.8-1.7,1.7-2.9,1.7s-1.7-1.1-1.7-2.3c-1.4,1.1-2.6,2.3-4.6,2.3s-3.1-1.4-3.1-2.9    c0-2.3,1.4-2.9,7.7-4.8v-2c0-1.7-0.8-2.6-2.9-2.6c-1.4,0-2.3,0.8-2.3,2c0,0.8-0.8,1.1-1.7,1.1c-0.6,0-0.6-0.3-0.6-0.6    c0-1.4,1.4-2.3,3.4-3.4c1.1-0.6,1.4-0.8,2.6-0.8c1.4,0,3.7,0.8,3.7,2.6v8c0,1.1,0.3,1.7,1.1,1.7c0.3,0,0.8-0.3,1.1-0.6L539.9,61z     M535.3,55.6c-1.4,0.6-5.4,1.1-5.4,3.4c0,1.1,0.8,2,2,2c1.4,0,2.3-0.8,3.1-1.7v-3.7L535.3,55.6L535.3,55.6L535.3,55.6z" fill="#123274"/>
		<path d="M543.3,52.5c0-1.4-0.6-1.4-1.4-2v-0.6c1.4-0.3,2.9-0.8,3.1-1.1c0.3,0,0.3-0.3,0.6-0.3    c0.3,0,0.3,0.3,0.3,0.3v1.7c1.7-1.1,2.9-2.3,5.1-2.3c1.4,0,2.6,0.8,3.1,2.3c1.7-1.1,2.9-2.3,5.1-2.3c2.6,0,3.4,2,3.4,4v7.4    c0,0.8,0.6,0.8,1.4,0.8h0.6v1.7c-0.8,0-2,0-3.1,0s-2,0-3.1,0v-0.9h0.6c0.8,0,1.4,0,1.4-0.8v-6.6c0-1.7-0.3-3.7-2.6-3.7    c-1.1,0-2.9,0.8-3.4,1.4v8.6c0,0.8,0.6,0.8,1.4,0.8h0.6v1.1c-1.1,0-2,0-3.1,0s-2,0-3.1,0v-0.9h0.6c0.8,0,1.4,0,1.4-0.8v-6.6    c0-1.7-0.3-3.7-2.6-3.7c-1.1,0-2.9,0.8-3.4,1.4v8.6c0,0.8,0.6,0.8,1.4,0.8h0.6v1.1c-1.1,0-2,0-3.1,0s-2,0-3.1,0v-0.9h0.6    c0.8,0,1.4,0,1.4-0.8v-8C544,52.5,543.3,52.5,543.3,52.5z" fill="#123274"/>
		<path d="M568.5,54.2c0,0.3,0,0.6,0,1.7c0.3,2.9,2,5.1,4.3,5.1c1.7,0,2.9-0.8,4-2l0.3,0.3c-1.4,1.7-3.1,3.4-5.4,3.4    c-4.6,0-5.7-4.6-5.7-6.3c0-5.7,4-7.4,6-7.4c2.3,0,4.8,1.4,4.8,4.6c0,0.3,0,0.3,0,0.6l-0.3,0.3h-8L568.5,54.2L568.5,54.2z     M573.6,53.3c0.8,0,0.8-0.3,0.8-0.8c0-1.4-0.8-2.6-2.6-2.6s-3.1,1.4-3.4,3.4H573.6z" fill="#123274"/>
		<path d="M578.4,61.3h0.8c0.8,0,1.4,0,1.4-0.8v-8.3c0-0.8-1.1-1.1-1.4-1.4v-0.6c2-0.8,3.4-1.7,3.7-1.7    s0.3,0,0.3,0.3v2.6l0,0c0.8-1.1,2-3.1,3.7-3.1c0.8,0,1.7,0.6,1.7,1.4s-0.6,1.4-1.4,1.4s-0.8-0.6-2-0.6c-0.6,0-2,0.6-2,2.6v6.8    c0,0.8,0.6,0.8,1.4,0.8h1.7v1.4c-1.7,0-2.9,0-4,0s-2.6,0-3.4,0v-0.8H578.4z" fill="#123274"/>
		<path d="M310.5,41c0.3,0,0.3,0,0.6-0.3h0.3l3.4,18.8c0.3,1.1,0.9,2,2,1.7l-0.3,0.8c-1.1,0-2.6,0-3.7,0s-2,0-3.1,0    l0.3-0.8c0.9,0,2.3,0,2-1.1l-0.9-5.7h-6.8l-2.3,4.8c-0.3,0.6-0.3,0.8-0.3,1.1c0,0.8,0.9,0.8,1.1,0.8h0.9l-0.3,0.8    c-1.1,0-2.3,0-3.4,0c-0.9,0-1.7,0-2.6,0l0.3-0.8c1.4,0,2-0.8,2.6-2L310.5,41z M304.8,53.3h6.3l-1.4-8.8l0,0L304.8,53.3z" fill="#123274"/>
	</g>
</g>
</svg>