<?xml version="1.0" encoding="UTF-8" standalone="no"?>
<svg
   xmlns:dc="http://purl.org/dc/elements/1.1/"
   xmlns:cc="http://creativecommons.org/ns#"
   xmlns:rdf="http://www.w3.org/1999/02/22-rdf-syntax-ns#"
   xmlns:svg="http://www.w3.org/2000/svg"
   xmlns="http://www.w3.org/2000/svg"
   xmlns:sodipodi="http://sodipodi.sourceforge.net/DTD/sodipodi-0.dtd"
   xmlns:inkscape="http://www.inkscape.org/namespaces/inkscape"
   id="Layer_1"
   data-name="Layer 1"
   viewBox="0 0 1091.181 157.16844"
   version="1.1"
   sodipodi:docname="logo-open-state.svg"
   inkscape:version="0.92.3 (2405546, 2018-03-11)"
   width="1091.181"
   height="157.16844">
  <metadata
     id="metadata21">
    <rdf:RDF>
      <cc:Work
         rdf:about="">
        <dc:format>image/svg+xml</dc:format>
        <dc:type
           rdf:resource="http://purl.org/dc/dcmitype/StillImage" />
        <dc:title></dc:title>
      </cc:Work>
    </rdf:RDF>
  </metadata>
  <sodipodi:namedview
     pagecolor="#ffffff"
     bordercolor="#666666"
     borderopacity="1"
     objecttolerance="10"
     gridtolerance="10"
     guidetolerance="10"
     inkscape:pageopacity="0"
     inkscape:pageshadow="2"
     inkscape:window-width="1920"
     inkscape:window-height="1056"
     id="namedview19"
     showgrid="false"
     inkscape:pagecheckerboard="true"
     inkscape:zoom="0.53868567"
     inkscape:cx="829.05027"
     inkscape:cy="252.47113"
     inkscape:window-x="0"
     inkscape:window-y="24"
     inkscape:window-maximized="1"
     inkscape:current-layer="Layer_1"
     fit-margin-top="0"
     fit-margin-left="0"
     fit-margin-right="0"
     fit-margin-bottom="0" />
  <defs
     id="defs4">
    <style
       id="style2">.cls-2{fill:#035c6e}.cls-3{fill:#91d6e6}</style>
  </defs>
  <path
     class="cls-2"
     d="M 252.15391,44.962887 157.03395,140.08284 A 67.370253,67.370253 0 0 0 252.15391,44.962887"
     id="path8"
     style="fill:#ffffff;stroke-width:2.55287051"
     inkscape:connector-curvature="0" />
  <path
     class="cls-3"
     d="M 269.41131,17.085542 174.29136,112.2055 a 67.370253,67.370253 0 0 1 95.11995,-95.119958"
     id="path10"
     style="fill:#ffffff;stroke-width:2.55287051"
     inkscape:connector-curvature="0" />
  <path
     class="cls-2"
     d="M 117.51552,44.962887 22.395557,140.08284 A 67.370253,67.370253 0 0 0 117.51552,44.962887"
     id="path12"
     style="fill:#ffffff;stroke-width:2.55287051"
     inkscape:connector-curvature="0" />
  <path
     class="cls-3"
     d="M 112.20555,39.652916 17.085587,134.77287 A 67.370253,67.370253 0 0 1 112.20555,39.652916"
     id="path14"
     style="fill:#ffffff;stroke-width:2.55287051"
     inkscape:connector-curvature="0" />
  <path
     class="cls-2"
     d="m 324.68096,145.21411 a 12.126135,12.126135 0 0 1 -10.03278,-4.44199 21.112239,21.112239 0 0 1 -3.57402,-13.32599 21.010125,21.010125 0 0 1 3.57402,-13.32598 13.504685,13.504685 0 0 1 20.06556,0 21.010125,21.010125 0 0 1 3.54849,13.32598 21.112239,21.112239 0 0 1 -3.54849,13.32599 12.202721,12.202721 0 0 1 -10.03278,4.44199 z m 0,-1.60831 a 10.517827,10.517827 0 0 0 8.50106,-3.75272 16.797888,16.797888 0 0 0 3.01238,-10.92628 v -2.96133 a 16.823417,16.823417 0 0 0 -3.1145,-10.95182 11.564503,11.564503 0 0 0 -17.00211,0 16.670245,16.670245 0 0 0 -3.14003,10.95182 v 2.96133 a 16.644716,16.644716 0 0 0 3.14003,10.92628 10.466769,10.466769 0 0 0 8.60317,3.75272 z m 21.72493,-23.99698 h 1.73595 v 3.88036 h 0.12764 a 7.6586116,7.6586116 0 0 1 2.80816,-3.14003 9.0116333,9.0116333 0 0 1 5.10574,-1.32749 9.3179778,9.3179778 0 0 1 7.65861,3.31873 14.98535,14.98535 0 0 1 2.73157,9.7775 14.98535,14.98535 0 0 1 -2.73157,9.77749 9.3179778,9.3179778 0 0 1 -7.65861,3.31873 9.0116333,9.0116333 0 0 1 -5.10574,-1.32749 8.0670709,8.0670709 0 0 1 -2.80816,-3.1145 h -0.12764 v 13.70891 h -1.73595 z m 9.54773,24.07357 a 7.9904847,7.9904847 0 0 0 6.48429,-2.70604 11.079458,11.079458 0 0 0 2.29758,-7.40333 v -2.85921 a 11.156044,11.156044 0 0 0 -2.29758,-7.42886 7.9394273,7.9394273 0 0 0 -6.48429,-2.7571 9.6243215,9.6243215 0 0 0 -2.98685,0.48505 8.2457718,8.2457718 0 0 0 -2.55288,1.27643 6.229004,6.229004 0 0 0 -1.68489,1.96571 5.105741,5.105741 0 0 0 -0.63821,2.55288 v 10.56888 a 5.105741,5.105741 0 0 0 0.63821,2.55287 6.407705,6.407705 0 0 0 1.68489,2.01677 7.2501522,7.2501522 0 0 0 2.55288,1.27643 9.598793,9.598793 0 0 0 2.88474,0.45952 z m 27.11149,1.53172 a 9.7774938,9.7774938 0 0 1 -7.86284,-3.34426 14.576891,14.576891 0 0 1 -2.88475,-9.75196 14.883235,14.883235 0 0 1 2.80816,-9.72644 9.4966787,9.4966787 0 0 1 7.65861,-3.36979 9.8030232,9.8030232 0 0 1 4.21224,0.86798 9.2413913,9.2413913 0 0 1 3.24214,2.55287 11.028401,11.028401 0 0 1 2.09336,3.90589 16.134142,16.134142 0 0 1 0.74033,5.10574 v 0.79139 h -19.01888 v 1.32749 a 13.479156,13.479156 0 0 0 0.61268,4.18671 8.5521164,8.5521164 0 0 0 1.73596,3.19109 7.8117838,7.8117838 0 0 0 2.80815,2.06782 9.6753795,9.6753795 0 0 0 3.77825,0.68928 8.2202431,8.2202431 0 0 0 8.22025,-5.6929 l 1.32748,0.74033 a 10.211482,10.211482 0 0 1 -3.54849,4.72281 9.8796089,9.8796089 0 0 1 -5.92265,1.73595 z m -0.20423,-24.68626 a 9.2413913,9.2413913 0 0 0 -3.67614,0.71481 7.6586116,7.6586116 0 0 0 -2.73157,2.06782 8.8839896,8.8839896 0 0 0 -1.71042,3.19109 13.274927,13.274927 0 0 0 -0.61269,4.13565 v 0.20423 h 17.15529 v -0.30634 a 12.994111,12.994111 0 0 0 -0.61269,-4.11013 9.3435064,9.3435064 0 0 0 -1.73595,-3.14003 7.6586116,7.6586116 0 0 0 -2.55287,-2.04229 8.2713005,8.2713005 0 0 0 -3.52296,-0.71481 z m 17.4361,24.0991 v -25.01813 h 1.73596 v 3.82931 h 0.15317 a 7.0969801,7.0969801 0 0 1 2.55287,-3.11451 8.7308173,8.7308173 0 0 1 5.10574,-1.30196 8.0670709,8.0670709 0 0 1 6.33112,2.55287 10.390183,10.390183 0 0 1 2.19547,7.12251 v 16.05756 h -1.73596 v -15.87886 a 9.1137476,9.1137476 0 0 0 -1.83806,-6.33112 6.9948653,6.9948653 0 0 0 -5.36103,-2.01677 10.211482,10.211482 0 0 0 -2.78263,0.40846 7.3777958,7.3777958 0 0 0 -2.37416,1.17432 6.152418,6.152418 0 0 0 -1.65937,1.96571 5.9226597,5.9226597 0 0 0 -0.6127,2.7571 v 17.8701 z m 55.88234,-3.85483 a 8.0670709,8.0670709 0 0 1 -2.80816,3.1145 8.9605753,8.9605753 0 0 1 -5.10574,1.32749 9.3435064,9.3435064 0 0 1 -7.65861,-3.31873 15.138522,15.138522 0 0 1 -2.73157,-9.77749 15.138522,15.138522 0 0 1 2.73157,-9.7775 9.3435064,9.3435064 0 0 1 7.65861,-3.31873 8.9605753,8.9605753 0 0 1 5.10574,1.32749 7.6586116,7.6586116 0 0 1 2.80816,3.14003 v -15.31722 h 1.71043 v 36.45499 h -1.71043 z m -7.65861,2.91027 a 9.8796089,9.8796089 0 0 0 3.01239,-0.43399 7.3522671,7.3522671 0 0 0 2.55287,-1.27643 6.4842911,6.4842911 0 0 0 1.71042,-2.01677 5.4376142,5.4376142 0 0 0 0.63822,-2.55287 v -10.59441 a 5.4886716,5.4886716 0 0 0 -0.63822,-2.55288 6.3055902,6.3055902 0 0 0 -1.71042,-1.96571 8.398944,8.398944 0 0 0 -2.55287,-1.27643 9.9306661,9.9306661 0 0 0 -3.01239,-0.48505 7.9394273,7.9394273 0 0 0 -6.48429,2.7571 11.156044,11.156044 0 0 0 -2.29759,7.42886 v 2.85921 a 11.079458,11.079458 0 0 0 2.29759,7.40333 7.9904847,7.9904847 0 0 0 6.48429,2.70604 z m 34.89773,0.94456 a 1.9146529,1.9146529 0 0 1 -2.11888,-2.06782 v -1.81254 h -0.20422 a 7.4543819,7.4543819 0 0 1 -2.80816,3.19109 9.0116333,9.0116333 0 0 1 -5.10574,1.27643 8.8329324,8.8329324 0 0 1 -6.02478,-1.86359 6.7140494,6.7140494 0 0 1 -2.11888,-5.28445 8.2457718,8.2457718 0 0 1 0.51057,-2.9358 5.105741,5.105741 0 0 1 1.63385,-2.29758 8.3223579,8.3223579 0 0 1 3.01238,-1.48067 17.691393,17.691393 0 0 1 4.54411,-0.51057 h 6.56087 v -3.34426 a 6.0758318,6.0758318 0 0 0 -6.84168,-6.96934 7.3267384,7.3267384 0 0 0 -7.30122,4.442 l -1.22538,-0.84245 a 8.7052887,8.7052887 0 0 1 3.06345,-3.70166 9.369035,9.369035 0 0 1 5.5142,-1.40408 8.7052887,8.7052887 0 0 1 6.35665,2.14441 8.2968292,8.2968292 0 0 1 2.16994,6.12689 v 15.80227 h 3.77824 v 1.53172 z m -10.21147,-0.94456 a 11.028401,11.028401 0 0 0 3.08897,-0.40846 8.7308173,8.7308173 0 0 0 2.55287,-1.19985 6.0247744,6.0247744 0 0 0 1.71042,-1.96571 5.6418438,5.6418438 0 0 0 0.63822,-2.7571 v -5.10574 h -6.56087 a 10.032781,10.032781 0 0 0 -5.99925,1.40408 4.3909373,4.3909373 0 0 0 -1.86359,3.72719 v 1.37855 a 4.1867076,4.1867076 0 0 0 1.787,3.70166 7.9138986,7.9138986 0 0 0 4.69729,1.22538 z m 22.18445,0.94456 a 1.8635955,1.8635955 0 0 1 -2.11889,-2.06782 v -21.46964 h -4.54411 v -1.53173 h 3.19109 a 1.3274927,1.3274927 0 0 0 1.09773,-0.3574 1.9146529,1.9146529 0 0 0 0.28082,-1.17432 v -5.5142 h 1.63384 v 7.09698 h 5.84607 v 1.48067 h -5.84607 v 21.95468 h 5.46313 v 1.53172 z m 28.56661,0 a 1.9146529,1.9146529 0 0 1 -2.11888,-2.06782 v -1.81254 h -0.1787 a 7.6586116,7.6586116 0 0 1 -2.80816,3.19109 9.1648055,9.1648055 0 0 1 -5.10574,1.27643 8.7052887,8.7052887 0 0 1 -5.99925,-1.86359 6.6374634,6.6374634 0 0 1 -2.11888,-5.28445 8.2457718,8.2457718 0 0 1 0.48505,-2.9358 5.105741,5.105741 0 0 1 1.65937,-2.29758 8.1691857,8.1691857 0 0 1 2.98685,-1.48067 17.870093,17.870093 0 0 1 4.56964,-0.51057 h 6.56087 v -3.34426 a 6.1013606,6.1013606 0 0 0 -6.99486,-6.96934 7.3012097,7.3012097 0 0 0 -7.27568,4.442 l -1.25091,-0.84245 a 8.7052887,8.7052887 0 0 1 3.06345,-3.70166 9.4966787,9.4966787 0 0 1 5.5142,-1.40408 8.7052887,8.7052887 0 0 1 6.35665,2.14441 8.1947144,8.1947144 0 0 1 2.16994,6.12689 v 15.80227 h 3.85484 v 1.53172 z m -10.21148,-0.94456 a 10.951815,10.951815 0 0 0 3.06344,-0.40846 8.4244727,8.4244727 0 0 0 2.55288,-1.19985 5.7439587,5.7439587 0 0 0 1.71042,-1.96571 5.6418438,5.6418438 0 0 0 0.66374,-2.7571 v -5.10574 h -6.56087 a 10.211482,10.211482 0 0 0 -6.02477,1.40408 4.3909373,4.3909373 0 0 0 -1.8636,3.72719 v 1.37855 a 4.1867076,4.1867076 0 0 0 1.78701,3.70166 7.9649561,7.9649561 0 0 0 4.74833,1.22538 z m 27.90288,-24.07357 h 1.83806 l 8.37342,23.15454 h 0.15317 l 8.37341,-23.15454 h 1.71043 l -9.21586,25.01813 h -2.01677 z m 34.51481,25.60529 a 9.598793,9.598793 0 0 1 -7.65862,-3.34426 14.704534,14.704534 0 0 1 -2.83368,-9.75196 14.704534,14.704534 0 0 1 2.83368,-9.7775 10.722056,10.722056 0 0 1 15.52146,0 14.704534,14.704534 0 0 1 2.83368,9.7775 14.704534,14.704534 0 0 1 -2.83368,9.75196 9.5732644,9.5732644 0 0 1 -7.86284,3.34426 z m 0,-1.53172 a 7.8373125,7.8373125 0 0 0 6.45875,-2.73157 11.411331,11.411331 0 0 0 2.27207,-7.50544 v -2.55287 a 11.385802,11.385802 0 0 0 -2.27207,-7.65861 9.0116333,9.0116333 0 0 0 -12.91752,0 11.385802,11.385802 0 0 0 -2.24652,7.65861 v 2.55287 a 11.411331,11.411331 0 0 0 2.24652,7.50544 7.9138986,7.9138986 0 0 0 6.45877,2.73157 z m 26.93278,1.53172 a 9.5732644,9.5732644 0 0 1 -7.65861,-3.34426 14.704534,14.704534 0 0 1 -2.83369,-9.75196 14.704534,14.704534 0 0 1 2.83369,-9.7775 10.722056,10.722056 0 0 1 15.52145,0 14.704534,14.704534 0 0 1 2.83369,9.7775 14.704534,14.704534 0 0 1 -2.83369,9.75196 9.5732644,9.5732644 0 0 1 -7.86284,3.34426 z m 0,-1.53172 a 7.8883699,7.8883699 0 0 0 6.45876,-2.73157 11.411331,11.411331 0 0 0 2.27206,-7.50544 v -2.55287 a 11.385802,11.385802 0 0 0 -2.27206,-7.65861 9.0116333,9.0116333 0 0 0 -12.91752,0 11.385802,11.385802 0 0 0 -2.27206,7.65861 v 2.55287 a 11.411331,11.411331 0 0 0 2.27206,7.50544 7.8883699,7.8883699 0 0 0 6.45876,2.73157 z m 17.89562,0.94456 v -25.01813 h 1.71042 v 4.39094 h 0.20424 a 7.6586116,7.6586116 0 0 1 2.55286,-3.08898 8.5521164,8.5521164 0 0 1 5.10574,-1.30196 h 1.8636 v 1.60831 h -2.16994 a 10.824171,10.824171 0 0 0 -2.91027,0.40846 7.2501522,7.2501522 0 0 0 -2.3997,1.17432 6.0503031,6.0503031 0 0 0 -1.65937,1.94018 5.7950161,5.7950161 0 0 0 -0.61268,2.70604 v 17.18082 z m 45.51768,-3.85483 h -0.15317 a 8.0670709,8.0670709 0 0 1 -2.80816,3.1145 8.9095181,8.9095181 0 0 1 -5.10574,1.32749 9.3945635,9.3945635 0 0 1 -7.65861,-3.31873 15.138522,15.138522 0 0 1 -2.73157,-9.77749 15.138522,15.138522 0 0 1 2.73157,-9.7775 9.3945635,9.3945635 0 0 1 7.65861,-3.31873 8.9095181,8.9095181 0 0 1 5.10574,1.32749 7.6586116,7.6586116 0 0 1 2.80816,3.14003 h 0.15317 v -15.31722 h 1.71042 v 36.45499 h -1.71042 z m -7.83731,2.91027 a 9.8796089,9.8796089 0 0 0 3.01238,-0.43399 7.3522671,7.3522671 0 0 0 2.55288,-1.27643 6.4842911,6.4842911 0 0 0 1.71042,-2.01677 5.4376142,5.4376142 0 0 0 0.63822,-2.55287 v -10.59441 a 5.4886716,5.4886716 0 0 0 -0.63822,-2.55288 6.3055902,6.3055902 0 0 0 -1.71042,-1.96571 8.398944,8.398944 0 0 0 -2.55288,-1.27643 9.9306661,9.9306661 0 0 0 -3.01238,-0.48505 7.9904847,7.9904847 0 0 0 -6.48429,2.7571 11.156044,11.156044 0 0 0 -2.29759,7.42886 v 2.85921 a 11.079458,11.079458 0 0 0 2.29759,7.40333 8.0160135,8.0160135 0 0 0 6.48429,2.70604 z m 19.2997,-31.80877 a 1.4551362,1.4551362 0 0 1 -1.12326,-0.38293 1.2253779,1.2253779 0 0 1 -0.33187,-0.8935 v -0.45952 a 1.4296075,1.4296075 0 0 1 0.30634,-0.91903 1.4806649,1.4806649 0 0 1 1.12326,-0.3574 1.557251,1.557251 0 0 1 1.12326,0.3574 1.3274927,1.3274927 0 0 1 0.33187,0.91903 v 0.45952 a 1.3019639,1.3019639 0 0 1 -0.30633,0.8935 1.3785501,1.3785501 0 0 1 -1.12327,0.38293 z m -0.86798,7.65861 h 1.71043 v 25.01814 h -1.71043 z m 30.58339,28.20922 a 5.973717,5.973717 0 0 1 -3.06344,5.56526 18.125381,18.125381 0 0 1 -8.85846,1.76148 14.653476,14.653476 0 0 1 -8.11813,-1.71042 5.3610281,5.3610281 0 0 1 -2.55287,-4.64623 5.105741,5.105741 0 0 1 1.2509,-3.59954 7.2501522,7.2501522 0 0 1 3.44638,-2.09336 v -0.20423 a 3.3187317,3.3187317 0 0 1 -2.55287,-3.39531 3.4463752,3.4463752 0 0 1 1.25091,-2.7571 8.2968292,8.2968292 0 0 1 2.98686,-1.53173 v -0.15317 a 7.8628412,7.8628412 0 0 1 -3.36979,-2.85921 8.3734153,8.3734153 0 0 1 -1.19986,-4.67176 9.2413913,9.2413913 0 0 1 0.6127,-3.4719 7.6586116,7.6586116 0 0 1 1.73595,-2.55287 7.6586116,7.6586116 0 0 1 2.75709,-1.6849 10.211482,10.211482 0 0 1 3.65062,-0.58716 8.9095181,8.9095181 0 0 1 5.3355,1.48067 v -2.09336 c 0,-1.19984 0.56163,-1.81253 1.71042,-1.81253 h 4.77387 v 1.53172 h -5.30998 v 3.14003 a 7.9649561,7.9649561 0 0 1 1.73596,2.55287 8.6797601,8.6797601 0 0 1 0.63821,3.42085 8.7818744,8.7818744 0 0 1 -0.66375,3.42084 7.6586116,7.6586116 0 0 1 -1.787,2.55287 7.9138986,7.9138986 0 0 1 -2.78263,1.73596 10.032781,10.032781 0 0 1 -3.59955,0.61268 11.64109,11.64109 0 0 1 -1.37855,0 l -1.32749,-0.25528 a 8.4244727,8.4244727 0 0 0 -3.11451,1.42961 2.7571002,2.7571002 0 0 0 -1.0722,2.22099 2.2720547,2.2720547 0 0 0 0.8935,1.78701 5.105741,5.105741 0 0 0 3.29321,0.76586 h 6.35664 a 9.9817241,9.9817241 0 0 1 6.33113,1.60831 5.3865568,5.3865568 0 0 1 1.99123,4.49305 z m -1.71042,0 a 4.0335354,4.0335354 0 0 0 -1.45514,-3.31873 8.5010584,8.5010584 0 0 0 -5.10574,-1.17432 h -7.83731 a 7.1735662,7.1735662 0 0 0 -3.34426,1.81254 4.4930521,4.4930521 0 0 0 -1.27643,3.36979 4.3143512,4.3143512 0 0 0 1.9657,3.62507 9.5732644,9.5732644 0 0 0 5.56526,1.40408 h 2.70605 a 17.180819,17.180819 0 0 0 3.59954,-0.3574 10.05831,10.05831 0 0 0 2.80816,-1.02115 5.3610281,5.3610281 0 0 0 1.83807,-1.78701 5.105741,5.105741 0 0 0 0.5361,-2.45075 z m -10.21148,-13.50468 a 7.2246236,7.2246236 0 0 0 5.10574,-1.6849 5.6163152,5.6163152 0 0 0 1.81253,-4.33988 v -1.76148 a 5.6673726,5.6673726 0 0 0 -1.81253,-4.33988 8.5521164,8.5521164 0 0 0 -10.21148,0 5.6418438,5.6418438 0 0 0 -1.78701,4.33988 v 1.76148 a 5.6163152,5.6163152 0 0 0 1.81254,4.33988 7.2246236,7.2246236 0 0 0 5.08021,1.78701 z m 18.5849,-22.36315 a 1.4806649,1.4806649 0 0 1 -1.14879,-0.38293 1.2253779,1.2253779 0 0 1 -0.33188,-0.8935 v -0.45952 a 1.4296075,1.4296075 0 0 1 0.30634,-0.91903 1.5061936,1.5061936 0 0 1 1.12327,-0.3574 1.557251,1.557251 0 0 1 1.12326,0.3574 1.3274927,1.3274927 0 0 1 0.3574,0.91903 v 0.45952 a 1.2253779,1.2253779 0 0 1 -0.33187,0.8935 1.3530214,1.3530214 0 0 1 -1.09773,0.38293 z m -0.89351,7.65861 h 1.73595 v 25.01814 h -1.73595 z m 14.47478,25.09472 a 1.8635955,1.8635955 0 0 1 -2.11888,-2.06782 v -21.46964 h -4.51858 v -1.53173 h 3.24214 a 1.4040788,1.4040788 0 0 0 1.12327,-0.3574 1.9401816,1.9401816 0 0 0 0.25528,-1.17432 v -5.5142 h 1.63384 v 7.09698 h 5.8716 v 1.48067 h -5.8716 v 21.95468 h 5.46314 v 1.53172 z m 28.59214,0 a 1.8891242,1.8891242 0 0 1 -2.11888,-2.06782 v -1.81254 h -0.20422 a 7.6586116,7.6586116 0 0 1 -2.80816,3.19109 9.1137476,9.1137476 0 0 1 -5.10574,1.27643 8.7563459,8.7563459 0 0 1 -5.99925,-1.86359 6.7140494,6.7140494 0 0 1 -2.11889,-5.28445 8.2457718,8.2457718 0 0 1 0.48505,-2.9358 5.4376142,5.4376142 0 0 1 1.65937,-2.29758 8.1181283,8.1181283 0 0 1 3.01239,-1.48067 17.563749,17.563749 0 0 1 4.5441,-0.51057 h 6.56088 v -3.34426 a 6.1013606,6.1013606 0 0 0 -6.84169,-6.96934 7.3267384,7.3267384 0 0 0 -7.30121,4.442 l -1.22538,-0.84245 a 8.8329324,8.8329324 0 0 1 3.03792,-3.70166 9.5222072,9.5222072 0 0 1 5.53972,-1.40408 8.6031736,8.6031736 0 0 1 6.33113,2.14441 8.1947144,8.1947144 0 0 1 2.16994,6.12689 v 15.80227 h 3.8293 v 1.53172 z m -10.21148,-0.94456 a 11.028401,11.028401 0 0 0 3.08898,-0.40846 8.2713005,8.2713005 0 0 0 2.55287,-1.19985 5.8205448,5.8205448 0 0 0 1.73595,-1.96571 5.6418438,5.6418438 0 0 0 0.63822,-2.7571 v -5.10574 h -6.56088 a 10.032781,10.032781 0 0 0 -5.99924,1.40408 4.416466,4.416466 0 0 0 -1.88913,3.72719 v 1.37855 a 4.2122364,4.2122364 0 0 0 1.81254,3.70166 7.9138986,7.9138986 0 0 0 4.67175,1.22538 z m 21.67387,0.94456 a 1.8635955,1.8635955 0 0 1 -2.11888,-2.06782 v -34.38717 h 1.76149 v 34.92327 h 4.08458 v 1.53172 z m 18.15092,0.58716 a 9.7774938,9.7774938 0 0 1 -7.86285,-3.34426 14.576891,14.576891 0 0 1 -2.98686,-9.75196 14.883235,14.883235 0 0 1 2.80816,-9.72644 9.4966787,9.4966787 0 0 1 7.65861,-3.36979 9.9561947,9.9561947 0 0 1 4.21224,0.86798 9.2413913,9.2413913 0 0 1 3.24215,2.55287 11.028401,11.028401 0 0 1 2.09335,3.90589 16.134142,16.134142 0 0 1 0.74033,5.10574 v 0.79139 h -19.01888 v 1.32749 a 13.479156,13.479156 0 0 0 0.61268,4.18671 8.5521164,8.5521164 0 0 0 1.73596,3.19109 7.8117838,7.8117838 0 0 0 2.80816,2.06782 9.6753795,9.6753795 0 0 0 3.77824,0.68928 8.2202431,8.2202431 0 0 0 8.22025,-5.6929 l 1.32749,0.74033 a 10.211482,10.211482 0 0 1 -3.54849,4.72281 9.8796089,9.8796089 0 0 1 -5.82054,1.73595 z m -0.20424,-24.68626 a 9.2413913,9.2413913 0 0 0 -3.67613,0.71481 7.6586116,7.6586116 0 0 0 -2.73157,2.06782 8.5265879,8.5265879 0 0 0 -1.71042,3.19109 13.274927,13.274927 0 0 0 -0.61269,4.13565 v 0.20423 h 17.15529 v -0.30634 a 12.994111,12.994111 0 0 0 -0.61269,-4.11013 9.3435064,9.3435064 0 0 0 -1.73596,-3.14003 7.6586116,7.6586116 0 0 0 -2.55286,-2.04229 8.2713005,8.2713005 0 0 0 -3.52297,-0.71481 z m 33.36602,24.0991 a 1.8380667,1.8380667 0 0 1 -2.11888,-2.06782 v -21.46964 h -4.54411 v -1.53173 h 3.24215 a 1.4040788,1.4040788 0 0 0 1.12326,-0.3574 1.9401816,1.9401816 0 0 0 0.25529,-1.17432 v -5.5142 h 1.63384 v 7.09698 h 5.87159 v 1.48067 h -5.87159 v 21.95468 h 5.46313 v 1.53172 z m 11.94744,0 v -25.01813 h 1.73595 v 4.39094 h 0.20423 a 7.6586116,7.6586116 0 0 1 2.55287,-3.08898 8.5521164,8.5521164 0 0 1 5.10574,-1.30196 h 1.8636 v 1.60831 h -2.16994 a 10.824171,10.824171 0 0 0 -2.91027,0.40846 7.2501522,7.2501522 0 0 0 -2.3997,1.17432 6.0503031,6.0503031 0 0 0 -1.65937,1.94018 5.7950161,5.7950161 0 0 0 -0.61269,2.70604 v 17.18082 z m 33.39158,0 a 1.9146529,1.9146529 0 0 1 -2.11896,-2.06782 v -1.81254 h -0.2042 a 7.6586116,7.6586116 0 0 1 -2.78264,3.31873 9.0116333,9.0116333 0 0 1 -5.10571,1.27643 8.8329324,8.8329324 0 0 1 -6.02482,-1.86359 6.7140494,6.7140494 0 0 1 -2.11888,-5.28444 8.2457718,8.2457718 0 0 1 0.51061,-2.9358 5.105741,5.105741 0 0 1 1.63383,-2.29759 8.3223579,8.3223579 0 0 1 3.01241,-1.48066 17.691393,17.691393 0 0 1 4.54406,-0.51058 h 6.56091 v -3.4719 a 6.0758318,6.0758318 0 0 0 -6.84165,-6.96934 7.3267384,7.3267384 0 0 0 -7.30129,4.442 l -1.22534,-0.84245 a 8.7052887,8.7052887 0 0 1 3.06346,-3.70166 9.369035,9.369035 0 0 1 5.51422,-1.40408 8.7052887,8.7052887 0 0 1 6.33105,2.06783 8.2968292,8.2968292 0 0 1 2.17001,6.12688 v 15.80227 h 3.82924 v 1.53173 z m -10.21151,-0.94456 a 10.951815,10.951815 0 0 0 3.06346,-0.40846 8.7308173,8.7308173 0 0 0 2.55286,-1.19985 6.0247744,6.0247744 0 0 0 1.71037,-1.96571 5.6418438,5.6418438 0 0 0 0.63828,-2.7571 v -5.10574 h -6.56091 a 10.032781,10.032781 0 0 0 -5.99926,1.40408 4.3909373,4.3909373 0 0 0 -1.86361,3.72719 v 1.37855 a 4.1867076,4.1867076 0 0 0 1.78708,3.70166 7.9649561,7.9649561 0 0 0 4.67173,1.22538 z m 19.60602,0.94456 v -25.01813 h 1.71046 v 3.82931 h 0.15315 a 7.0969801,7.0969801 0 0 1 2.55286,-3.11451 8.7818744,8.7818744 0 0 1 5.10572,-1.30196 8.0415421,8.0415421 0 0 1 6.33113,2.55287 10.390183,10.390183 0 0 1 2.19549,7.12251 v 16.05756 h -1.73594 v -15.87886 a 9.1137476,9.1137476 0 0 0 -1.83804,-6.33112 6.9182791,6.9182791 0 0 0 -5.33558,-2.01677 10.05831,10.05831 0 0 0 -2.78255,0.40846 7.2501522,7.2501522 0 0 0 -2.3997,1.17432 6.152418,6.152418 0 0 0 -1.6594,1.96571 5.9226597,5.9226597 0 0 0 -0.61271,2.7571 v 17.8701 z m 33.80002,0.58716 a 11.998491,11.998491 0 0 1 -5.41211,-1.14879 11.156044,11.156044 0 0 1 -4.00797,-3.54849 l 1.32744,-0.99562 a 10.798643,10.798643 0 0 0 3.57407,3.19109 10.05831,10.05831 0 0 0 4.56963,0.94456 7.8117838,7.8117838 0 0 0 5.10571,-1.37855 4.7993966,4.7993966 0 0 0 1.73602,-3.98248 4.6972818,4.6972818 0 0 0 -1.45519,-3.75272 9.2413913,9.2413913 0 0 0 -4.46752,-1.71042 l -2.11887,-0.3574 a 14.449247,14.449247 0 0 1 -3.01241,-0.74033 6.6374634,6.6374634 0 0 1 -2.32309,-1.30197 5.5142003,5.5142003 0 0 1 -1.48067,-1.99124 7.3522671,7.3522671 0 0 1 -0.51053,-2.85921 6.3566476,6.3566476 0 0 1 0.61263,-2.85922 5.8971309,5.8971309 0 0 1 1.73594,-2.06782 7.275681,7.275681 0 0 1 2.55294,-1.25091 11.819791,11.819791 0 0 1 3.21662,-0.40846 10.415711,10.415711 0 0 1 5.10571,1.09774 12.355893,12.355893 0 0 1 3.24211,2.55287 l -1.22534,1.14879 a 10.8497,10.8497 0 0 0 -1.19985,-1.22538 8.0160135,8.0160135 0 0 0 -1.50616,-1.07221 7.8883699,7.8883699 0 0 0 -1.94023,-0.74033 10.8497,10.8497 0 0 0 -2.55286,-0.28081 7.6586116,7.6586116 0 0 0 -4.6973,1.30196 4.3143512,4.3143512 0 0 0 -1.76151,3.72719 4.416466,4.416466 0 0 0 1.48068,3.67614 10.032781,10.032781 0 0 0 4.49309,1.65936 l 2.11887,0.33187 a 10.670999,10.670999 0 0 1 5.38655,2.14441 5.9226597,5.9226597 0 0 1 1.91466,4.7994 6.3311189,6.3311189 0 0 1 -2.27203,5.10574 9.6498509,9.6498509 0 0 1 -6.22903,1.99124 z m 15.52144,-25.60529 h 1.71046 v 3.88036 h 0.15315 a 7.6586116,7.6586116 0 0 1 2.80812,-3.14003 8.9605753,8.9605753 0 0 1 5.1058,-1.32749 9.3945635,9.3945635 0 0 1 7.65857,3.31873 15.138522,15.138522 0 0 1 2.73158,9.7775 15.138522,15.138522 0 0 1 -2.73158,9.77749 9.3945635,9.3945635 0 0 1 -7.65857,3.31873 8.9605753,8.9605753 0 0 1 -5.1058,-1.32749 8.0670709,8.0670709 0 0 1 -2.80812,-3.1145 h -0.15315 v 13.70891 h -1.71046 z m 9.54775,24.07357 a 8.0160135,8.0160135 0 0 0 6.48429,-2.70604 11.079458,11.079458 0 0 0 2.2976,-7.40333 v -2.85921 a 11.156044,11.156044 0 0 0 -2.2976,-7.42886 7.9904847,7.9904847 0 0 0 -6.48429,-2.7571 9.9306661,9.9306661 0 0 0 -3.01241,0.48505 8.398944,8.398944 0 0 0 -2.55286,1.27643 6.3055902,6.3055902 0 0 0 -1.71045,1.96571 5.4886716,5.4886716 0 0 0 -0.63819,2.55288 v 10.56888 a 5.4376142,5.4376142 0 0 0 0.63819,2.55287 6.4842911,6.4842911 0 0 0 1.71045,2.01677 7.3522671,7.3522671 0 0 0 2.55286,1.27643 9.8796089,9.8796089 0 0 0 2.96136,0.45952 z m 34.59137,0.94456 a 1.8891242,1.8891242 0 0 1 -2.11887,-2.06782 v -1.81254 h -0.20421 a 7.6586116,7.6586116 0 0 1 -2.8082,3.19109 9.1137476,9.1137476 0 0 1 -5.10571,1.27643 8.7563459,8.7563459 0 0 1 -5.99926,-1.86359 6.7140494,6.7140494 0 0 1 -2.11887,-5.28445 8.2457718,8.2457718 0 0 1 0.48504,-2.9358 5.4376142,5.4376142 0 0 1 1.6594,-2.29758 8.1181283,8.1181283 0 0 1 3.01233,-1.48067 17.563749,17.563749 0 0 1 4.54414,-0.51057 h 6.56091 v -3.34426 a 6.1013606,6.1013606 0 0 0 -6.84174,-6.96934 7.3267384,7.3267384 0 0 0 -7.30121,4.442 l -1.22533,-0.84245 a 8.8329324,8.8329324 0 0 1 3.03789,-3.70166 9.5222072,9.5222072 0 0 1 5.5397,-1.40408 8.6031736,8.6031736 0 0 1 6.33114,2.14441 8.1947144,8.1947144 0 0 1 2.16992,6.12689 v 15.80227 h 3.8549 v 1.53172 z m -10.21143,-0.94456 a 11.028401,11.028401 0 0 0 3.08895,-0.40846 8.2713005,8.2713005 0 0 0 2.55286,-1.19985 6.1013606,6.1013606 0 0 0 1.73594,-1.96571 5.6418438,5.6418438 0 0 0 0.63827,-2.7571 v -5.10574 h -6.5609 a 10.032781,10.032781 0 0 0 -5.99926,1.40408 4.416466,4.416466 0 0 0 -1.88909,3.72719 v 1.37855 a 4.2122364,4.2122364 0 0 0 1.81247,3.70166 7.9138986,7.9138986 0 0 0 4.67182,1.22538 z m 19.68256,0.94456 v -25.01813 h 1.71046 v 4.39094 h 0.20421 a 7.6586116,7.6586116 0 0 1 2.55294,-3.08898 8.5521164,8.5521164 0 0 1 5.10571,-1.30196 h 1.86362 v 1.60831 h -2.17001 a 10.824171,10.824171 0 0 0 -2.91022,0.40846 7.2501522,7.2501522 0 0 0 -2.3997,1.17432 6.0503031,6.0503031 0 0 0 -1.65941,1.94018 5.7950161,5.7950161 0 0 0 -0.61262,2.70604 v 17.18082 z m 33.18734,0 a 1.9146529,1.9146529 0 0 1 -2.1189,-2.06782 v -1.81254 h -0.2042 a 7.6586116,7.6586116 0 0 1 -2.7827,3.31873 9.0116333,9.0116333 0 0 1 -5.10565,1.27643 8.8329324,8.8329324 0 0 1 -6.02482,-1.86359 6.7140494,6.7140494 0 0 1 -2.11887,-5.28444 8.858461,8.858461 0 0 1 0.48503,-3.06345 5.4376142,5.4376142 0 0 1 1.65941,-2.29758 8.3223579,8.3223579 0 0 1 3.01241,-1.48067 17.691393,17.691393 0 0 1 4.54399,-0.51057 h 6.561 v -3.34426 a 6.0758318,6.0758318 0 0 0 -6.8418,-6.96934 7.3267384,7.3267384 0 0 0 -7.30117,4.442 l -1.22534,-0.84245 a 8.7052887,8.7052887 0 0 1 3.06347,-3.70166 9.369035,9.369035 0 0 1 5.51424,-1.40408 8.7052887,8.7052887 0 0 1 6.331,2.06783 8.2968292,8.2968292 0 0 1 2.17,6.12688 v 15.80227 h 3.8293 v 1.53173 z m -10.21145,-0.94456 a 11.028401,11.028401 0 0 0 3.08895,-0.40846 8.2713005,8.2713005 0 0 0 2.5528,-1.19985 5.8205448,5.8205448 0 0 0 1.7361,-1.96571 5.6418438,5.6418438 0 0 0 0.6381,-2.7571 v -5.10574 h -6.5609 a 10.032781,10.032781 0 0 0 -5.99919,1.40408 4.3909373,4.3909373 0 0 0 -1.86361,3.72719 v 1.37855 a 4.1867076,4.1867076 0 0 0 1.78707,3.70166 7.9138986,7.9138986 0 0 0 4.77383,1.22538 z m 19.68265,0.94456 v -25.01813 h 1.7103 v 3.82931 h 0.1533 a 7.0969801,7.0969801 0 0 1 2.5528,-3.11451 8.7818744,8.7818744 0 0 1 5.1058,-1.30196 8.0415421,8.0415421 0 0 1 6.3311,2.55287 10.390183,10.390183 0 0 1 2.1955,7.12251 v 16.05756 h -1.7105 v -15.87886 a 9.1137476,9.1137476 0 0 0 -1.8636,-6.33112 6.9182791,6.9182791 0 0 0 -5.3355,-2.01677 10.05831,10.05831 0 0 0 -2.7826,0.40846 7.2501522,7.2501522 0 0 0 -2.3997,1.17432 6.4842911,6.4842911 0 0 0 -1.6593,1.96571 5.9226597,5.9226597 0 0 0 -0.6127,2.7571 v 17.8701 z m 29.7919,0 a 1.8635955,1.8635955 0 0 1 -2.1188,-2.06782 v -21.46964 h -4.5186 v -1.53173 h 3.2421 a 1.4040788,1.4040788 0 0 0 1.1233,-0.3574 1.9401816,1.9401816 0 0 0 0.2553,-1.17432 v -5.5142 h 1.6338 v 7.09698 h 5.8716 v 1.48067 h -5.8716 v 21.95468 h 5.4632 v 1.53172 z m 12.8665,-32.75333 a 1.4296075,1.4296075 0 0 1 -1.1232,-0.38293 1.2253779,1.2253779 0 0 1 -0.3575,-0.8935 v -0.45952 a 1.3274927,1.3274927 0 0 1 0.3319,-0.91903 1.4551362,1.4551362 0 0 1 1.0978,-0.3574 1.5827798,1.5827798 0 0 1 1.1488,0.3574 1.3274927,1.3274927 0 0 1 0.3318,0.91903 v 0.45952 a 1.3019639,1.3019639 0 0 1 -0.3064,0.8935 1.4296075,1.4296075 0 0 1 -1.1232,0.38293 z m -0.8935,7.65861 h 1.736 v 25.01814 h -1.736 z m 19.7592,25.68188 a 9.8030232,9.8030232 0 0 1 -7.8628,-3.34426 14.576891,14.576891 0 0 1 -2.8592,-9.75196 14.730063,14.730063 0 0 1 2.8081,-9.72644 9.4966787,9.4966787 0 0 1 7.6587,-3.36979 9.9561947,9.9561947 0 0 1 4.2122,0.86798 9.7009081,9.7009081 0 0 1 3.2421,2.55287 11.43686,11.43686 0 0 1 2.0934,3.90589 16.900003,16.900003 0 0 1 0.7403,5.10574 v 0.79139 h -19.0188 v 1.32749 a 14.296075,14.296075 0 0 0 0.5871,4.18671 8.6031736,8.6031736 0 0 0 1.7615,3.19109 7.6586116,7.6586116 0 0 0 2.8081,2.06782 9.6498509,9.6498509 0 0 0 3.7527,0.68928 8.2457718,8.2457718 0 0 0 8.2203,-5.71843 l 1.3275,0.74033 a 10.211482,10.211482 0 0 1 -3.5485,4.72281 9.9561947,9.9561947 0 0 1 -5.9227,1.76148 z m -0.1787,-24.68626 a 9.088219,9.088219 0 0 0 -3.6761,0.71481 7.6586116,7.6586116 0 0 0 -2.7315,2.06782 8.9350467,8.9350467 0 0 0 -1.736,3.19109 14.066317,14.066317 0 0 0 -0.5872,4.13565 v 0.20423 h 17.0532 v -0.30634 a 12.279307,12.279307 0 0 0 -0.6382,-4.11013 9.2924484,9.2924484 0 0 0 -1.7104,-3.14003 7.9649561,7.9649561 0 0 0 -2.553,-2.04229 8.4500013,8.4500013 0 0 0 -3.4208,-0.71481 z M 349.72462,56.578448 a 22.439731,22.439731 0 0 1 -1.63383,8.730817 19.657103,19.657103 0 0 1 -11.53898,11.104987 25.528706,25.528706 0 0 1 -17.43611,0 20.652722,20.652722 0 0 1 -6.94381,-4.33988 20.167677,20.167677 0 0 1 -4.56963,-6.765107 22.439731,22.439731 0 0 1 -1.63384,-8.730817 22.133388,22.133388 0 0 1 1.63384,-8.705289 19.299701,19.299701 0 0 1 4.56963,-6.611934 20.754837,20.754837 0 0 1 6.94381,-4.212237 26.856198,26.856198 0 0 1 17.43611,0 20.422964,20.422964 0 0 1 6.96933,4.212237 19.299701,19.299701 0 0 1 4.56965,6.611934 22.133388,22.133388 0 0 1 1.63383,8.705289 z m -10.39019,0 a 13.98973,13.98973 0 0 0 -0.84244,-4.875983 11.615561,11.615561 0 0 0 -2.29759,-3.880363 10.951815,10.951815 0 0 0 -3.6506,-2.552871 11.156044,11.156044 0 0 0 -4.67175,-0.944562 10.951815,10.951815 0 0 0 -4.64623,0.944562 11.207101,11.207101 0 0 0 -3.6506,2.552871 10.824171,10.824171 0 0 0 -2.34864,3.880363 13.964202,13.964202 0 0 0 -0.81692,4.875983 14.449247,14.449247 0 0 0 0.84244,5.105741 11.972963,11.972963 0 0 0 2.34864,3.956949 10.798643,10.798643 0 0 0 3.62508,2.55287 11.43686,11.43686 0 0 0 12.94306,-2.55287 11.615561,11.615561 0 0 0 2.37416,-3.956949 14.449247,14.449247 0 0 0 0.79139,-5.105741 z m 49.5257,-7.530968 a 12.304836,12.304836 0 0 1 -1.30197,5.92266 10.543355,10.543355 0 0 1 -3.52296,3.880363 15.57251,15.57251 0 0 1 -5.10574,2.169939 26.115865,26.115865 0 0 1 -6.02477,0.689275 h -4.82493 V 76.84824 h -9.70091 V 36.666058 h 14.75559 a 27.749702,27.749702 0 0 1 6.15242,0.638218 14.525834,14.525834 0 0 1 5.10574,2.118882 10.211482,10.211482 0 0 1 3.34426,3.803777 12.43248,12.43248 0 0 1 1.12327,5.820545 z m -9.70091,0 a 4.2377651,4.2377651 0 0 0 -0.58716,-2.323112 3.9314206,3.9314206 0 0 0 -1.53172,-1.429608 7.1990948,7.1990948 0 0 0 -2.16994,-0.689275 20.422964,20.422964 0 0 0 -2.55288,-0.153172 h -4.26329 v 9.471149 h 4.08459 a 14.117374,14.117374 0 0 0 2.55288,-0.229758 6.8927504,6.8927504 0 0 0 2.24652,-0.79139 4.2122364,4.2122364 0 0 0 1.55725,-1.506193 4.3909373,4.3909373 0 0 0 0.66375,-2.297584 z m 16.9,27.80076 V 36.666058 H 422.992 v 8.169185 h -17.66586 v 7.658612 h 16.69577 v 7.658612 h -16.69577 v 8.347886 h 18.68701 v 8.2713 z m 62.67297,0 -16.1852,-26.269038 h -0.1787 l 0.22976,26.269038 h -9.39457 V 36.666058 h 11.07946 l 16.10862,26.21798 h 0.1787 l -0.22976,-26.21798 h 9.42009 V 76.84824 Z m 59.27765,-29.791999 a 8.9605753,8.9605753 0 0 0 -3.1145,-2.552871 9.4966787,9.4966787 0 0 0 -3.90589,-0.944562 13.070697,13.070697 0 0 0 -1.96571,0.178701 4.8759827,4.8759827 0 0 0 -1.78701,0.663746 4.671753,4.671753 0 0 0 -1.32749,1.225378 3.4208465,3.4208465 0 0 0 -0.53611,1.96571 3.2166169,3.2166169 0 0 0 0.43399,1.710424 3.7782484,3.7782484 0 0 0 1.25091,1.199849 11.487917,11.487917 0 0 0 1.94018,0.919033 l 2.55287,0.893505 c 1.37855,0.459517 2.78263,0.944562 4.26329,1.506194 a 15.700154,15.700154 0 0 1 4.03354,2.16994 11.334745,11.334745 0 0 1 3.01239,3.395317 9.7009081,9.7009081 0 0 1 1.19985,5.105741 13.22387,13.22387 0 0 1 -1.27644,5.973717 12.304836,12.304836 0 0 1 -3.44637,4.186708 14.347133,14.347133 0 0 1 -4.92704,2.425227 20.652722,20.652722 0 0 1 -5.74396,0.79139 23.231121,23.231121 0 0 1 -8.34789,-1.506193 17.614807,17.614807 0 0 1 -6.68852,-4.263295 l 6.35664,-6.484291 a 11.43686,11.43686 0 0 0 3.88037,3.037916 10.543355,10.543355 0 0 0 4.7994,1.225378 9.3945635,9.3945635 0 0 0 2.09335,-0.229758 5.3865568,5.3865568 0 0 0 1.78701,-0.740332 3.7016622,3.7016622 0 0 0 1.22538,-1.353022 4.3143512,4.3143512 0 0 0 0.45952,-2.042296 3.2166169,3.2166169 0 0 0 -0.56163,-1.940182 5.4120855,5.4120855 0 0 0 -1.63385,-1.455136 12.509065,12.509065 0 0 0 -2.55286,-1.17432 c -1.04668,-0.357403 -2.221,-0.765862 -3.54849,-1.174321 a 34.080821,34.080821 0 0 1 -3.77825,-1.480665 13.147283,13.147283 0 0 1 -3.29321,-2.16994 10.211482,10.211482 0 0 1 -2.3231,-3.242145 10.977343,10.977343 0 0 1 -0.89351,-4.620696 11.258159,11.258159 0 0 1 1.37855,-5.743959 11.743204,11.743204 0 0 1 3.57402,-3.93142 15.061936,15.061936 0 0 1 5.10574,-2.220998 22.005744,22.005744 0 0 1 5.61632,-0.714804 20.422964,20.422964 0 0 1 6.9438,1.250907 17.870093,17.870093 0 0 1 6.229,3.676134 z M 550.7887,44.962887 V 76.84824 h -9.72644 V 44.962887 h -11.33474 v -8.296829 h 32.39593 v 8.296829 z m 41.94366,31.885353 -3.1145,-7.88837 h -15.57251 l -2.98686,7.88837 h -10.56888 l 16.87447,-40.182182 h 9.4201 l 16.69577,40.182182 z m -10.77311,-29.460126 -5.10574,13.811029 h 10.21148 z m 40.97357,-2.425227 V 76.84824 h -9.70091 V 44.962887 h -11.36027 v -8.296829 h 32.42146 v 8.296829 z M 640.82844,76.84824 V 36.666058 h 27.03491 v 8.169185 h -17.66587 v 7.658612 h 16.69577 v 7.658612 h -16.69577 v 8.347886 h 18.68701 v 8.2713 z m 53.63582,-40.182182 h 25.93716 v 6.229004 h -18.78913 v 11.0284 h 17.71692 v 6.024774 H 701.61229 V 76.84824 h -7.14803 z m 32.31934,19.988976 a 22.746076,22.746076 0 0 1 1.6083,-8.730818 19.095472,19.095472 0 0 1 4.49306,-6.611934 19.733689,19.733689 0 0 1 6.66298,-4.186707 24.073569,24.073569 0 0 1 8.60318,-1.480666 24.482028,24.482028 0 0 1 8.67976,1.480666 19.963447,19.963447 0 0 1 6.86722,4.186707 18.814656,18.814656 0 0 1 4.51858,6.611934 22.746076,22.746076 0 0 1 1.60831,8.730818 22.363146,22.363146 0 0 1 -1.60831,8.603173 19.606046,19.606046 0 0 1 -4.51858,6.688521 20.422964,20.422964 0 0 1 -6.86722,4.365409 23.435352,23.435352 0 0 1 -8.67976,1.557251 22.975835,22.975835 0 0 1 -8.60318,-1.557251 20.142148,20.142148 0 0 1 -6.81616,-4.365409 19.91239,19.91239 0 0 1 -4.49304,-6.688521 22.363146,22.363146 0 0 1 -1.45514,-8.603173 z m 7.6586,0 a 16.951061,16.951061 0 0 0 0.99563,5.92266 13.504685,13.504685 0 0 0 2.85921,4.697282 13.300455,13.300455 0 0 0 4.36541,3.088973 13.734444,13.734444 0 0 0 5.59079,1.097733 13.964202,13.964202 0 0 0 5.61632,-1.097733 13.147283,13.147283 0 0 0 4.39093,-3.088973 13.504685,13.504685 0 0 0 2.85921,-4.697282 16.951061,16.951061 0 0 0 0.99563,-5.92266 16.338371,16.338371 0 0 0 -0.99563,-5.795017 14.347133,14.347133 0 0 0 -2.80816,-4.671753 13.351512,13.351512 0 0 0 -10.03278,-4.237765 13.428099,13.428099 0 0 0 -5.64184,1.123263 13.759972,13.759972 0 0 0 -4.3654,3.114502 14.347133,14.347133 0 0 0 -2.80816,4.671753 16.338371,16.338371 0 0 0 -1.02116,5.795017 z m 76.58613,5.437614 a 16.338371,16.338371 0 0 1 -1.25091,6.560877 14.857707,14.857707 0 0 1 -3.39532,4.978098 15.317224,15.317224 0 0 1 -5.10574,3.14003 19.32523,19.32523 0 0 1 -12.76436,0 15.317224,15.317224 0 0 1 -5.10574,-3.14003 14.551362,14.551362 0 0 1 -3.42084,-4.978098 17.257405,17.257405 0 0 1 -1.19985,-6.560877 V 36.563943 h 7.14803 v 25.145774 a 13.555743,13.555743 0 0 0 0.45952,3.497433 8.1181283,8.1181283 0 0 0 1.50619,3.088973 7.3522671,7.3522671 0 0 0 2.78264,2.220998 11.283688,11.283688 0 0 0 8.55211,0 7.3522671,7.3522671 0 0 0 2.78263,-2.220998 8.5010584,8.5010584 0 0 0 1.5062,-3.088973 13.555743,13.555743 0 0 0 0.45951,-3.497433 V 36.666058 h 7.04593 z m 10.82416,-25.42659 h 9.5988 l 18.66147,30.098343 h 0.12767 V 36.666058 h 7.14806 V 76.84824 H 848.3002 L 829.23029,45.805334 V 76.84824 h -7.14804 z m 46.61539,0 h 14.24505 a 30.966319,30.966319 0 0 1 7.88835,1.021148 20.856952,20.856952 0 0 1 7.22467,3.369789 17.870093,17.870093 0 0 1 5.10572,6.203475 20.422964,20.422964 0 0 1 1.9912,9.496679 19.32523,19.32523 0 0 1 -1.9912,9.088219 18.789127,18.789127 0 0 1 -5.10572,6.254532 22.312089,22.312089 0 0 1 -7.17362,3.599548 28.081575,28.081575 0 0 1 -7.88834,1.148792 h -14.29611 z m 13.12182,33.953177 a 24.379913,24.379913 0 0 0 5.56519,-0.663746 14.627948,14.627948 0 0 0 5.1058,-2.220997 11.794262,11.794262 0 0 0 3.6506,-4.212237 14.347133,14.347133 0 0 0 1.42963,-6.765106 15.317224,15.317224 0 0 0 -1.42963,-7.045923 11.462389,11.462389 0 0 0 -3.6506,-4.237765 13.555743,13.555743 0 0 0 -5.1058,-2.118883 27.443358,27.443358 0 0 0 -5.56519,-0.561631 h -5.97376 v 27.826288 z m 43.24559,-33.953177 h 6.17798 l 17.30842,40.182182 h -8.16917 l -3.75271,-9.190334 h -17.4361 l -3.62512,9.190334 h -7.99045 z m 9.0882,24.864958 -6.17789,-16.3639 -6.30565,16.3639 z m 24.99265,-18.635954 h -12.33039 v -6.229004 h 31.80874 v 6.229004 h -12.3303 V 76.84824 h -7.14805 z m 26.29452,-6.229004 h 7.07143 V 76.84824 h -7.14796 z m 16.33834,19.988976 a 22.261031,22.261031 0 0 1 1.6338,-8.730818 19.044414,19.044414 0 0 1 4.4165,-6.611934 19.733689,19.733689 0 0 1 6.8162,-4.186707 24.073569,24.073569 0 0 1 8.6031,-1.480666 24.405443,24.405443 0 0 1 8.6798,1.480666 19.708161,19.708161 0 0 1 6.8672,4.186707 18.814656,18.814656 0 0 1 4.5186,6.611934 22.261031,22.261031 0 0 1 1.6338,8.730818 21.903629,21.903629 0 0 1 -1.6338,8.603173 19.606046,19.606046 0 0 1 -4.5186,6.688521 20.11662,20.11662 0 0 1 -6.8672,4.365409 23.333237,23.333237 0 0 1 -8.6798,1.557251 22.975835,22.975835 0 0 1 -8.6031,-1.557251 20.142148,20.142148 0 0 1 -6.8162,-4.365409 19.861333,19.861333 0 0 1 -4.4675,-6.688521 21.903629,21.903629 0 0 1 -1.5828,-8.603173 z m 7.7863,0 a 16.951061,16.951061 0 0 0 0.9956,5.92266 13.836558,13.836558 0 0 0 2.8337,4.697282 13.300455,13.300455 0 0 0 4.3654,3.088973 13.734444,13.734444 0 0 0 5.5908,1.097733 14.066317,14.066317 0 0 0 5.6418,-1.097733 13.40257,13.40257 0 0 0 4.3654,-3.088973 13.836558,13.836558 0 0 0 2.8337,-4.697282 16.951061,16.951061 0 0 0 0.9957,-5.92266 16.338371,16.338371 0 0 0 -0.9957,-5.795017 14.347133,14.347133 0 0 0 -2.8082,-4.671753 13.249398,13.249398 0 0 0 -10.0327,-4.237765 13.121755,13.121755 0 0 0 -9.9817,4.237765 13.913144,13.913144 0 0 0 -2.8082,4.671753 16.338371,16.338371 0 0 0 -0.9956,5.795017 z m 44.4965,-19.988976 h 9.4967 l 18.687,30.098343 V 36.666058 h 7.2757 V 76.84824 h -9.0882 L 1061.2096,45.805334 V 76.84824 h -7.1736 z"
     id="path16"
     style="fill:#ffffff;stroke-width:2.55287051"
     inkscape:connector-curvature="0" />
</svg>
