<svg id="Layer_1" data-name="Layer 1" xmlns="http://www.w3.org/2000/svg" viewBox="0 0 257.57229 76.666"><defs><style>.cls-1{fill:none;}.cls-2{fill:#959ca5;}.cls-3{fill:#121469;}</style></defs><title>TK_logo_RGB</title><rect class="cls-1" width="34.0156" height="68.0313"/><path class="cls-2" d="M178.271,112.9238a.42.42,0,1,1-.1465-.5761A.42175.42175,0,0,1,178.271,112.9238Zm-.0117-.8022a.68375.68375,0,0,0-1.0127.7554.67712.67712,0,0,0,.3135.4199.68378.68378,0,1,0,.6992-1.1753Z" transform="translate(-158 -95.7656)"/><path class="cls-2" d="M172.4858,112.9238a.42151.42151,0,0,1-.5756.1465.42.42,0,1,1,.5756-.1465Zm-.0117-.8022a.68378.68378,0,0,0-.6992,1.1753.68378.68378,0,1,0,.6992-1.1753Z" transform="translate(-158 -95.7656)"/><path class="cls-2" d="M175.6001,106.3872a.56873.56873,0,0,1,0-.9673.5923.5923,0,1,0-1.1846,0,.56862.56862,0,0,1,0,.9673.57.57,0,0,1,0,.9688.5684.5684,0,0,1,0,.9233.5923.5923,0,0,0,1.1846,0,.5691.5691,0,0,1,0-.9233.57008.57008,0,0,1,0-.9688Zm-.5923-1.2969a.3291.3291,0,1,1-.3296.3296A.33041.33041,0,0,1,175.0078,105.0903Zm0,3.5171a.32885.32885,0,1,1,.3296-.3281A.3292.3292,0,0,1,175.0078,108.6074Zm0-.9233a.3291.3291,0,1,1,.3296-.3281A.32952.32952,0,0,1,175.0078,107.6841Zm0-.9688a.3286.3286,0,1,1,.3296-.3281A.32888.32888,0,0,1,175.0078,106.7153Z" transform="translate(-158 -95.7656)"/><path class="cls-2" d="M171.3394,149.5293a.4207.4207,0,1,1-.42-.4219A.41993.41993,0,0,1,171.3394,149.5293Zm-.42-.6846a.6841.6841,0,1,0,.6836.6846A.68455.68455,0,0,0,170.9194,148.8447Z" transform="translate(-158 -95.7656)"/><path class="cls-2" d="M179.2397,149.5293a.4204.4204,0,1,1-.4209-.4219A.42006.42006,0,0,1,179.2397,149.5293Zm-.4209-.6846a.6841.6841,0,1,0,.6851.6846A.68434.68434,0,0,0,178.8188,148.8447Z" transform="translate(-158 -95.7656)"/><path class="cls-2" d="M182.7695,147.4512a.42065.42065,0,1,1-.4204-.4219A.42091.42091,0,0,1,182.7695,147.4512Zm-.4204-.6846a.6841.6841,0,1,0,.6841.6846A.68412.68412,0,0,0,182.3491,146.7666Z" transform="translate(-158 -95.7656)"/><path class="cls-2" d="M175.4282,150.2207a.4204.4204,0,1,1-.4204-.4199A.42172.42172,0,0,1,175.4282,150.2207Zm-.4204-.6836a.6846.6846,0,1,0,.6851.6836A.6853.6853,0,0,0,175.0078,149.5371Z" transform="translate(-158 -95.7656)"/><path class="cls-2" d="M175.4282,157.791a.4204.4204,0,1,1-.4204-.4199A.42144.42144,0,0,1,175.4282,157.791Zm-.4204-.6846a.6846.6846,0,1,0,.6851.6846A.68551.68551,0,0,0,175.0078,157.1064Z" transform="translate(-158 -95.7656)"/><path class="cls-2" d="M178.3828,154.624l-.1391.0205a1.796,1.796,0,0,0-1.2911,1.3194,1.57491,1.57491,0,0,1-.7519,1.0195,1.303,1.303,0,0,1-1.0615-.1074c-.0494-.0215-.0938-.041-.1314-.0547-.0376.0137-.082.0332-.1313.0547a1.30327,1.30327,0,0,1-1.0616.1074,1.57555,1.57555,0,0,1-.7519-1.0195,1.79526,1.79526,0,0,0-1.291-1.3194l-.1387-.0205.0293-.1386c.0078-.0333.1909-.8194,1.3828-.8194a1.29689,1.29689,0,0,1,1.0698.5108,1.03529,1.03529,0,0,1,1.7852,0,1.297,1.297,0,0,1,1.0698-.5108c1.1924,0,1.3755.7861,1.3828.8194Zm-1.4126-.6933a1.054,1.054,0,0,0-.9922.6132l-.1992.378-.0488-.4248a.74363.74363,0,0,0-1.4444,0l-.0488.4248-.1992-.378a1.054,1.054,0,0,0-.9922-.6132,1.10525,1.10525,0,0,0-1.0752.4922,2.148,2.148,0,0,1,1.3438,1.455,1.35206,1.35206,0,0,0,.6093.8653,1.08255,1.08255,0,0,0,.8487-.1094c.0849-.0371.2358-.0938.2358-.0938s.1509.0567.2359.0938a1.08224,1.08224,0,0,0,.8486.1094,1.35249,1.35249,0,0,0,.6094-.8653,2.14774,2.14774,0,0,1,1.3437-1.455A1.10525,1.10525,0,0,0,176.9702,153.9307Z" transform="translate(-158 -95.7656)"/><path class="cls-2" d="M176.9937,125.3887l-1.023-.4302-.0806.8437h.1094a1.47847,1.47847,0,0,0,.8677-.3085Zm-.8843.209.0332-.3521.4531.1904A1.2777,1.2777,0,0,1,176.1094,125.5977Z" transform="translate(-158 -95.7656)"/><path class="cls-2" d="M181.1157,115.3442a.625.625,0,0,0,.0899-.1132.63174.63174,0,0,0-.2198-.8643.56247.56247,0,0,0-.1533-.064v-.6328a.62912.62912,0,0,0,.1416-1.1445.85853.85853,0,0,0-.0859-.041v-.187l.0254-.0982.2842-1.105c.2255-.3071.4453-.6176.6591-.9262a.57448.57448,0,0,0,.1963.0346.5941.5941,0,0,0,.5933-.5927.579.579,0,0,0-.0698-.2745.6525.6525,0,0,0,.1142.0201.59386.59386,0,0,0,.5938-.5923.57229.57229,0,0,0-.2207-.4297c.0088.0005.0205.0049.0298.0049a.59314.59314,0,0,0,.5922-.5923.574.574,0,0,1,.2608-1.023.58613.58613,0,0,0-.4795-.5703.56813.56813,0,0,0,.1406-.3554.59345.59345,0,0,0-.5937-.5938.58142.58142,0,0,0-.2642.064.5914.5914,0,0,0-.5879-.564.56865.56865,0,0,1-.9258.0152.59071.59071,0,0,0-.5249.3305.58316.58316,0,0,0-.4453-.2168.576.576,0,0,0-.0928.0249.58853.58853,0,0,0-.5542-.8008.57908.57908,0,0,0-.3266.1158.58992.58992,0,0,0-.584-.5489.58111.58111,0,0,0-.48.2652,1.61309,1.61309,0,0,1-1.4321.0141.588.588,0,0,0-.4058.1631,1.36406,1.36406,0,0,0,.1226-.5737,1.26463,1.26463,0,0,0-1.0757-1.2036l.0254-.4351.8198.0855v-1.1831l-.8042.0835.0806-.8374h-1.104l.0805.8374-.8007-.0835v1.1831l.8173-.0855.0259.4356a1.23,1.23,0,0,0-1.0376,1.2031,1.44909,1.44909,0,0,0,.1094.564.58825.58825,0,0,0-.3955-.1534.5742.5742,0,0,0-.3457.1221,2.19676,2.19676,0,0,1-1.5654-.4014.59022.59022,0,0,0-.584.5489.57858.57858,0,0,0-.3272-.1158.59363.59363,0,0,0-.5927.5938.5792.5792,0,0,0,.04.2036.62958.62958,0,0,0-.0938-.0215.57915.57915,0,0,0-.4458.2168.589.589,0,0,0-.5239-.3305.56865.56865,0,0,1-.9258-.0152.59211.59211,0,0,0-.5888.5674.569.569,0,0,0-.2642-.0674.59377.59377,0,0,0-.5937.5938.57811.57811,0,0,0,.1406.3554,2.4667,2.4667,0,0,1-.1489,1.4937.59014.59014,0,0,0,.581.5923.55724.55724,0,0,0,.064-.0127c-.0137.0215-.0376.0317-.0493.0552a.59429.59429,0,0,0-.0635.2622.58393.58393,0,0,0,.5312.58.56573.56573,0,0,0,.5186.8369c.2549.3741.6001.8565.8848,1.2447l.2607,1.1157v.2656a.67746.67746,0,0,0-.1367.1592.6315.6315,0,0,0,.2187.8623v.709a.62923.62923,0,0,0-.3994.7471.64848.64848,0,0,0,.125.2441c-5.6699,2.9302-9.6636,9.8574-9.6636,17.9165a21.1611,21.1611,0,0,0,6.0972,15.3496l-.5132.6074.0879.086c.0073.0078.7534.7383,1.3008,1.1972a10.8833,10.8833,0,0,0,1.4917.9727l.1094.0596.4453-.7061a13.5037,13.5037,0,0,0,4.1938,1.5908v.8057l.1089.0205a11.63041,11.63041,0,0,0,4.7598,0l.1084-.0205v-.7998a14.29447,14.29447,0,0,0,6.9931-3.6943h.0064v-.0059a17.73258,17.73258,0,0,0,2.3882-2.7661,22.27819,22.27819,0,0,0,3.8247-12.6968C190.709,125.1987,186.7485,118.2949,181.1157,115.3442Zm-.2646-.7504a.36312.36312,0,0,1,.0102.621,13.34665,13.34665,0,0,0-2.8491-1.0424c.9307.0854,1.8374.2109,2.7139.3764A.37726.37726,0,0,1,180.8511,114.5938Zm-10.9619-2.0684a.62489.62489,0,0,0-.462-.0708v-.187l.0987-.02a29.39565,29.39565,0,0,1,4.5039-.4781,1.04493,1.04493,0,1,0,1.9726-.0039,29.4436,29.4436,0,0,1,4.6109.48l.0151.0049v.1885a.62912.62912,0,0,0-.06,1.2524v.5581a32.28561,32.28561,0,0,0-11.0591.0049v-.561a.62929.62929,0,0,0,.3799-1.168Zm4.4638-.8247v-.001a.7808.7808,0,0,1,1.3267-.0024.78161.78161,0,1,1-1.3862.1157.83809.83809,0,0,1,.0595-.1123Zm6.6143,1.5537a.36628.36628,0,1,1-.3389-.5518v.0025h.0742a.365.365,0,0,1,.2647.5493Zm1.0859-3.3164a.33277.33277,0,0,1-.1719-.0498.3278.3278,0,1,1,.1719.0498Zm.6377-.8467a.3336.3336,0,0,1-.3281-.3281.3291.3291,0,1,1,.3281.3281Zm.4029-1.0166a.34069.34069,0,0,1-.3296-.3286.32885.32885,0,1,1,.3296.3286Zm.5878-1.3516a.326.326,0,0,1-.2929.3243l-.0196.0029-.0161.0019a.32783.32783,0,0,1-.0405-.6533l.0142-.0024.0263-.0025A.32913.32913,0,0,1,183.6816,106.7231Zm-.9262-1.124a.32286.32286,0,0,1,.2588-.1323.33033.33033,0,0,1,.33.3306.32576.32576,0,0,1-.1543.2768.33429.33429,0,0,1-.1757.0513.32889.32889,0,0,1-.3282-.3281A.31644.31644,0,0,1,182.7554,105.5991Zm-.92-.3218.002-.017a.32815.32815,0,0,1,.6543.0366.31144.31144,0,0,1-.0283.1308.328.328,0,0,1-.6294-.1308Zm-.5991-.2949a.32669.32669,0,0,1,.3247.2808.32285.32285,0,0,1,.0039.0488.32832.32832,0,0,1-.3286.3286.3241.3241,0,0,1-.3247-.3012l-.0029-.0225-.001-.0068A.32922.32922,0,0,1,181.2363,104.9824Zm-.4453.7066a.57582.57582,0,0,0,.4453.2153.56758.56758,0,0,1,.9258-.0137.47377.47377,0,0,1,.7285.4741.57578.57578,0,0,0-.1303.3584.57633.57633,0,0,1-.2588,1.023.58257.58257,0,0,0,.1899.4238h-.0005a.59294.59294,0,0,0-.5918.5933.5653.5653,0,0,0,.0742.272.58713.58713,0,0,0-.539.9902c-.1651.2388-.3252.4653-.4961.7012l-.3633-.1587a.50081.50081,0,0,0-.3276-.023,7.39961,7.39961,0,0,0,1.5239-3.2085,1.0713,1.0713,0,0,0-.3184-.8261,1.17021,1.17021,0,0,0-.8632-.251.607.607,0,0,0-.2452-.3198A.59013.59013,0,0,0,180.791,105.689Zm-1.8262,4.395c.2598-.4277.4644-.7837.6363-1.1055.0146.0015.0298.0034.0439.0034a.59431.59431,0,0,0,.5938-.5932.57523.57523,0,0,0-.1446-.3614.59018.59018,0,0,0,.5518-.5839.5773.5773,0,0,0-.251-.459.5884.5884,0,0,0,.4131-.4629.91452.91452,0,0,1,.6685.1855.80419.80419,0,0,1,.2309.6294c0,.7554-.8598,2.168-1.8442,3.5991l-.1011.147a.6945.6945,0,0,0-.3066.1065.8695.8695,0,0,0-.2564-.2354.4226.4226,0,0,0,.0025-.0439A1.44433,1.44433,0,0,0,178.9648,110.084Zm1.0874-2.9702a.3291.3291,0,1,1,0,.6582.358.358,0,0,1-.0585-.0059.32884.32884,0,0,1,.0585-.6523Zm-.1572-.6875a.32739.32739,0,0,1,.6543-.0196l.0015.0054.0019.0171v.0024a.32542.32542,0,0,1-.27.3169.27413.27413,0,0,1-.0586.0059A.32876.32876,0,0,1,179.895,106.4263Zm-.0552,1.6992a.32458.32458,0,0,1,.1348.2632.32977.32977,0,0,1-.3296.3296.34045.34045,0,0,1-.0825-.0132.32773.32773,0,0,1,.0825-.645A.32251.32251,0,0,1,179.8398,108.1255Zm.2671-2.9849a.32132.32132,0,0,1,.1592-.0449.33022.33022,0,0,1,.3252.2876l.002.0156.0029.0264a.32937.32937,0,1,1-.4893-.2847Zm-.7558-.6792a.32827.32827,0,1,1-.0601.189A.32722.32722,0,0,1,179.3511,104.4614Zm-.9698-.2627a.32837.32837,0,0,1,.6563.0181.33583.33583,0,0,1-.0142.0884.32742.32742,0,0,1-.643-.0879Zm-.6728-.3701a.33091.33091,0,0,1,.3301.3296l-.002.0078-.0019.02a.3283.3283,0,1,1-.3262-.3574Zm-.9121.3379a.33.33,0,0,1,.3262.2939l.0019.0176.0029.0186a.32955.32955,0,1,1-.331-.3301Zm-3.8701.3193.0019-.0205a.315.315,0,1,1-.0029.0313Zm-.583-.6572a.32962.32962,0,0,1,.3286.3296.32452.32452,0,0,1-.062.1899.32687.32687,0,0,1-.5928-.1586l-.002-.021-.0009-.0108A.32988.32988,0,0,1,172.3433,103.8286Zm-1,.0586a.32841.32841,0,0,1,.3266.3125v.0059l.002.0156.0014.0029a.32878.32878,0,0,1-.6474.0733.31154.31154,0,0,1-.0117-.0806A.32992.32992,0,0,1,171.3433,103.8872Zm-.3291.8164a.97827.97827,0,0,1,1.3291.0469.57378.57378,0,0,0,.3427-.1289.58142.58142,0,0,0,.9961.2822,6.45686,6.45686,0,0,0,.628.1587l.1328-.4902-.0713-.0533a1.20863,1.20863,0,0,1-.5669-1.0268.98934.98934,0,0,1,.9282-.9624l.1231-.0147-.0494-.8193-.1167-.1221-.6904.0723v-.5977l.6904.0728.125-.1314-.0693-.7236h.5225l-.0689.7241.125.1304.6929-.0723v.5977l-.6929-.0723-.1167.1221-.0488.8193.123.0157a1.02367,1.02367,0,0,1,.9678.9614,1.234,1.234,0,0,1-.6035,1.0268l-.0723.0533.1338.4897a6.32975,6.32975,0,0,0,.6572-.1636.58114.58114,0,0,0,1.0005-.2758.5534.5534,0,0,0,.8243-.1338.58927.58927,0,0,0,.519.3203.57878.57878,0,0,1,.9106.4336.62386.62386,0,0,0,.1114-.0244.57846.57846,0,0,0-.0567.207.57379.57379,0,0,1-.0425,1.001.5775.5775,0,0,1-.1718,1.0171.58238.58238,0,0,1-.4073.9453.59112.59112,0,0,0,.293.5092c-.1557.2881-.3389.6065-.5654.9805a.78868.78868,0,0,0-.2935-.1611.91609.91609,0,0,0-.7417.1523l.0264-.0742a9.6269,9.6269,0,0,0,.7563-3.2285,1.02816,1.02816,0,0,0-.4018-.8975,2.56143,2.56143,0,0,0-2.0186.0044l-.0898.0308v.0942a25.66259,25.66259,0,0,1-.3311,3.5259.98305.98305,0,0,0-1.3593-.0205,25.41357,25.41357,0,0,1-.3272-3.5054v-.0942l-.0889-.0308a2.567,2.567,0,0,0-2.02-.0044,1.03007,1.03007,0,0,0-.4009.8975,9.29957,9.29957,0,0,0,.8125,3.3125.94511.94511,0,0,0-.8393-.2212.78682.78682,0,0,0-.1528.0625c-.1934-.3208-.3536-.6011-.4922-.8579a.593.593,0,0,0,.3486-.54.58633.58633,0,0,0-.4619-.5669.57694.57694,0,0,0,.1328-.356.58269.58269,0,0,1-.2939-.9853.59023.59023,0,0,0-.3731-.5474.58419.58419,0,0,0,.208-.4419.56335.56335,0,0,0-.0605-.21.51935.51935,0,0,0,.6963-.5117Zm2.8183-.3369a1.7919,1.7919,0,0,0,.3096.3086l-.0215.0767c-.0952-.0235-.1934-.0503-.2998-.0821a.5817.5817,0,0,0,.0117-.3032Zm2.3965.2974c-.1172.0351-.2266.0644-.3325.0883l-.021-.0761a1.88166,1.88166,0,0,0,.3525-.3423.57981.57981,0,0,0-.0234.1626A.58962.58962,0,0,0,176.229,104.6641Zm1.2925,5.0449-.2402.6938a.66787.66787,0,0,0-.482.1514.97524.97524,0,0,0-.5947-.3335,1.80631,1.80631,0,0,0-.29-.6445,27.1815,27.1815,0,0,0,.3671-3.6822c.3262-.1044,1.2237-.3427,1.691-.0092a.77073.77073,0,0,1,.2905.6821A9.47326,9.47326,0,0,1,177.5215,109.709Zm-3.4234-.1646a1.787,1.787,0,0,0-.3105.668.81777.81777,0,0,0-.5923.3286.73055.73055,0,0,0-.436-.1811l-.1563-.4278a9.54876,9.54876,0,0,1-.8486-3.3652.77169.77169,0,0,1,.29-.6821c.4678-.3335,1.3638-.0952,1.6914.0092A26.92051,26.92051,0,0,0,174.0981,109.5444Zm-3.3481,1.3389a.31061.31061,0,0,1-.437.2734l-.1006-.1469c-.9834-1.4317-1.9033-2.9195-1.9033-3.6734a.79581.79581,0,0,1,.2461-.643,1.04431,1.04431,0,0,1,.8164-.1558.59554.59554,0,0,0,.2436.3652.58036.58036,0,0,0,.2271.0713.57079.57079,0,0,0-.1533.2227.54175.54175,0,0,0,.4463.7641.55842.55842,0,0,0,.2802.9312.656.656,0,0,0,.1309.0225c.1533.288.332.6015.5517.9687l-.0376.0405a1.46277,1.46277,0,0,0-.311.9439Zm-.5059-3.1548a.33416.33416,0,0,1-.1713-.0493.32765.32765,0,0,1-.1573-.2793.31015.31015,0,0,1,.0215-.1128.328.328,0,1,1,.3071.4414Zm.6587.5943a.32977.32977,0,0,1-.33.3295.36133.36133,0,0,1-.0865-.0141.32812.32812,0,1,1,.4165-.3154Zm-.9521-1.5787a.32548.32548,0,0,1-.1865-.0586.33184.33184,0,0,1-.1426-.267v-.0039a.32885.32885,0,1,1,.3291.3295Zm.4814-2.4233a.33515.33515,0,0,1,.3296.3296.329.329,0,0,1-.5952.1929.3284.3284,0,0,1,.2656-.5225Zm-.9736,1.0908.001-.0195a.31711.31711,0,1,1-.003.0337Zm-.9678-.1513a.32889.32889,0,0,1,.6538.0517l-.0024.0161-.002.0176a.328.328,0,0,1-.6543-.0337A.48708.48708,0,0,1,168.4907,105.2603Zm-.6006-.292a.32682.32682,0,0,1,.3233.2895l.0029.0161.001.023a.32832.32832,0,0,1-.6338.1216.33483.33483,0,0,1-.0234-.1216A.32894.32894,0,0,1,167.8901,104.9683Zm-.853.4985a.32935.32935,0,0,1,0,.6587.33121.33121,0,0,1-.3286-.3281A.32977.32977,0,0,1,167.0371,105.4668Zm-.3999,1.5786a.3285.3285,0,0,1,.0615-.6514l.0166.001a.32883.32883,0,0,1-.0166.6572A.29416.29416,0,0,1,166.6372,107.0454Zm.3936.9292h-.0093a.33126.33126,0,1,1,.0093,0Zm.5302.8965-.0097-.0005a.32721.32721,0,0,1-.3194-.3271.33516.33516,0,0,1,.3286-.3301.32885.32885,0,1,1,.0005.6577Zm.5049.8203v.0005l-.0127.0015-.0317.0024a.34343.34343,0,1,1,.0444-.0044Zm.2246.1997a.58238.58238,0,0,0-.1943-1.1015.582.582,0,0,0,.0581-.2461.59508.59508,0,0,0-.5938-.5938c-.0161,0-.0288.0117-.0449.0132a.57262.57262,0,0,0,.105-.3164.56945.56945,0,0,1-.3291-.9234.56087.56087,0,0,1,.3355-.913.93525.93525,0,0,1,1.1889.0942.57912.57912,0,0,0,.4444-.2168.5939.5939,0,0,0,.3042.2856.6017.6017,0,0,0-.188.2984,1.27132,1.27132,0,0,0-.9898.2187,1.05949,1.05949,0,0,0-.3413.8462,7.87654,7.87654,0,0,0,1.5899,3.293.57869.57869,0,0,0-.336.0112l-.3711.1558C168.7075,110.4927,168.4941,110.1895,168.2905,109.8911Zm.8321,1.1167.1235-.0561c.0542-.024.0952-.0415.1265-.0567h0a.57168.57168,0,0,1,.5439.1836,1.06184,1.06184,0,0,1,.2012.2666l.0361.0674.0772.002a.47711.47711,0,0,1,.2255.0561l.1504.0845.043-.167a.4425.4425,0,0,1,.2939-.3057l.0831-.0376-.0049-.0898c-.0005-.02-.0039-.0386-.0049-.0547a.23541.23541,0,0,1-.0039-.0327,1.19532,1.19532,0,0,1,.2471-.7715.57313.57313,0,0,1,.2744-.1841.89051.89051,0,0,1,.9106.5449,1.00179,1.00179,0,0,1,.0454.0894l.0381.0771.0859-.0024a.50764.50764,0,0,1,.4971.2251l.1445.2266.0909-.253c.0791-.2217.2363-.3237.5429-.3545h.0025l.0132-.0019.0058-.0005.0962-.0117.0176-.0952a1.53162,1.53162,0,0,1,.313-.6905.78174.78174,0,0,1,1.333.0264,1.53491,1.53491,0,0,1,.292.6636l.0166.0859.0859.0181.0059.0019.0254.0069a.68384.68384,0,0,1,.5605.3579l.0938.2124.1333-.1895a.4206.4206,0,0,1,.4414-.1748l.0932.0108.0401-.084c.0234-.0469.0498-.0948.0815-.1455a.85421.85421,0,0,1,.8731-.4834.594.594,0,0,1,.2905.2031,1.15272,1.15272,0,0,1,.2344.7344c0,.0117-.0035.0298-.0054.0478-.0024.0176-.0054.0371-.0064.0581l-.0058.084.0732.041a.59149.59149,0,0,1,.2998.3013l.0791.2065.1446-.1674a.41433.41433,0,0,1,.3271-.1392l.0767-.002.0366-.0683a1.08013,1.08013,0,0,1,.1411-.2046.61114.61114,0,0,1,.5957-.2466l.1367.0606c.0015.0004.0689.0307.1324.0581l-.0166.0654-.254.9897a30.18311,30.18311,0,0,0-4.832-.4965,1.04127,1.04127,0,0,0-1.6919.0039,29.85389,29.85389,0,0,0-4.6938.4868l-.1148.0234Zm.1308,1.8726a.36628.36628,0,1,1,.1275.5019A.36758.36758,0,0,1,169.2534,112.8804Zm-.1518,2.1181a.37362.37362,0,0,1,.2793-.4531c.8364-.1606,1.7031-.2817,2.5913-.3652a13.37665,13.37665,0,0,0-2.7559,1.0039A.35687.35687,0,0,1,169.1016,114.9985Zm-1.312,36.148a9.98991,9.98991,0,0,1-1.3418-.8848c-.4288-.3594-.9844-.8926-1.1963-1.0976l.4336-.5127.9399-1.1133a.69337.69337,0,0,0,.4297.1299.71379.71379,0,0,0,.5122-.2569.8244.8244,0,0,0,.0244-1.0156l.9302-1.1016.2143-.2529c.1944.1631.6221.5205.876.7227.2691.2148.855.5761,1.1045.7285Zm-1.4424-4.9673a2.52654,2.52654,0,0,1,.9785.3149.58464.58464,0,0,1,.04.7471.4379.4379,0,0,1-.3213.1621.44657.44657,0,0,1-.3354-.1396A3.39075,3.39075,0,0,1,166.3472,146.1792Zm6.1723,5.9341a13.27017,13.27017,0,0,1-4.0532-1.5459l2.2383-3.5625a9.64326,9.64326,0,0,0,1.8149.7285Zm0-5.1113v.457a9.35711,9.35711,0,0,1-1.56-.6211h1.56Zm4.7129,5.9658a11.22481,11.22481,0,0,1-4.4487,0v-5.7979a7.977,7.977,0,0,0,4.4487,0Zm.0982-6.0948a7.88884,7.88884,0,0,1-4.6455,0l-.1363-.0351h4.9185Zm-6.397-.2324.1489-.2363-.1157-.0703c-.0039-.001-.1802-.1065-.4023-.2461h2.7397v-.1978h-3.0503c-.1841-.1196-.3628-.2417-.4766-.3325-.0781-.062-.1733-.1387-.2719-.2202h3.7988v-.1978h-4.0371c-.2442-.2026-.457-.3823-.4609-.3847l-.1016-.086-.294.3477c-.1455-.1387-.2871-.2827-.4267-.4297h5.3203v-.1982h-3.6494c.2031-.0967.6909-.3223,1.29-.5518h6.7217l-.3437.211.833.2197-.0479.1211h-3.8135v.1982h3.7364l-.2168.5527h-3.5196v.1978h6.9541c-.2197.1948-.4463.3789-.6777.5527h-6.2764v.1978h6.0049a9.95012,9.95012,0,0,1-.875.5527Zm-4.1851-23.2661q.1992-.2835.4097-.5527h1.5386v-.1983h-1.3819q.23145-.2841.4737-.5527h.9082v-.1978h-.7246q.2724-.2871.5576-.5522H174.77l-.4678.1167-.6728.4355h-3.9419v.1978h3.6372l-.8525.5527h-2.7847v.1983h2.48l-.8526.5527h-1.6274v.1978h1.3228l-.8526.5527h-3.9014c.1163-.188.2339-.373.3565-.5527h2.084v-.1978Zm2.9483-3.0019a10.31229,10.31229,0,0,1,.872-.5528h1.9332v-.1982h-1.5665a9.48872,9.48872,0,0,1,1.3199-.5528h.2466v-.0781a8.692,8.692,0,0,1,4.5683-.1191h-3.5781v.1972h4.2681a9.47329,9.47329,0,0,1,1.3203.5528h-5.5884v.1982h5.9546a10.21722,10.21722,0,0,1,.872.5528h-1.6699v.1977h1.9414q.34725.2607.6778.5527h-2.6192v.1978h2.8374q.28635.2652.5586.5522h-3.396v.1978h3.5796q.2424.268.4732.5527h-7.5616l.0064-.0039.3843-.5488h2.1279v-.1978h-1.9902l.3867-.5522h1.6035v-.1978h-1.4653l.1342-.1914-.7666.1914h-6.8125q.331-.2922.6773-.5527h8.2329v-.1977Zm14.5996,4.7002c.0937.1816.1855.3662.2724.5537h-1.1484v.1972h1.2398c.0825.1822.1616.3658.2382.5533h-1.478v.1972h1.5576c.0713.1817.1407.3667.2071.5528h-5.2715c.0024-.043.0044-.0835.0049-.1226a2.13073,2.13073,0,0,0,.3457-.4302h2.167v-.1972h-2.0538a2.15523,2.15523,0,0,0,.126-.2969l.041-.1328-.3134.0112.0722-.0796.084-.0552h2.044v-.1972H180.686l.4053-.2676-.7226-.2861h2.0625v-.1973h-2.5625l-.3291-.1299-.2334.4165-.2178-.1431.0869-.1552.542-.2505.1631-.291h4c.1064.1816.2109.3657.3115.5532h-.7715v.1973Zm1.8926,9.0068c-.0078.185-.0191.3696-.0327.5527h-1.7789v.1978h1.7627c-.0156.185-.0346.3701-.0561.5527h-1.7066v.1973h1.6831c-.0234.1865-.0502.3701-.0786.5537H182.104c.002-.0171.0034-.0342.0039-.0498a2.29692,2.29692,0,0,0-.0225-.5039h1.3018v-.1973h-1.3369a3.46105,3.46105,0,0,0-.1733-.5527h1.5102v-.1978H181.793c-.0767-.1699-.1695-.3496-.2832-.5527h1.8774v-.1978H181.396c-.0776-.1328-.1582-.2656-.2373-.3945-.001-.0049-.0527-.0889-.0942-.1582h5.144c-.001.1846-.0039.3691-.0107.5527h-1.8204v.1978Zm-1.0176,5.2534q-.09959.27975-.208.5532h-.0254v.064q-.29746.74415-.6587,1.4375h-1.8784c.0273-.1987.0615-.3838.1006-.5537h1.4463v-.1973h-1.397a2.80846,2.80846,0,0,1,.209-.5434l.0053-.0098h1.1827v-.1973h-3.563c-.0137-.1425-.0357-.3305-.0728-.5532h3.6358v-.1973h-3.6739c-.0283-.1342-.0635-.3295-.1201-.5527h5.2656q-.0849.2784-.1792.5527h-.3022v.1973Zm-7.3511,4.6406.5532-.3398-.4541-.4717c.0865-.0273.1778-.0547.2793-.082a5.60955,5.60955,0,0,1,2.2617-.1704l.1084.021.0088-.1109a2.72985,2.72985,0,0,1,.1045-.5571,2.787,2.787,0,0,1,.1988-.4976l.1225-.2192-.2383.0762a3.49014,3.49014,0,0,1-2.8466-.2783l-.6924,1.0615a2.07761,2.07761,0,0,1-.1739-.2256,3.29171,3.29171,0,0,1-.3569-.7285,5.96568,5.96568,0,0,1-.2056-.7383c-.0502-.2315-.0947-.4815-.1279-.7422-.0312-.2393-.0571-.4893-.0747-.7441-.0161-.2393-.0268-.4903-.0312-.7452-.0059-.3476.0014-.6171.0058-.746.002-.0665.0025-.1309.0025-.1309a2.81189,2.81189,0,0,0-.253-.669,2.68627,2.68627,0,0,0-.6142-.7792,2.24094,2.24094,0,0,0-.4698-.3184c-.2451-.124-.5073-.2725-.7802-.4414-.4766-.2949-.8677-.5806-1.0684-.7324a3.36853,3.36853,0,0,0,1.0527-.6084,2.69993,2.69993,0,0,0,.753-1.0953c.1064.0796.2837.2076.5058.3531a6.40151,6.40151,0,0,0,1.5342.7622,2.51735,2.51735,0,0,0,.3584.0786l.1138.0156a2.1515,2.1515,0,0,1,.3691.5996c.0532.1241.1079.2618.1587.3926.0405.1035.0777.2158.1143.3457a6.04947,6.04947,0,0,1,.1567.7393l.0103.0742.0068.0459.0391.0244a5.49655,5.49655,0,0,1,.8047.6602c.0625.061.1269.1298.1918.2041.0816.0927.1539.1933.231.2851a4.22684,4.22684,0,0,1,.6182,1.71c.0571.3164.0849.5771.0996.7402.0078.104.0107.1641.0107.1641l.0034.1074.106-.0117a3.51194,3.51194,0,0,1,1.5098.3052l.0586.0268.0488-.0425a3.02878,3.02878,0,0,1,.54-.2973,3.688,3.688,0,0,0-.1479.4658,6.34907,6.34907,0,0,0-.1363.7637c-.0283.2353-.0498.4902-.061.7587-.0102.2408-.0151.4947-.0122.7544.0039.3267.0176.6089.0278.7735a9.41341,9.41341,0,0,0-2.9633.6333c-.4336.1538-.7969.3003-1.0152.3906l.1021-.2607.1533-.3897Zm-9.1323-.4433.6299-.7149-.7207-.2383c.1904-.0917.3833-.1738.5844-.25a4.58831,4.58831,0,0,1,2.0992-.3413l.1796.0196-.0576-.1519a2.36868,2.36868,0,0,0-.2226-.4223,3.80131,3.80131,0,0,0-.7017-.772,7.48927,7.48927,0,0,0-1.0806-.7608,11.00731,11.00731,0,0,0-1.1728-.5981,1.7217,1.7217,0,0,1,1.125-.3814l.0439.001.0318-.0312c.1108-.1094.23-.2168.3652-.3301a5.95287,5.95287,0,0,1,1.1367-.7388,8.13112,8.13112,0,0,1,2.3443-.7402,9.14218,9.14218,0,0,1,1.6987-.1275c.0239.0196.0649.0547.1138.1016a2.18835,2.18835,0,0,1,.5195.7153.86464.86464,0,0,1,.0171.6758.90922.90922,0,0,1-.1157.1992,2.04118,2.04118,0,0,1-.6172.5025,7.70038,7.70038,0,0,1-2.1773.7241l.0826.1577a2.87536,2.87536,0,0,1,.2441.7256,4.04761,4.04761,0,0,1,.0757.7324,3.79868,3.79868,0,0,1-.0137.4053l-.0132.1172.7481-.0405a2.0291,2.0291,0,0,0-.2158.1977,2.71211,2.71211,0,0,0-.5098.7803c-.0127.0283-.0225.0527-.0303.0727a10.78164,10.78164,0,0,0-2.1841.6246c-.5649.2172-1.0366.4316-1.27.5419l.0713-.7226Zm-.9404-7.7324s-.6241.3833-.6446.3955l-.1836-.25.8936-.854-.9854.1967-.0879-.1943a1.77307,1.77307,0,0,1,.2022-.1787,1.549,1.549,0,0,1,.1475-.0991,1.96916,1.96916,0,0,1,.3857-.1783,1.89511,1.89511,0,0,1,.3828-.083c.0679-.0078.1289-.0117.187-.0127a1.39783,1.39783,0,0,0,.1646-.021l.5171-.0795.018-.4541.0176-.3394.0444.0098.1695.5737.1054-.0518c.0704-.0337.1392-.0708.2115-.1113a6.76378,6.76378,0,0,0,.6235-.4209c.1494-.1084.3037-.2217.4761-.332.1167-.0772.229-.1436.3442-.2071a2.63559,2.63559,0,0,1,.3301-.1499,3.69174,3.69174,0,0,1,1.8491-.164,1.83653,1.83653,0,0,1-.1177.4184,2.88218,2.88218,0,0,1-.4287.7085,4.05452,4.05452,0,0,1-.7387.7325,4.3385,4.3385,0,0,1-1.4605.7329c-.0083.0034-.0342.0117-.0391.0136a5.87842,5.87842,0,0,0-.7578.2671,4.56807,4.56807,0,0,0-.4375.2154c-.1181.0664-.2314.1381-.3364.2109l-.0508.0386-.0278.0215a3.3334,3.3334,0,0,0-.2808.229,2.43611,2.43611,0,0,0-.4301.5029h-.0953l-.229-.271.3985-.6812Zm.3437-1.461c-.0351.0049-.0469.0059-.0503.0059-.0425,0-.0879.0029-.1343.0068l-.4629-.9809-.1782.0834.4356.9244a1.95858,1.95858,0,0,0-.2305.0547l-.6489-.6011-.1343.1474.5723.5284a2.15844,2.15844,0,0,0-.2515.1264h-.209l-1.0674-.9253.0181-.2597.3335.1826.0435-.4326.4135.1582.0879-.4629.3789.144.0728-.3906.3755.2222.0693-.3706v-.002l.2705.1792.1328-.3096.2666.2593.2598-.3203.1611.3032-.083,1.6602-.2451.039-.0557-1.0253-.1982.0112Zm-.0273-4.1006-.083-.1025-.3848.5508c-.0488-.1206-.1191-.295-.1973-.4922-.1093-.2808-.2051-.5322-.2837-.749-.0835-.231-.146-.4185-.188-.5606a1.88116,1.88116,0,0,0,.8931-.0625,1.26033,1.26033,0,0,0,.6895-.5649,6.19889,6.19889,0,0,0,.5971.5483,6.88431,6.88431,0,0,0,1.1582.7608,5.88615,5.88615,0,0,0,1.1485.4541c-.0674.041-.1323.0839-.1953.1289a2.73647,2.73647,0,0,0-.7207.7793,3.3919,3.3919,0,0,0-.3506.7719,5.03259,5.03259,0,0,0-.1255.4947c-.2515-.1856-.4653-.3594-.6655-.5381a8.18466,8.18466,0,0,1-.7256-.7422C168.438,130.6924,168.2363,130.4482,168.064,130.2363Zm.2773.6436h-.6406l.293-.418C168.103,130.5967,168.2222,130.7402,168.3413,130.8799Zm-2.4023-2.542c-.0015-.0156-.0039-.0313-.0069-.0469a2.99807,2.99807,0,0,0,.5938.3374h-.6406A.57116.57116,0,0,0,165.939,128.3379Zm.5527.0576a2.6312,2.6312,0,0,1-.707-.4892,1.72446,1.72446,0,0,1-.2754-.3521.55007.55007,0,0,1-.0874-.3208.45733.45733,0,0,1,.1694-.3096.35642.35642,0,0,1,.2017-.0937l.101.0102.0088-.1006a1.02223,1.02223,0,0,1,.0528-.2304.4836.4836,0,0,1,.1733-.2495.3609.3609,0,0,1,.3482-.0415l.1435.0722v-.1611c0-.0606.0166-.2422.1055-.3057h.3232c.0645.0201.1201.042.1201.042l.1119-.1582-.0528-.0532a2.85306,2.85306,0,0,0-.6089-.4805.785.785,0,0,1,.0752-.144,1.20211,1.20211,0,0,1,.6114-.4326c.04.0923.1103.2509.1923.4204a3.009,3.009,0,0,0,.42.7016l.0566.0562,6.4072-4.1538,1.4751-.3682-.8481,1.2193c-1.2119.7338-6.4898,3.9218-6.4898,3.9218s.0762.1079.1016.1407a3.69207,3.69207,0,0,0,.7515.7509,1.32738,1.32738,0,0,1-.7569.522,1.4051,1.4051,0,0,0-.5273-.96l-.1216-.0805-.0298.143c-.0034.0196-.084.417-.1299.7085a1.97832,1.97832,0,0,1-.6064-.5532l-.1753.084c.0015.0064.145.5005.2251.7925a1.34329,1.34329,0,0,1-.7095-.4717l-.1831.0654C166.3618,127.5635,166.4282,128.0752,166.4917,128.3955Zm-.8647.2617a.38234.38234,0,1,1,.1137-.3037A.384.384,0,0,1,165.627,128.6572Zm2.1206-3.5844h.9482l-.688.4467A3.16327,3.16327,0,0,1,167.7476,125.0728Zm8.9003-1.7588.9185.6508-.2212.4185.6309.2686.1855-.4058-.1142-.5801.1982-.3296,1.1055-.2187.4277.9804-.2021.3623-.542.25-.209.3721.5493.3628.2524-.4526,1.0367.4101-.4869.3223-.2221.2432-.8364.0283.0068.1972,1.1367-.039a2.28645,2.28645,0,0,1-.1372.2695,1.96465,1.96465,0,0,1-.3711.4644,1.49778,1.49778,0,0,1-.3579.2436l.084.1782a1.55772,1.55772,0,0,0,.2324-.1367l-.0034.0445a4.34051,4.34051,0,0,1-.1255.7329,7.2802,7.2802,0,0,1-.2383.7412c-.0488.1269-.0967.2422-.1343.3349-.0366.0899-.0649.1602-.0835.2124-.0214.063-.0434.1324-.0649.2115a6.53388,6.53388,0,0,0-.1465.7632c-.0112.0795-.02.1469-.0259.2016l-.3134-.1162-.0157.124a5.14674,5.14674,0,0,1-.0947.5327c-.0312.1353-.0644.2579-.0957.3765-.0361.1338-.0698.2608-.0928.377-.0102.0546-.0185.102-.0244.1464a1.79443,1.79443,0,0,0,.0537.6475,2.4485,2.4485,0,0,0,.1397.396,1.76662,1.76662,0,0,1-.9512-.1855l-.0835-.0415-.0474.0805a1.34225,1.34225,0,0,0-.1396.4624,4.59034,4.59034,0,0,0-.0337.7227c-.0669-.0147-.1382-.0313-.2124-.0537a6.13482,6.13482,0,0,1-1.4805-.7383c-.3545-.2305-.6001-.4238-.6025-.4258l-.1128-.0889-.0425.1372a2.67937,2.67937,0,0,1-.1719.4161,2.439,2.439,0,0,1-.5673.7192,3.252,3.252,0,0,1-1.1597.6318c-.1172.0362-.2368.0703-.3555.0977a4.78664,4.78664,0,0,1-.6445.1025,4.22536,4.22536,0,0,0,.6841-.6953,3.7445,3.7445,0,0,0,.4638-.7724,1.895,1.895,0,0,0,.1426-.6578,4.47478,4.47478,0,0,0-2.1357.1602,3.20259,3.20259,0,0,0-.3545.1616c-.1201.0654-.2373.1353-.3574.2139-.0215.0146-.043.0288-.064.0425l-.145.1001a6.16932,6.16932,0,0,1,.0937-.792l.0196-.1133a4.51931,4.51931,0,0,1,.1469-.625,3.304,3.304,0,0,1,.3296-.728,2.51284,2.51284,0,0,1,.6685-.7212,2.70851,2.70851,0,0,1,.3911-.2364,4.36153,4.36153,0,0,1,1.9209-.372,3.79584,3.79584,0,0,0,.9853-.1275,3.36923,3.36923,0,0,0,1.418-.7749,2.19406,2.19406,0,0,0,.2456-.2617l.2085-.2798-.3252.1294a3.50763,3.50763,0,0,1-1.0156.2403,3.15224,3.15224,0,0,1-.5547,0c-.1001-.0079-.1885-.0201-.2646-.0332a2.05252,2.05252,0,0,0,.4199-.5318,2.32423,2.32423,0,0,0,1.5947-.4116.58711.58711,0,0,0,.1758-.4263.99761.99761,0,0,0-.7095-.8447.5149.5149,0,0,0-.1269-.0176.86877.86877,0,0,0-.1529.0156,1.66379,1.66379,0,0,0-.8769.6006l-.0801-.3393-.0127-.0493-.0459-.0186a.687.687,0,0,1-.2334-.1641,1.23669,1.23669,0,0,1-.2764-.7002l1.2876-.3378.1114-.4864,1.0234-.0561.2173-.937Zm1.3067.9087-.0781.1713-.2554-.1084.2012-.3818-.4673-.3315h.5176l-.0347.0571Zm5.4492,5.6669a.92282.92282,0,0,1,.1807.3653.83938.83938,0,0,1-.0782.6738,1.04813,1.04813,0,0,1-.1372.1856c-.0092-.0538-.021-.107-.0356-.1617a2.13249,2.13249,0,0,0-.4253-.7885,2.20586,2.20586,0,0,0-.3257-.3208c-.2627-.1939-.3974-.314-.4883-.3921-.0214-.0186-.039-.0352-.0556-.0493a.768.768,0,0,0-.3457-.108,1.573,1.573,0,0,0-.8076.0962.90184.90184,0,0,0-.2115.1538,2.03557,2.03557,0,0,0-.4609.6446,2.45114,2.45114,0,0,0-.1763.7822l-.0029.0381a2.40509,2.40509,0,0,0,.0742.7432,3.93578,3.93578,0,0,0,.2842.7695l.1435.2939.0791-.2168a.80446.80446,0,0,1,.0323-.0781,1.01828,1.01828,0,0,1,1.4912-.4199,1.21982,1.21982,0,0,0-.9058.3052,1.2,1.2,0,0,0-.3886.6875c-.0079.0483-.0181.2231-.0181.2231l.1611.2656c.0908.1514.1807.3003.2671.4473a7.27879,7.27879,0,0,1,.3833.7402,3.34256,3.34256,0,0,1,.2354.7285,2.21255,2.21255,0,0,1,.038.5723c-.0029.0464-.0068.0947-.0146.1485a2.23957,2.23957,0,0,1-.2183.7177,1.96857,1.96857,0,0,1-1.1362.9903,2.00017,2.00017,0,0,1-.5674.1015,2.66716,2.66716,0,0,0-.3554-.6304,1.34133,1.34133,0,0,0,.7275-.0405,1.32349,1.32349,0,0,0,.5015-.3037,1.4411,1.4411,0,0,0,.3501-.5308l.0068-.018v-.0186a1.62262,1.62262,0,0,0-.0234-.2724,1.58835,1.58835,0,0,0-2.3467-1.0996,1.40177,1.40177,0,0,1,1.289-.6807,1.41383,1.41383,0,0,1,.5411.1484l.2939.1504-.1631-.2861c-.0976-.1719-.2031-.3486-.3057-.5176,0,0-.2998-.4951-.4375-.7456a6.67712,6.67712,0,0,1-.3549-.7402,3.89315,3.89315,0,0,1-.2183-.7329,2.879,2.879,0,0,1-.0478-.7261,3.42979,3.42979,0,0,1,.122-.729,2.59915,2.59915,0,0,1,.3277-.7227,2.329,2.329,0,0,1,.7465-.7217,2.14837,2.14837,0,0,1,.4512-.2016,2.63015,2.63015,0,0,1,.6065-.1333,19.03659,19.03659,0,0,1,2.0122.0801,1.93427,1.93427,0,0,0,1.0488-.2344,1.51978,1.51978,0,0,1,.022.3857,1.21088,1.21088,0,0,1-.2959.7051.90126.90126,0,0,1-.6011.3594.70809.70809,0,0,1-.502-.2031l-.0688-.0708-.1484.1323C183.1558,129.6323,183.3657,129.8496,183.4038,129.8896Zm-.6186.4375a1.96286,1.96286,0,0,1,.3178.5528h-2.8589a2.19532,2.19532,0,0,1,.1255-.5528Zm-2.3228-.1972a2.044,2.044,0,0,1,.3516-.4468,1.13369,1.13369,0,0,1,.1455-.1069h.978l.0269.0234c.0918.0816.2309.2031.5.4033a1.7971,1.7971,0,0,1,.1425.127Zm-.1289,1.6982h.7661a1.21455,1.21455,0,0,0-.5776.5049A4.02439,4.02439,0,0,1,180.3335,131.8281Zm1.8916.4824a1.05882,1.05882,0,0,1,.207.0616l.0225.0088h-.8203A1.01645,1.01645,0,0,1,182.2251,132.3105Zm-2.6025-2.7343a2.81235,2.81235,0,0,0-.2378.5537h-.2564c.0254-.1655.0606-.3662.1065-.5537Zm-.3321-.1973c.0078-.0254.0157-.0493.0235-.0723.0175-.0478.0454-.1171.0805-.2041.0318-.0781.0699-.1728.1099-.2768h.7568a2.544,2.544,0,0,0-.5151.5532Zm.0401.9482a3.59889,3.59889,0,0,0-.0899.5528h-.5552c.023-.1074.0411-.2085.0552-.3076l.3203.1181.0127-.1284c0-.0015.0088-.0952.0264-.2349Zm-.1026.7505a3.12256,3.12256,0,0,0,.0362.5528h-.7657c.0191-.0782.0406-.1607.0625-.2466.0254-.0933.0528-.1968.0796-.3062Zm.0723.7505a4.03112,4.03112,0,0,0,.1621.5528h-.9805a1.50923,1.50923,0,0,1-.0312-.5005.35235.35235,0,0,1,.0078-.0523Zm-.627,1.084a1.97746,1.97746,0,0,1-.1381-.333h1.0053c.0723.1758.1582.3579.2598.5518h-2.3584a1.228,1.228,0,0,1,.0557-.1963,1.61862,1.61862,0,0,0,1.1259.1172l.1016-.043Zm1.2334.417c.0933.166.2325.4014.3238.5527h-2.8379l-.0039-.0039a3.97253,3.97253,0,0,1,.0229-.5488Zm.4434.7505c.043.0723.0869.145.1299.2183a1.65319,1.65319,0,0,0-.3433-.0616,1.57578,1.57578,0,0,0-1.1557.396h-1.0606a2.32793,2.32793,0,0,0-.3408-.5527Zm-1.5586.7505a1.5572,1.5572,0,0,0-.2856.5517l-.0005.001h-.2969c-.0327-.1059-.0654-.2021-.0996-.292-.0332-.0859-.0679-.1748-.1035-.2607Zm.9194.2773a1.38819,1.38819,0,0,1,.7422.2754h-1.6679A1.38951,1.38951,0,0,1,179.7109,135.1074Zm-1.2622.4727-.041.1435.1533-.1435h2.1045a1.374,1.374,0,0,1,.294.5537h-2.5811c-.0215-.1362-.0596-.335-.1152-.5537Zm2.5489.751a1.32265,1.32265,0,0,1,.0087.1357,1.24634,1.24634,0,0,1-.27.417h-1.5678a5.86487,5.86487,0,0,0-.6568-.5527Zm-.5166.7504a1.04726,1.04726,0,0,1-.1973.0884,1.18753,1.18753,0,0,1-.9043-.063l-.0225-.0254Zm4.2353-8.9926c-.0029.0019-.2168.2719-.9546.2719a19.70816,19.70816,0,0,0-2.0859-.0825,2.703,2.703,0,0,0-.6577.1416,2.23043,2.23043,0,0,0-.4668.2085h-.9727c.0693-.1919.127-.375.1758-.5532h4.9707Zm-4.2588,14.2465a2.8893,2.8893,0,0,0-.0664.3638,6.01579,6.01579,0,0,0-2.2388.189H173.355a2.47289,2.47289,0,0,1,.3774-.5528h3.188a1.996,1.996,0,0,0,.251.2994l.0864.084.065-.1001.185-.2833Zm-2.8208-.1977.3452-.5293a3.77557,3.77557,0,0,0,2.6299.2617c-.0303.0733-.0649.1631-.0981.2676Zm-3.6968,0a1.60905,1.60905,0,0,1,.3101-.2002l-.0493-.1875-.8955.0483c.0029-.0546.0058-.1274.0058-.2133h3.2237a3.67067,3.67067,0,0,0,.2583.5527Zm-.6328-.75a4.14906,4.14906,0,0,0-.0547-.5537h3.0616q.06734.29595.1523.5537Zm-.0937-.751a3.07055,3.07055,0,0,0-.1768-.5532h3.1416c.0269.1914.0576.3765.0928.5532Zm.332-.7505a6.51161,6.51161,0,0,0,1.416-.5532h1.1363c.0151.1885.0327.3735.0546.5532Zm1.7256-.7505a1.93446,1.93446,0,0,0,.3911-.3711,1.09831,1.09831,0,0,0,.1138-.1816h.2846c.0044.188.0118.3731.0235.5527Zm.7861-.7509h-.208a1.03659,1.03659,0,0,0-.0156-.5528h.2275C176.0571,137.9624,176.0542,138.1533,176.0571,138.3848Zm.0108-.75h-.3081a2.20378,2.20378,0,0,0-.3716-.5533h.4751a2.57112,2.57112,0,0,1,.2051.5372Zm-.8741-.751c-.0727-.0664-.122-.105-.124-.1074l-.0249-.0196-.0307-.0019a9.02923,9.02923,0,0,0-1.7681.1289H170.436c.0772-.0684.1514-.1377.2227-.209l.082-.0815-.3633-.2622h4.919a2.40376,2.40376,0,0,1,.457.5527Zm-6.7851-.3877c.0659-.0566.1675-.1357.2104-.169l.2027.4297.1787-.0835-.2178-.4648c.0596-.0405.1231-.0801.1885-.1187l.2607.2413.1338-.1456-.2119-.1962c.0791-.0411.1621-.0811.2471-.1187l1.0342.7461q-.15675.14865-.3301.2886a5.6225,5.6225,0,0,1-1.211.7363,5.19537,5.19537,0,0,1-.9267.3213l-.0283-.9102a2.29338,2.29338,0,0,1,.2812-.372l.0088.1689.1982-.0117Zm1.791.5854h2.1309a7.809,7.809,0,0,0-1.4727.5533H169.354A5.72892,5.72892,0,0,0,170.1997,137.0815Zm-.0957-.9477-.4888-.3545a5.749,5.749,0,0,1,.5703-.1904l.0259-.0088h3.8574c.2686.165.5269.3125.7691.4345a2.23759,2.23759,0,0,1,.2031.1192Zm.6641-.751a4.641,4.641,0,0,0,.7881-.4326h.0048a4.62807,4.62807,0,0,0,.9566-.1201h.4551c.1948.144.4848.353.7871.5527Zm4.4023-10.31-.0303.1347-1.3242.3477s.0005.0312.002.0713h-3.6441l.9146-.5537Zm-3.7549-.1973.9146-.5532h4.0259l-.0728.3149-1.0249.0557-.042.1826Zm2.418.9482a1.47813,1.47813,0,0,0,.1914.5533h-1.0303a.90671.90671,0,0,0-.7099,0h-3.3526l.9151-.5533Zm2.4922,1.5015a.41667.41667,0,0,1-.1089.1865c-.1587.1612-.5493.3526-1.5112.3526h-.0577l-.0073.0136h-.5884c.126-.0547.5142-.2046.5176-.206l.0489-.0186.0117-.0503a.14457.14457,0,0,0-.0288-.123c-.0567-.0718-.17-.104-.3575-.104a5.44423,5.44423,0,0,0-.5742.0478,6.74646,6.74646,0,0,1-.7075.0562.69293.69293,0,0,1-.2925-.0332.45423.45423,0,0,1-.1665-.1216h2.042l.0303.126.083-.126Zm-1.5244-.1982a1.51595,1.51595,0,0,1,.7788-.5547.6585.6585,0,0,1,.1172-.0118.36206.36206,0,0,1,.0796.0103.8449.8449,0,0,1,.5459.5562Zm-2.5645.1347a.65875.65875,0,0,0,.3545.3667.83359.83359,0,0,0,.3711.0493,6.84764,6.84764,0,0,0,.731-.0576,5.45419,5.45419,0,0,1,.5507-.0478l.0347.0009c-.1172.0459-.2495.0987-.312.126-.0313.0132-.0698.0313-.1147.0518-.084.0381-.1875.0859-.3028.1338a2.11262,2.11262,0,0,1-.7314.2002,1.16511,1.16511,0,0,1-.6367-.1895.764.764,0,0,1-.3213-.668.708.708,0,0,1,.4629-.6533h.0429a.65087.65087,0,0,0-.1289.6875Zm.1651-.1347a.43967.43967,0,0,1-.0137-.107.46083.46083,0,0,1,.3437-.4458h1.4517a.89257.89257,0,0,0,.2212.1563l.0937.3965Zm-.4483-.5528a.85858.85858,0,0,0-.2851.5528h-2.1778a3.137,3.137,0,0,1-.584-.5528Zm-2.3677.751h2.0806a1.00353,1.00353,0,0,0,.209.5527h-2.8779A1.65677,1.65677,0,0,0,169.5859,127.3252Zm2.5093.75a1.36624,1.36624,0,0,0,.7227.208,2.2185,2.2185,0,0,0,.7881-.208h.916c-.1626.249-.3594.46-.4824.4473l-.0225.1059h-4.8115a6.02745,6.02745,0,0,1-.5938-.5532Zm2.4981.7505a3.53542,3.53542,0,0,0,.5839,0h.5352a3.22128,3.22128,0,0,1-1.1221.5532h-4.2529a6.4938,6.4938,0,0,1-.8784-.5532Zm-1.9151.7505a3.73063,3.73063,0,0,0-1.0049.3037,5.46963,5.46963,0,0,1-.9209-.3037Zm3.7227-5.4512h-3.7442l.9151-.5527h2.8833l.0058.2954Zm-9.0313,4.0566.1563.0342-.0391-.1543c-.0234-.0971-.0898-.332-.1509-.5459a2.00956,2.00956,0,0,0,.5113.3472l.122.0522.0152-.1318c.021-.1807.0781-.4849.1147-.6719a1.44456,1.44456,0,0,1,.3306.8159l.0024.045-.0332.0717a1.09121,1.09121,0,0,1-.6445.5889,1.74713,1.74713,0,0,1-.938.0254l-.0542-.0156-.0356-.1094a6.60476,6.60476,0,0,1-.1285-.708A2.06889,2.06889,0,0,0,167.3696,128.1816Zm2.5108,5.1475c0,.0283-.001.0566-.001.084v.0146c-.0264.0196-.0532.0386-.0791.0577a6.8588,6.8588,0,0,1-.585.3964h-.1352l-.1187-.4038-.1894-.0278.0058-.1211Zm-1.0928-.1982.0273-.5518h1.1402a5.46655,5.46655,0,0,0-.0664.5518Zm-1.0103,5.0717.1114-.018a5.138,5.138,0,0,0,1.0625-.3526h1.541a6.07626,6.07626,0,0,0-.8003.5528h-2.4004c.0928-.0728.1572-.1192.1572-.1192l.0332-.4336h.2837Zm-.5195-.0415c-.0542.0401-.1645.1255-.3061.2466a7.1134,7.1134,0,0,0-.7329.728h-.0562l-.0532-.5048-.461.0791,1.0562-1.127.6133-.1894Zm-.2056.4219h2.4102c-.0503.0449-.0977.0903-.1445.1358a1.90054,1.90054,0,0,0-1.2061.4169h-1.6294A6.56306,6.56306,0,0,1,167.0522,138.583Zm6.1124,4.6231.06-.0088.0195-.0572s.0074-.021.021-.0542h4.3037l.4932.5088-.0732.044h-6.5025A9.27665,9.27665,0,0,1,173.1646,143.2061Zm7.7792-3.1226h1.4053a3.63775,3.63775,0,0,0-.4956.269A4.2979,4.2979,0,0,0,180.9438,140.0835Zm-1.7167,4.5034h2.7988q-.27255.2871-.5586.5527h-3.6216l.1831-.081C178.0332,145.0557,178.5376,144.8311,179.2271,144.5869Zm.5917-.1982a7.55235,7.55235,0,0,1,2.4258-.4287l.1143.0068-.0093-.1133-.0015-.0166h.336q-.23145.28425-.4751.5518Zm2.5176-.75c-.0068-.1407-.0161-.3286-.0205-.5528h.9346c-.1328.1885-.2686.3731-.4092.5528Zm-.0219-.7505c-.0005-.189.0034-.3745.0092-.5528h1.42q-.173.282-.357.5528Zm.018-.7505c.0098-.1929.0254-.3784.0445-.5527h1.7983c-.1011.1875-.2051.3715-.3135.5527Zm-2.2334-3.7529c-.0166-.0533-.0342-.1079-.0527-.1626a2.1617,2.1617,0,0,0,.5576-.1075,2.22773,2.22773,0,0,0,.5576-.2827h4.4688c-.0479.1856-.0977.3706-.1519.5528Zm1.3047-.75a2.21387,2.21387,0,0,0,.4199-.5533h3.9829q-.05925.2784-.1269.5533Zm.5161-.751a2.41142,2.41142,0,0,0,.1602-.5527h3.8691c-.0312.1855-.0649.3701-.102.5527Zm-.8823-3.7529.001-.001a.99541.99541,0,0,1,.2998-.5508h4.8594c.0068.1826.0097.3672.0107.5518Zm1.6318-.75-.1206-.1607a1.212,1.212,0,0,0-.5034-.3921h4.1128c.0137.1831.0239.3682.0327.5528Zm-2.3867-.7505a2.20853,2.20853,0,0,1-.0542-.5528h2.9317a1.46379,1.46379,0,0,1,.0336.2427l.0093.1768.146-.1006a1.16615,1.16615,0,0,0,.2988-.3189h2.44q.0315.27465.0547.5528Zm3.4653-.7505a1.04481,1.04481,0,0,0,.0552-.5528h2.1836q.0432.27405.0777.5528Zm.0044-.75a1.55907,1.55907,0,0,0-.0747-.1773.77408.77408,0,0,0,.2046.0171,1.01276,1.01276,0,0,0,.71-.3935h1.2617c.0366.1831.0703.3672.1016.5537Zm.9873-.751a1.39981,1.39981,0,0,0,.2139-.5532h.7359q.0666.27465.125.5532Zm.2305-.7505a1.10022,1.10022,0,0,0-.0869-.5288l-.0127-.0244h.6191q.0792.2739.1504.5532Zm-5.167-.7505a4.42871,4.42871,0,0,0,.0938-.5527h5.3554q.09375.27315.1788.5527Zm.187-3.7529.0083-.0142-.2343-.5385h3.6406q.18315.27015.3564.5527Zm-.312-.7505-.208-.4814-1.3476.2651-.1309.2163h-.9155l-.6348-.4502.0093.4502h-2.5523l.9146-.5527h8.0464q.21015.26955.4087.5527Zm-9.8252.9478-.8525.5532h-1.3506c-.1172-.2461-.2334-.522-.2334-.522l-.0859.0269a1.4653,1.4653,0,0,0-.7681.4951h-.7368q.1509-.28125.311-.5532Zm-3.4062.7505a.64879.64879,0,0,0-.0449.1416l-.0132.0805.0776.0274a1.48561,1.48561,0,0,1,.4043.2695.39945.39945,0,0,0-.1924.0347h-1.2295c.0879-.187.1783-.3721.2725-.5537Zm.04.7509a.696.696,0,0,0-.0517.1778.56961.56961,0,0,0-.4141.0927.63446.63446,0,0,0-.2246.2828h-.6777c.0766-.1875.1562-.3711.2387-.5533Zm-.7558.7505c-.0059.0239-.0103.0474-.0137.0669a.62894.62894,0,0,0-.2525.1309.66219.66219,0,0,0-.2251.355h-.4077c.0664-.1861.1353-.3711.2076-.5528Zm-.5059.751a.81643.81643,0,0,0,.1123.3301c.0303.0508.0649.1006.1016.1509a.5713.5713,0,0,0-.3731.0717h-.4805q.085-.27975.1783-.5527Zm-.3677.75a.57807.57807,0,0,0-.0903.3555.55654.55654,0,0,0,.0532.1977h-.4438q.0717-.279.1504-.5532Zm.1138.7505a.58282.58282,0,0,0,.4287.1421.57448.57448,0,0,0,.335-.1421h.9702c.0346.1328.0942.3179.1772.5532h-2.6806c.039-.186.0815-.3701.1259-.5532Zm1.9824.7505c.0606.167.1309.3515.209.5537H164.061c.0308-.1865.0645-.3706.1006-.5537Zm.2866.7509c.1001.2549.1851.4639.2222.5528h-3.5112q.0351-.2784.0781-.5528Zm.3042.7505.0059.0162.0107-.0162h.9512c.1846.2095.3535.3882.5254.5528h-5.1641q.02355-.2784.0547-.5528Zm1.708.7505c.2066.1831.4297.3623.6905.5528h-1.2237l-.2309-.4317-.3111.3823-.3164-.31-.1523.3574-.3242-.2139-.0401.2159h-.309l-.0972-.0669-.0088.0669h-2.4316v.1982h2.3945l-.0352.1885-.3789-.1431-.0888.4614-.4336-.1665-.0205.2115h-.3531l-.0078-.0039-.0005.0039h-1.0761v.1982h1.0625l-.0332.4619.1044.0908h-1.1337v.1978h1.3618l.6391.5527h-2.6377c-.0351-.4663-.0542-.935-.0542-1.4077q0-.7068.0513-1.3965Zm-2.5258,3.002.0014.001a1.48963,1.48963,0,0,0-.1826.1826l-.0371.0478.146.3213h-2.7231c-.0215-.1826-.0391-.3677-.0547-.5527Zm.2856.75-.3564.3398.1572.2139h-2.7793c-.0283-.1836-.0547-.3682-.0781-.5537Zm-.0537.751.0962.1308c.022-.0146.1128-.0713.207-.1308h.1587l-.1763.3012.2115.2515h-3.2871q-.0558-.27465-.1021-.5527Zm.6641.7504.0922.1094.0318.0376.0127.4063h-.2617l.0395-.5161-.9409.289-.2119.2271h-2.0498c-.044-.1836-.0869-.3677-.126-.5533Zm-1.4229.7505-.5181.5528h-1.146c-.0532-.1827-.1044-.3672-.1513-.5528Zm-.7031.751-.3945.4209.833-.1416.0293.2734H164.772c-.0625-.1826-.1211-.3671-.1778-.5527Zm.4883.75.04.376s.1973-.2627.2861-.376h1.6114l-.0362.042.1299.0522a9.99686,9.99686,0,0,1,.958.459h-3.9248c-.0713-.1821-.1416-.3667-.2075-.5532Zm3.3369.7505a7.81662,7.81662,0,0,1,.8164.5532h-4.771q-.12375-.27315-.2383-.5532Zm1.0556.7505a3.85453,3.85453,0,0,1,.5303.5537h-5.1772c-.0938-.1826-.1841-.3667-.272-.5537Zm.6661.751c.04.0634.0756.1269.1074.1899a5.08673,5.08673,0,0,0-2.0279.3628h-2.9765c-.1074-.1812-.2105-.3662-.3111-.5527Zm-2.3956.7504c-.1191.0542-.2363.1119-.3544.1739l-.2061.1074.8184.2715h-2.2832c-.1231-.1802-.2417-.3653-.3565-.5528Zm.1685.7505-.4883.5528H167.168q-.21106-.2703-.4102-.5528Zm.6431.751-.0537.5518h-1.6065q-.2439-.268-.4756-.5518Zm9.5967,3.001a9.23353,9.23353,0,0,1-1.5596.624v-.624Zm-1.5596,5.2803v-3.4248h6.6035A13.97174,13.97174,0,0,1,177.4966,152.1182Zm9.1719-6.3492a17.57087,17.57087,0,0,1-2.2832,2.6617h-6.8887v-.6944a11.51745,11.51745,0,0,0,6.3906-5.1064,17.81736,17.81736,0,0,0,2.5869-9.4053c0-8.1973-5.144-14.8657-11.4663-14.8657-6.3218,0-11.4643,6.6684-11.4643,14.8657a16.67671,16.67671,0,0,0,4.6967,11.9942l-.8481,1.0039a4.48286,4.48286,0,0,0-1.1914-.3365l-.1826-.0258.0332.1796a5.11576,5.11576,0,0,0,.3925,1.3047l-.8696,1.0283a20.90853,20.90853,0,0,1-6.0039-15.1484c0-10.5566,6.9253-19.145,15.4375-19.145,8.5132,0,15.4375,8.5884,15.4375,19.145A22.00058,22.00058,0,0,1,186.6685,145.769Z" transform="translate(-158 -95.7656)"/><path class="cls-2" d="M164.7852,145.7163l-.2203.1543-1.0976-1.5688.2202-.1553.4585.6538,1.7388-1.2168.1831.2617-1.7393,1.2168Z" transform="translate(-158 -95.7656)"/><path class="cls-2" d="M164.4409,140.9995l-1.5732,1.3652.0029.0059,2.0498-.375.1455.2983-1.8877,1.5923-.1416-.2929,1.5884-1.2871-.0034-.0074-2.0254.3824-.1494-.3106,1.5615-1.3418-.0029-.0059-2.003.4278-.1386-.2871,2.4316-.4629Z" transform="translate(-158 -95.7656)"/><path class="cls-2" d="M161.1587,138.8823l.2554-.0801.395,1.274.728-.2251-.3686-1.1875.2558-.0801.3682,1.188.7915-.2446-.398-1.2837.2559-.0796.4932,1.5884-2.2862.7099Z" transform="translate(-158 -95.7656)"/><path class="cls-2" d="M160.6792,136.5464l.2637-.0493.2509,1.3091.7461-.1426-.2334-1.2207.2637-.0508.2344,1.2207.8125-.1548-.2539-1.3198.2646-.0508.3125,1.6328-2.3501.4512Z" transform="translate(-158 -95.7656)"/><path class="cls-2" d="M160.5181,134.9956a1.19,1.19,0,0,1,.2177-.8696,1.1278,1.1278,0,0,1,.833-.3623,1.96224,1.96224,0,0,1,.5386.0268.99323.99323,0,0,1,.4063.1778.89531.89531,0,0,1,.2695.3398,1.41736,1.41736,0,0,1,.1216.5078l.062.8184-2.3872.1797Zm2.1172-.1855a1.22438,1.22438,0,0,0-.0181-.1333.69977.69977,0,0,0-.0532-.1675.76769.76769,0,0,0-.105-.1719.59606.59606,0,0,0-.1758-.1465.91493.91493,0,0,0-.2671-.0957,1.39531,1.39531,0,0,0-.3794-.0176,1.71957,1.71957,0,0,0-.3794.0703.76628.76628,0,0,0-.2783.1587.60069.60069,0,0,0-.1611.2593.96128.96128,0,0,0-.0342.3765l.0405.5337,1.8501-.1387Z" transform="translate(-158 -95.7656)"/><path class="cls-2" d="M160.4946,131.4683l.2676.0097-.0474,1.334.7603.0274.0459-1.2437.2666.0107-.0439,1.2427.8266.0293.0484-1.3437.268.0097-.06,1.6602-2.3916-.0855Z" transform="translate(-158 -95.7656)"/><path class="cls-2" d="M160.8081,129.1167l1.167.2437-.9189-1.4312.0844-.4038.7383,1.185,1.6118-.7358-.0825.3945-1.3608.5992.2822.4663.8203.1718-.0654.3096-2.3418-.4883Z" transform="translate(-158 -95.7656)"/><path class="cls-2" d="M161.646,125.9507l2.5674-.1172-.1133.3325-.7661.0181-.3247.958.5962.4849-.104.3081-1.9683-1.6519Zm1.4028.2422-1.187.0185-.0024.0069.9282.7431Z" transform="translate(-158 -95.7656)"/><path class="cls-2" d="M162.4028,124.0522l2.1338.253-1.4409-1.5962.1997-.3867,2.127,1.0976-.1387.2681-1.7695-.9141-.0025.0069,1.4273,1.5766-.125.2417-2.1128-.2495-.0025.0064,1.7696.913-.1382.2681-2.1275-1.0976Z" transform="translate(-158 -95.7656)"/><path class="cls-2" d="M164.8315,120.1704l.2139.1597-.7939,1.0703.6118.4556.7407-.9991.2144.1592-.7403.9976.6656.4946.8007-1.0781.2139.1592-.9902,1.3339-1.9219-1.4257Z" transform="translate(-158 -95.7656)"/><path class="cls-2" d="M166.1973,118.7422a.78083.78083,0,0,1,.4995-.2525.57553.57553,0,0,1,.459.1954.72791.72791,0,0,1,.1958.3427.51194.51194,0,0,1-.0699.3819l.0049.0049a.4146.4146,0,0,1,.168-.0704.37879.37879,0,0,1,.1523.0079.50723.50723,0,0,1,.1426.0654,1.47742,1.47742,0,0,1,.1367.1001c.043.0376.0879.0781.1309.1196a1.31465,1.31465,0,0,0,.1357.1152,1.00329,1.00329,0,0,0,.1426.0918.40213.40213,0,0,0,.1514.0479l-.2549.2471a.20224.20224,0,0,1-.1021-.0401,1.06732,1.06732,0,0,1-.1108-.0913c-.0376-.0366-.0786-.0757-.1221-.1167a1.297,1.297,0,0,0-.1377-.1133c-.0473-.0351-.0942-.0669-.1396-.0957a.39676.39676,0,0,0-.1421-.0537.31367.31367,0,0,0-.146.0122.41185.41185,0,0,0-.1587.1055l-.5571.541.7119.7329-.229.2227-1.6675-1.7168Zm.8061.7324a.46267.46267,0,0,0,.0801-.1694.36646.36646,0,0,0-.0049-.1778.45073.45073,0,0,0-.1162-.184.435.435,0,0,0-.2788-.1421.4133.4133,0,0,0-.312.144l-.5654.5503.583.6001.4746-.4624A1.27062,1.27062,0,0,0,167.0034,119.4746Z" transform="translate(-158 -95.7656)"/><path class="cls-2" d="M169.4233,116.4468a1.19271,1.19271,0,0,1,.8868-.1319,1.12582,1.12582,0,0,1,.6523.6324,1.92125,1.92125,0,0,1,.1802.5078.98109.98109,0,0,1-.0093.4438.8938.8938,0,0,1-.2109.3784,1.4291,1.4291,0,0,1-.4229.3067l-.7339.3696-1.0757-2.1377Zm.9795,1.8857a1.07871,1.07871,0,0,0,.1162-.0674.76015.76015,0,0,0,.1348-.1128.81015.81015,0,0,0,.1177-.1626.59906.59906,0,0,0,.0688-.2187.96068.96068,0,0,0-.0136-.2842,1.37307,1.37307,0,0,0-.1294-.3574,1.59537,1.59537,0,0,0-.2105-.3242.71372.71372,0,0,0-.2519-.1953.60059.60059,0,0,0-.3013-.0513.98682.98682,0,0,0-.3599.1113l-.4785.2417.8345,1.6592Z" transform="translate(-158 -95.7656)"/><path class="cls-2" d="M173.0073,115.2153l.0635.2598-1.2959.3184.1826.7397,1.208-.2964.063.2598-1.2075.2969.1963.8042,1.3066-.3204.0635.2593-1.6147.3965-.5704-2.3232Z" transform="translate(-158 -95.7656)"/><path class="cls-2" d="M175.1235,115.0786a.792.792,0,0,1,.5381.1563.57638.57638,0,0,1,.2012.4546.71983.71983,0,0,1-.0908.3828.50706.50706,0,0,1-.3111.2309v.0073a.43039.43039,0,0,1,.17.063.36186.36186,0,0,1,.1059.1104.50178.50178,0,0,1,.0606.145,1.44694,1.44694,0,0,1,.0322.1665c.0049.0581.0102.1172.0127.1777.0039.0601.0117.1192.021.1773a1.21632,1.21632,0,0,0,.0415.1645.43046.43046,0,0,0,.0791.1382l-.355.0073a.19816.19816,0,0,1-.0469-.0996.84784.84784,0,0,1-.018-.142c-.0039-.0528-.0069-.1089-.0108-.1695a1.2319,1.2319,0,0,0-.0239-.1767,1.49134,1.49134,0,0,0-.0371-.1656.37419.37419,0,0,0-.0664-.1362.32.32,0,0,0-.1157-.0918.43834.43834,0,0,0-.1885-.0312l-.7764.0166.0205,1.0219-.3169.0074-.0503-2.3916Zm.0899,1.083a.47589.47589,0,0,0,.1748-.0693.35652.35652,0,0,0,.1172-.1333.49608.49608,0,0,0-.0655-.5054.41422.41422,0,0,0-.3281-.1064l-.79.0166.0166.832.664-.0137A1.25906,1.25906,0,0,0,175.2134,116.1616Z" transform="translate(-158 -95.7656)"/><path class="cls-2" d="M179.4165,116.2734a.67915.67915,0,0,0-.3418-.25.95852.95852,0,0,0-.1924-.0503.534.534,0,0,0-.1855.0035.35445.35445,0,0,0-.1563.0756.3951.3951,0,0,0-.1108.168.24706.24706,0,0,0-.0005.1904.49341.49341,0,0,0,.124.1661,1.48627,1.48627,0,0,0,.2066.1533c.0786.0493.1601.1015.2407.1548.082.0542.1597.1113.2358.1714a.901.901,0,0,1,.188.1997.58928.58928,0,0,1,.0967.2426.68823.68823,0,0,1-.2344.5762.70162.70162,0,0,1-.2827.1304.93825.93825,0,0,1-.3247.0122,1.46971,1.46971,0,0,1-.6621-.2569.95185.95185,0,0,1-.2422-.2519.71215.71215,0,0,1-.1108-.3198.83039.83039,0,0,1,.0566-.3804l.2832.1045a.5193.5193,0,0,0,.0464.4853.63321.63321,0,0,0,.1738.1748,1.03405,1.03405,0,0,0,.2334.1221,1.1559,1.1559,0,0,0,.209.0562.65179.65179,0,0,0,.208.0039.38979.38979,0,0,0,.1782-.0757.394.394,0,0,0,.1245-.1821.29883.29883,0,0,0,.0079-.211.47185.47185,0,0,0-.1192-.1782,1.26382,1.26382,0,0,0-.2041-.1597c-.0786-.0507-.1592-.103-.2412-.1557-.0815-.0528-.1611-.1079-.2363-.1665a1.02825,1.02825,0,0,1-.1929-.189.4951.4951,0,0,1-.0679-.5059.61922.61922,0,0,1,.4375-.4042.89534.89534,0,0,1,.3047-.0225,1.27919,1.27919,0,0,1,.3145.0713,1.32723,1.32723,0,0,1,.3056.1596.78173.78173,0,0,1,.211.2251.65759.65759,0,0,1,.0942.2867.85616.85616,0,0,1-.0469.3457l-.2832-.105A.49884.49884,0,0,0,179.4165,116.2734Z" transform="translate(-158 -95.7656)"/><path class="cls-2" d="M180.5552,116.7036l.1421-.229,1.6264,1.0078-.1416.229-.6782-.4204-1.1196,1.8062-.2705-.1675,1.1191-1.8062Z" transform="translate(-158 -95.7656)"/><path class="cls-2" d="M183.396,118.3809l-.8472,2.4243-.2671-.229.2691-.7163-.7676-.6582-.6714.372-.2471-.2119,2.2637-1.2095Zm-.7461,1.2094.4229-1.1059-.0049-.0044-1.0342.583Z" transform="translate(-158 -95.7656)"/><path class="cls-2" d="M183.9497,119.2271l.2002-.1763,1.2686,1.4331-.1993.1767-.5293-.5966-1.5908,1.4091-.2119-.2392,1.5913-1.4092Z" transform="translate(-158 -95.7656)"/><path class="cls-2" d="M186.728,122.4077l-.2236.1475-.7363-1.1133-.6338.4194.6855,1.0376-.2236.1475-.6846-1.0371-.6933.4575.7412,1.1211-.2227.147-.9165-1.3868,1.9956-1.3188Z" transform="translate(-158 -95.7656)"/><path class="cls-2" d="M187.2681,123.4106l-1.2139,1.9703.0029.0063,1.7539-.831.1289.2724-2.1621,1.0249-.1494-.3164,1.2002-1.9517-.0039-.0058-1.7349.8223-.1289-.2725,2.1626-1.0244Z" transform="translate(-158 -95.7656)"/><path class="cls-2" d="M187.3462,127.1567l-.2549.0835-.3037-.9194.2559-.0845Z" transform="translate(-158 -95.7656)"/><path class="cls-2" d="M186.8413,129.4629a1.10928,1.10928,0,0,1,.0166-1.2896,1.19792,1.19792,0,0,1,.332-.3003,1.33844,1.33844,0,0,1,.4268-.1679,1.68764,1.68764,0,0,1,.5024-.0318,1.21468,1.21468,0,0,1,.4488.1246,1.02361,1.02361,0,0,1,.3515.2895,1.11175,1.11175,0,0,1,.2056.4653,1.50721,1.50721,0,0,1,.0317.3687.93094.93094,0,0,1-.0761.3306.84993.84993,0,0,1-.1934.2749.97185.97185,0,0,1-.3262.1972l-.0664-.312a.651.651,0,0,0,.2139-.1338.554.554,0,0,0,.126-.1875.71547.71547,0,0,0,.0498-.2295.999.999,0,0,0-.0215-.2539.75209.75209,0,0,0-.1621-.3476.76369.76369,0,0,0-.2774-.2032,1.00147,1.00147,0,0,0-.3486-.0747,1.45091,1.45091,0,0,0-.375.0313,1.147,1.147,0,0,0-.3418.1269.94188.94188,0,0,0-.2666.2168.74819.74819,0,0,0-.1582.6568.842.842,0,0,0,.1279.3125.7183.7183,0,0,0,.2129.206.72789.72789,0,0,0,.2735.0938.8483.8483,0,0,0,.3095-.0196l-.1572-.749.2617-.0552.2163,1.0269-1.2348.2588-.0406-.1958.2749-.1441A.79089.79089,0,0,1,186.8413,129.4629Z" transform="translate(-158 -95.7656)"/><path class="cls-2" d="M189.5337,132.0757l-.2676.0234-.1162-1.3286-.7573.0664.1089,1.2383-.2686.0234-.1079-1.2382-.8223.0712.1172,1.3394-.269.0234-.1446-1.6562,2.3838-.209Z" transform="translate(-158 -95.7656)"/><path class="cls-2" d="M189.5508,133.1636l-1.9712,1.2109v.0059l1.9385.0508-.0069.3007-2.3916-.062.0088-.3481,1.9512-1.2012v-.0063l-1.918-.0503.0069-.3008,2.3916.062Z" transform="translate(-158 -95.7656)"/><path class="cls-2" d="M189.1987,137.2417l-.2656-.0371.1865-1.3208-.7549-.1069-.1738,1.2304-.2666-.0371.1748-1.2305-.8193-.1167-.188,1.3316-.2656-.0386.2324-1.645,2.3711.334Z" transform="translate(-158 -95.7656)"/><path class="cls-2" d="M188.7632,139.0723a.7916.7916,0,0,1-.2969.4741.58426.58426,0,0,1-.4951.0703.72317.72317,0,0,1-.3438-.1934.50287.50287,0,0,1-.1372-.3632l-.0073-.002a.39747.39747,0,0,1-.1079.1465.351.351,0,0,1-.1343.0723.523.523,0,0,1-.1562.018,1.451,1.451,0,0,1-.168-.0141c-.0586-.0103-.1157-.022-.1748-.0352a1.36993,1.36993,0,0,0-.1753-.0293,1.0545,1.0545,0,0,0-.1704-.0044.387.387,0,0,0-.1538.0376l.0913-.3437a.1905.1905,0,0,1,.1079-.0181,1.05664,1.05664,0,0,1,.1421.0205q.0762.0168.1641.0366a1.11143,1.11143,0,0,0,.1767.0254,1.35891,1.35891,0,0,0,.169.0098.37265.37265,0,0,0,.1489-.0259.3133.3133,0,0,0,.1196-.0874.41551.41551,0,0,0,.0816-.1719l.1977-.7519-.9873-.2598.0801-.3066,2.3154.6074Zm-1.0684-.2115a.47868.47868,0,0,0,.0181.1875.36356.36356,0,0,0,.0962.1504.50114.50114,0,0,0,.5058.0757.41549.41549,0,0,0,.1929-.2866l.2007-.7642-.8081-.2124-.168.6421A1.17837,1.17837,0,0,0,187.6948,138.8608Z" transform="translate(-158 -95.7656)"/><path class="cls-2" d="M187.936,141.4932l-2.5703-.0288.1319-.3262.7656.0273.3789-.9394-.5679-.5176.1216-.3013,1.8711,1.7583Zm-1.3867-.3203,1.1851.0473.0024-.0058-.8833-.795Z" transform="translate(-158 -95.7656)"/><path class="cls-2" d="M186.7988,143.7988l-2.5444-.3676.1738-.3067.7554.1289.5-.8808-.4937-.5879.1597-.2832,1.6216,1.9922Zm-1.3325-.5005,1.169.2037.0029-.0044-.7715-.9043Z" transform="translate(-158 -95.7656)"/><path class="cls-2" d="M185.7622,145.3882l-1.6885-1.2891-.769,1.0059-.2124-.1621.9624-1.2598,1.9004,1.4512Z" transform="translate(-158 -95.7656)"/><path class="cls-3" d="M220.46239,132.0776V152.459h-2.9399V132.0776h-7.042v-2.6728h16.9941v2.6728Z" transform="translate(-158 -95.7656)"/><path class="cls-3" d="M244.76169,152.459h-3.06l-3.4795-11.6997h-.0601L234.832,152.459h-3.23971a137.05683,137.05683,0,0,1-4.5899-15.2998h2.94c.9297,4.23,2.09961,8.4897,3.3598,12.3896h.0601l3.5098-12.3896H239.812l3.59959,12.3896h.0601c1.23-3.9599,2.4599-8.2495,3.3598-12.3896h2.73A149.84245,149.84245,0,0,1,244.76169,152.459Z" transform="translate(-158 -95.7656)"/><path class="cls-3" d="M265.73189,145.2891h-10.4995c0,3.2402,1.1699,5.2793,4.7998,5.2793a17.93418,17.93418,0,0,0,4.9497-.6895l.33011,2.1299a20.69869,20.69869,0,0,1-5.75981.8096c-4.9497,0-7.29-2.6397-7.29-7.9195,0-4.9194,2.5801-8.0996,7.23-8.0996,4.2895,0,6.2695,2.9097,6.2695,6.8999C265.76169,144.0293,265.73189,144.749,265.73189,145.2891Zm-6.41989-6.3599a4.14906,4.14906,0,0,0-4.07961,4.3501h7.7095C263.03169,140.6392,261.71189,138.9292,259.312,138.9292Z" transform="translate(-158 -95.7656)"/><path class="cls-3" d="M282.86179,145.2891h-10.4995c0,3.2402,1.1699,5.2793,4.7998,5.2793a17.93415,17.93415,0,0,0,4.9497-.6895l.3301,2.1299a20.69856,20.69856,0,0,1-5.7598.8096c-4.9497,0-7.29-2.6397-7.29-7.9195,0-4.9194,2.5801-8.0996,7.23-8.0996,4.2895,0,6.2695,2.9097,6.2695,6.8999C282.89159,144.0293,282.86179,144.749,282.86179,145.2891Zm-6.4199-6.3599a4.14905,4.14905,0,0,0-4.0796,4.3501h7.7095C280.16159,140.6392,278.84179,138.9292,276.44189,138.9292Z" transform="translate(-158 -95.7656)"/><path class="cls-3" d="M298.34179,152.459l-.27-2.2803a6.96739,6.96739,0,0,1-5.54979,2.6397c-4.16991,0-6-3.3301-6-7.4395,0-4.5898,2.37009-8.4297,7.73969-8.4297a16.3238,16.3238,0,0,1,3.4199.3604v-7.9063H300.502V152.459Zm-.6602-12.5996a8.76647,8.76647,0,0,0-3.4799-.69c-3.11969,0-4.67969,2.19-4.67969,5.9395,0,2.7602.87009,5.3999,3.54,5.3999,1.67969,0,3.02979-.8399,4.61959-2.7295Z" transform="translate(-158 -95.7656)"/><path class="cls-3" d="M318.47069,145.2891h-10.499c0,3.2402,1.1699,5.2793,4.7998,5.2793a17.92279,17.92279,0,0,0,4.9492-.6895l.3301,2.1299a20.69307,20.69307,0,0,1-5.75979.8096c-4.94921,0-7.289-2.6397-7.289-7.9195,0-4.9194,2.58-8.0996,7.22939-8.0996,4.2901,0,6.27061,2.9097,6.27061,6.8999C318.502,144.0293,318.47069,144.749,318.47069,145.2891Zm-6.4189-6.3599a4.15012,4.15012,0,0,0-4.0801,4.3501h7.7099C315.77149,140.6392,314.45119,138.9292,312.05179,138.9292Z" transform="translate(-158 -95.7656)"/><path class="cls-3" d="M330.54689,152.459h-2.9405V129.4033h2.9405Zm.3779-12.0039,8.5303-11.0518h3.9004l-9.041,10.9888L343.415,152.459h-3.80951Z" transform="translate(-158 -95.7656)"/><path class="cls-3" d="M354.89649,152.459l-.2402-1.5606a6.85341,6.85341,0,0,1-4.92,1.92c-3.1797,0-5.1601-1.5899-5.1601-4.5293,0-3.2998,2.8496-4.7701,7.1406-4.7701h2.5488v-.9897c0-2.3701-.8398-3.5098-3.5693-3.5098a13.14162,13.14162,0,0,0-4.4404.8697l-.5391-2.1597a16.46573,16.46573,0,0,1,5.459-.9302c4.3808,0,5.8808,2.2798,5.8808,5.19V152.459Zm-.6309-6.96h-2.5488c-2.8506,0-4.2012.9297-4.2012,2.6397,0,1.5605.9307,2.5195,2.7608,2.5195a5.79544,5.79544,0,0,0,3.9892-1.7393Z" transform="translate(-158 -95.7656)"/><path class="cls-3" d="M381.64259,152.459v-9c0-2.5801-.3613-4.3198-2.64059-4.3198-1.85941,0-2.69931.8999-4.14071,2.58V152.459H372.043v-9c0-2.5801-.36141-4.3198-2.61141-4.3198-1.88859,0-2.6992.8999-4.13859,2.58V152.459h-2.82031V137.1592h2.1601l.3594,2.25c1.4707-1.7696,2.75981-2.6099,4.9502-2.6099,2.30961,0,3.749.8999,4.4404,2.8501,1.5899-2.0098,2.9395-2.8501,5.15921-2.8501,3.89939,0,4.91889,2.6699,4.91889,6.0899v9.5698Z" transform="translate(-158 -95.7656)"/><path class="cls-3" d="M402.34179,145.2891h-10.5c0,3.2402,1.1699,5.2793,4.8008,5.2793a17.92829,17.92829,0,0,0,4.9492-.6895l.3301,2.1299a20.6986,20.6986,0,0,1-5.7598.8096c-4.9492,0-7.28909-2.6397-7.28909-7.9195,0-4.9194,2.58009-8.0996,7.22859-8.0996,4.291,0,6.2705,2.9097,6.2705,6.8999C402.37209,144.0293,402.34179,144.749,402.34179,145.2891Zm-6.4199-6.3599a4.1507,4.1507,0,0,0-4.0801,4.3501h7.7109C399.64259,140.6392,398.32229,138.9292,395.92189,138.9292Z" transform="translate(-158 -95.7656)"/><path class="cls-3" d="M415.15229,139.709a6.54993,6.54993,0,0,0-1.6201-.2695c-1.0498,0-1.9795.9599-3.75,3.1796v9.8399h-2.8193V137.1592h2.1894l.3008,2.8203c1.6485-2.1904,2.6387-3.1802,4.169-3.1802a5.90507,5.90507,0,0,1,1.9502.27Z" transform="translate(-158 -95.7656)"/><path class="cls-2" d="M220.04789,172.3018h-2.522v-7.6182H220.23a3.42643,3.42643,0,0,1,3.71819,3.7051A3.56207,3.56207,0,0,1,220.04789,172.3018Zm.039-6.5909h-1.2998v5.5645H220.061c1.67729,0,2.56109-.8975,2.56109-2.8223C222.62209,166.8936,221.84229,165.7109,220.08689,165.7109Z" transform="translate(-158 -95.7656)"/><path class="cls-2" d="M229.915,172.3018v-7.6182h4.30329v1.0137h-3.042v2.1582h2.6391v1.0009h-2.6391v2.419H234.27v1.0264Z" transform="translate(-158 -95.7656)"/><path class="cls-2" d="M244.38429,172.3018,242.603,169h-.80611v3.3018h-1.2613v-7.6182h2.2623c1.70311,0,2.6132.7793,2.6132,2.0664a2.11393,2.11393,0,0,1-1.521,2.0547l2.02791,3.4971Zm-1.7422-6.6172h-.8452v2.3398h.832c1.0142,0,1.4429-.5322,1.4429-1.1699C244.07179,166.2441,243.72119,165.6846,242.64209,165.6846Z" transform="translate(-158 -95.7656)"/><path class="cls-2" d="M258.29349,172.4316a5.88453,5.88453,0,0,1-1.7554-.247l.16891-1.0918a5.28712,5.28712,0,0,0,1.69049.2861c.8706,0,1.352-.4424,1.352-1.1572,0-.6885-.5849-1.001-1.3393-1.3389-1.001-.4297-1.91119-.9238-1.91119-2.1582,0-1.3906,1.09229-2.1582,2.52249-2.1582a5.52752,5.52752,0,0,1,1.6509.2471l-.2471,1.001a4.74161,4.74161,0,0,0-1.4429-.2207.98466.98466,0,0,0-1.1313,1.04c0,.5068.37691.793.8843,1.0264,1.0791.5332,2.3789.9628,2.3789,2.457C261.11429,171.6777,259.82709,172.4316,258.29349,172.4316Z" transform="translate(-158 -95.7656)"/><path class="cls-2" d="M269.52539,165.7109v6.5909h-1.2739v-6.5909h-2.2881v-1.0273h5.8501v1.0273Z" transform="translate(-158 -95.7656)"/><path class="cls-2" d="M281.88869,172.3018c-.208-.6631-.4029-1.3135-.6109-1.9366h-3.1333c-.208.6104-.4028,1.2735-.5981,1.9366h-1.2871c.8193-2.5479,1.7812-5.2256,2.7954-7.6182h1.352c1.0791,2.5352,2.002,5.0439,2.8467,7.6182Zm-2.1973-6.3575c-.416,1.0664-.8579,2.3536-1.2222,3.419h2.4576C280.57569,168.2979,280.09469,167.0371,279.69139,165.9443Z" transform="translate(-158 -95.7656)"/><path class="cls-2" d="M291.26119,165.7109v6.5909h-1.2739v-6.5909h-2.2881v-1.0273h5.8501v1.0273Z" transform="translate(-158 -95.7656)"/><path class="cls-2" d="M299.126,172.3018v-7.6182h4.30369v1.0137h-3.043v2.1582h2.6397v1.0009h-2.6397v2.419h3.0938v1.0264Z" transform="translate(-158 -95.7656)"/><path class="cls-2" d="M314.63479,172.3018l-3.71779-5.9541v5.9541h-1.15721v-7.6182H311.333l3.627,5.8369v-5.8369h1.15719v7.6182Z" transform="translate(-158 -95.7656)"/><path class="cls-2" d="M320.875,168.8691v-1.0263h3.34079v1.0263Z" transform="translate(-158 -95.7656)"/><path class="cls-2" d="M334.79789,166.1914a4.28883,4.28883,0,0,0-2.1456-.5723,2.89217,2.89217,0,0,0,.0264,5.7598,5.12328,5.12328,0,0,0,1.2608-.1816v-2.9776h1.2617v3.7705a7.92014,7.92014,0,0,1-2.627.4414,3.60057,3.60057,0,0,1-3.8476-3.8613,3.7766,3.7766,0,0,1,3.9785-3.9902,5.35827,5.35827,0,0,1,2.5351.6367Z" transform="translate(-158 -95.7656)"/><path class="cls-2" d="M341.60939,172.3018v-7.6182h4.3027v1.0137h-3.041v2.1582h2.6387v1.0009h-2.6387v2.419h3.0937v1.0264Z" transform="translate(-158 -95.7656)"/><path class="cls-2" d="M357.11909,172.3018l-3.7187-5.9541v5.9541h-1.1572v-7.6182h1.5732l3.627,5.8369v-5.8369h1.1572v7.6182Z" transform="translate(-158 -95.7656)"/><path class="cls-2" d="M365.46479,172.3018v-7.6182h4.3028v1.0137h-3.042v2.1582h2.6396v1.0009h-2.6396v2.419h3.0947v1.0264Z" transform="translate(-158 -95.7656)"/><path class="cls-2" d="M379.93359,172.3018,378.15229,169h-.8066v3.3018h-1.2598v-7.6182h2.2618c1.7031,0,2.6132.7793,2.6132,2.0664a2.11485,2.11485,0,0,1-1.5214,2.0547l2.0273,3.4971Zm-1.7422-6.6172h-.8457v2.3398h.832c1.0147,0,1.4434-.5322,1.4434-1.1699C379.62109,166.2441,379.27049,165.6846,378.19139,165.6846Z" transform="translate(-158 -95.7656)"/><path class="cls-2" d="M391.93159,172.3018c-.207-.6631-.4023-1.3135-.6113-1.9366h-3.1328c-.207.6104-.4023,1.2735-.5977,1.9366h-1.2871c.8194-2.5479,1.78131-5.2256,2.795-7.6182h1.3525c1.0791,2.5352,2.0019,5.0439,2.8467,7.6182Zm-2.1972-6.3575c-.416,1.0664-.85739,2.3536-1.2207,3.419h2.457C390.61909,168.2979,390.13869,167.0371,389.73439,165.9443Z" transform="translate(-158 -95.7656)"/><path class="cls-2" d="M403.39839,172.3018c-.2089-.6631-.4043-1.3135-.6113-1.9366h-3.1328c-.209.6104-.40429,1.2735-.5986,1.9366h-1.2871c.8193-2.5479,1.7812-5.2256,2.7959-7.6182H401.916c1.07809,2.5352,2.002,5.0439,2.84769,7.6182Zm-2.1972-6.3575c-.416,1.0664-.8584,2.3536-1.2227,3.419h2.457C402.085,168.2979,401.60349,167.0371,401.20119,165.9443Z" transform="translate(-158 -95.7656)"/><path class="cls-2" d="M410.23629,172.3018v-7.6182h1.2608v6.5918h2.9384v1.0264Z" transform="translate(-158 -95.7656)"/></svg>