<?xml version="1.0" encoding="UTF-8" standalone="no"?>
<!-- Generator: Adobe Illustrator 16.0.0, SVG Export Plug-In . SVG Version: 6.00 Build 0)  -->

<svg
   xmlns:dc="http://purl.org/dc/elements/1.1/"
   xmlns:cc="http://creativecommons.org/ns#"
   xmlns:rdf="http://www.w3.org/1999/02/22-rdf-syntax-ns#"
   xmlns:svg="http://www.w3.org/2000/svg"
   xmlns="http://www.w3.org/2000/svg"
   xmlns:sodipodi="http://sodipodi.sourceforge.net/DTD/sodipodi-0.dtd"
   xmlns:inkscape="http://www.inkscape.org/namespaces/inkscape"
   version="1.1"
   id="Layer_1"
   x="0px"
   y="0px"
   width="496.063px"
   height="113.387px"
   viewBox="0 0 496.063 113.387"
   enable-background="new 0 0 496.063 113.387"
   xml:space="preserve"
   sodipodi:docname="logo-setup.svg"
   inkscape:version="0.92.3 (2405546, 2018-03-11)"><metadata
   id="metadata21"><rdf:RDF><cc:Work
       rdf:about=""><dc:format>image/svg+xml</dc:format><dc:type
         rdf:resource="http://purl.org/dc/dcmitype/StillImage" /></cc:Work></rdf:RDF></metadata><defs
   id="defs19" /><sodipodi:namedview
   pagecolor="#ffffff"
   bordercolor="#666666"
   borderopacity="1"
   objecttolerance="10"
   gridtolerance="10"
   guidetolerance="10"
   inkscape:pageopacity="0"
   inkscape:pageshadow="2"
   inkscape:window-width="1920"
   inkscape:window-height="1056"
   id="namedview17"
   showgrid="false"
   inkscape:zoom="0.72974604"
   inkscape:cx="248.03149"
   inkscape:cy="56.693501"
   inkscape:window-x="0"
   inkscape:window-y="24"
   inkscape:window-maximized="1"
   inkscape:current-layer="Layer_1" />
<g
   id="g14"
   style="fill:#ffffff">
	<g
   id="g12"
   style="fill:#ffffff">
		<polygon
   fill="#FF2B06"
   points="419.526,19.843 396.85,19.843 396.85,113.387 425.195,113.387 425.195,93.544 496.063,93.55     496.063,0 419.526,0   "
   id="polygon2"
   style="fill:#ffffff" />
		<polygon
   fill="#FF2B06"
   points="76.536,113.387 76.536,93.544 99.213,93.544 99.213,65.197 76.536,65.197 76.536,42.521     28.347,42.521 28.347,28.348 99.213,28.348 99.213,0 22.676,0 22.674,19.843 0,19.843 0,48.189 22.676,48.19 22.678,71.093     70.881,71.093 70.881,85.04 0,85.04 0,113.386   "
   id="polygon4"
   style="fill:#ffffff" />
		<polygon
   fill="#FF2B06"
   points="357.167,85.04 320.316,85.04 320.316,0 291.97,0 291.97,113.387 385.513,113.387 385.513,0     357.167,0   "
   id="polygon6"
   style="fill:#ffffff" />
		<polygon
   fill="#FF2B06"
   points="226.771,28.348 226.775,113.387 255.119,113.387 255.119,28.348 283.466,28.348 283.466,0     198.424,0 198.424,28.348   "
   id="polygon8"
   style="fill:#ffffff" />
		<polygon
   fill="#FF2B06"
   points="189.92,113.387 189.92,85.04 138.896,85.04 138.896,71.093 189.92,71.093 189.92,42.521     138.896,42.521 138.896,28.348 189.92,28.348 189.92,0 133.227,0 133.227,19.843 110.55,19.843 110.55,113.386   "
   id="polygon10"
   style="fill:#ffffff" />
	</g>
</g>
</svg>