<svg id="Laag_1" data-name="Laag 1" xmlns="http://www.w3.org/2000/svg" xmlns:xlink="http://www.w3.org/1999/xlink" viewBox="0 0 142.45 142.45"><defs><style>.cls-1{fill:#fff;}.cls-2{fill:none;stroke-width:4px;stroke:url(#Naamloos_verloop_51);}.cls-2,.cls-3{stroke-miterlimit:10;}.cls-3{stroke:#000;stroke-linecap:round;stroke-width:3px;}</style><linearGradient id="Naamloos_verloop_51" x1="232.58" y1="496.71" x2="363.42" y2="344.29" gradientTransform="translate(718.5 122.5) rotate(90)" gradientUnits="userSpaceOnUse"><stop offset="0" stop-color="#fff"/><stop offset="0.25" stop-color="#fdfdfd"/><stop offset="0.38" stop-color="#f5f5f5"/><stop offset="0.49" stop-color="#e7e7e7"/><stop offset="0.59" stop-color="#d3d3d3"/><stop offset="0.68" stop-color="#bababa"/><stop offset="0.76" stop-color="#9a9a9a"/><stop offset="0.83" stop-color="#757575"/><stop offset="0.9" stop-color="#4a4a4a"/><stop offset="0.97" stop-color="#1a1a1a"/><stop offset="1"/></linearGradient></defs><path class="cls-1" d="M298,488.06h67l-16.88-29.24,6.25-10.55,4.32-7.31a2.84,2.84,0,0,0,.58-1.71,2.9,2.9,0,0,0-2.74-2.89h0l-8.93-.1L335,436.12,331.52,430l-3.29-5.69-3.48-6a33.3,33.3,0,0,0-53.5,0l-3.81,6.6,1.61-2.78-4.57,7.9L231,488.06Z" transform="translate(-226.78 -349.28)"/><rect class="cls-2" x="228.78" y="351.28" width="138.45" height="138.45" transform="translate(-349.28 369.22) rotate(-90)"/><line class="cls-3" x1="63.34" y1="102.04" x2="79.11" y2="86.28"/><line class="cls-3" x1="63.34" y1="86.28" x2="79.11" y2="102.04"/></svg>