<?xml version="1.0" encoding="UTF-8" standalone="no"?>
<!-- Created with Inkscape (http://www.inkscape.org/) -->

<svg
   xmlns:dc="http://purl.org/dc/elements/1.1/"
   xmlns:cc="http://creativecommons.org/ns#"
   xmlns:rdf="http://www.w3.org/1999/02/22-rdf-syntax-ns#"
   xmlns:svg="http://www.w3.org/2000/svg"
   xmlns="http://www.w3.org/2000/svg"
   version="1.1"
   width="226.77126"
   height="65.551247"
   id="svg4166">
  <defs
     id="defs4168">
    <clipPath
       id="clipPath3512">
      <path
         d="m 15,15 1038.161,0 0,725.669 L 15,740.669 15,15 z"
         id="path3514" />
    </clipPath>
  </defs>
  <metadata
     id="metadata4171">
    <rdf:RDF>
      <cc:Work
         rdf:about="">
        <dc:format>image/svg+xml</dc:format>
        <dc:type
           rdf:resource="http://purl.org/dc/dcmitype/StillImage" />
        <dc:title></dc:title>
      </cc:Work>
    </rdf:RDF>
  </metadata>
  <g
     transform="translate(-261.61438,-499.58656)"
     id="layer1">
    <g
       transform="matrix(1.25,0,0,-1.25,-817.37187,703.65156)"
       id="g3508">
      <g
         clip-path="url(#clipPath3512)"
         id="g3510">
        <g
           transform="translate(868.858,163.252)"
           id="g3516">
          <path
             d="m 0,0 c 0,0 -5.669,0 -5.669,-5.669 l 0,-41.103 c 0,0 0,-5.669 5.669,-5.669 l 175.748,0 0,52.441 L 0,0 z"
             id="path3518"
             style="fill:#ffffff;fill-opacity:1;fill-rule:nonzero;stroke:none" />
        </g>
        <g
           transform="translate(908.2308,135.3206)"
           id="g3520">
          <path
             d="m 0,0 c -2.102,0 -2.835,1.326 -2.835,3.719 0,2.35 0.733,3.827 2.835,3.827 0.625,0 1.164,-0.075 1.455,-0.183 L 1.531,7.266 1.477,6.242 1.369,6.188 c -0.28,0.086 -0.733,0.151 -1.153,0.151 -1.24,0 -1.521,-0.647 -1.521,-2.63 0,-1.855 0.281,-2.502 1.521,-2.502 0.399,0 0.862,0.065 1.132,0.14 L 1.488,1.294 1.563,0.334 1.52,0.205 C 1.143,0.086 0.625,0 0,0"
             id="path3522"
             style="fill:#202267;fill-opacity:1;fill-rule:nonzero;stroke:none" />
        </g>
        <g
           transform="translate(913.4584,135.3206)"
           id="g3524">
          <path
             d="m 0,0 c -2.102,0 -2.77,1.154 -2.77,2.975 0,1.93 0.819,3.008 2.576,3.008 1.725,0 2.242,-0.938 2.242,-2.501 0,-0.733 -0.032,-0.917 -0.291,-0.917 l -3.04,0 -0.064,-0.064 c 0,-1.154 0.549,-1.445 1.552,-1.445 0.55,0 1.186,0.141 1.52,0.248 L 1.844,1.251 1.919,0.41 1.844,0.312 C 1.423,0.119 0.755,0 0,0 m -1.304,3.439 1.994,0 c 0.086,0 0.119,0.021 0.119,0.313 0,0.819 -0.205,1.25 -1.025,1.25 -0.959,0 -1.153,-0.647 -1.153,-1.488 l 0.065,-0.075"
             id="path3526"
             style="fill:#202267;fill-opacity:1;fill-rule:nonzero;stroke:none" />
        </g>
        <g
           transform="translate(920.5081,135.4283)"
           id="g3528">
          <path
             d="m 0,0 -0.108,0.108 0,3.644 c 0,0.819 -0.183,1.035 -1.046,1.035 -0.323,0 -0.582,-0.022 -0.765,-0.065 l -0.108,-0.108 0,-4.506 L -2.135,0 l -1.196,0 -0.108,0.108 0,5.433 0.108,0.108 c 0.582,0.097 1.552,0.227 2.231,0.227 1.898,0 2.405,-0.486 2.405,-2.06 l 0,-3.708 L 1.197,0 0,0 z"
             id="path3530"
             style="fill:#202267;fill-opacity:1;fill-rule:nonzero;stroke:none" />
        </g>
        <g
           transform="translate(925.2399,135.3206)"
           id="g3532">
          <path
             d="m 0,0 c -0.863,0 -1.305,0.399 -1.305,1.186 l 0,3.536 -0.064,0.065 -0.744,0 -0.108,0.107 0,0.873 0.108,0.108 0.744,0 0.064,0.065 0,1.348 0.108,0.107 1.197,0 0.108,-0.107 0,-1.348 0.064,-0.065 0.906,0 0.108,-0.108 0,-0.873 -0.108,-0.107 -0.906,0 -0.064,-0.065 0,-3.202 c 0,-0.356 0.118,-0.453 0.463,-0.453 l 0.334,0 L 1.013,0.959 0.981,0.237 0.873,0.097 C 0.636,0.043 0.302,0 0,0"
             id="path3534"
             style="fill:#202267;fill-opacity:1;fill-rule:nonzero;stroke:none" />
        </g>
        <g
           transform="translate(929.8855,140.1933)"
           id="g3536">
          <path
             d="m 0,0 c -0.172,0 -0.453,-0.022 -0.625,-0.086 l -0.076,-0.119 0,-4.452 -0.118,-0.108 -1.186,0 -0.108,0.108 0,5.433 0.108,0.108 c 0.539,0.119 1.337,0.227 2.027,0.227 0.356,0 0.582,-0.011 0.873,-0.044 L 0.96,0.981 0.906,-0.011 0.83,-0.065 C 0.572,-0.022 0.302,0 0,0"
             id="path3538"
             style="fill:#202267;fill-opacity:1;fill-rule:nonzero;stroke:none" />
        </g>
        <g
           transform="translate(932.3752,140.0641)"
           id="g3540">
          <path
             d="m 0,0 -0.162,0.054 -0.075,0.83 0.065,0.151 c 0.409,0.118 1.164,0.205 1.886,0.205 1.337,0 2.145,-0.453 2.145,-1.715 l 0,-3.913 c 0,-0.065 -0.021,-0.118 -0.14,-0.162 -0.377,-0.118 -1.142,-0.193 -1.886,-0.193 -1.941,0 -2.523,0.366 -2.523,1.606 0,1.099 0.248,1.595 1.833,1.789 l 1.272,0.162 0.064,0.065 0,0.431 c 0,0.647 -0.301,0.798 -1.142,0.798 C 0.949,0.108 0.345,0.054 0,0 m 2.479,-2.135 -0.064,0.065 -0.722,0 c -0.777,0 -1.014,-0.14 -1.014,-0.917 0,-0.765 0.194,-0.851 1.046,-0.851 0.248,0 0.539,0.022 0.679,0.054 l 0.075,0.075 0,1.574 z"
             id="path3542"
             style="fill:#202267;fill-opacity:1;fill-rule:nonzero;stroke:none" />
        </g>
        <g
           transform="translate(938.39,140.0641)"
           id="g3544">
          <path
             d="m 0,0 -0.162,0.054 -0.075,0.83 0.065,0.151 c 0.409,0.118 1.164,0.205 1.886,0.205 1.337,0 2.145,-0.453 2.145,-1.715 l 0,-3.913 c 0,-0.065 -0.021,-0.118 -0.14,-0.162 -0.377,-0.118 -1.142,-0.193 -1.886,-0.193 -1.941,0 -2.523,0.366 -2.523,1.606 0,1.099 0.248,1.595 1.833,1.789 l 1.272,0.162 0.064,0.065 0,0.431 c 0,0.647 -0.301,0.798 -1.142,0.798 C 0.949,0.108 0.345,0.054 0,0 m 2.479,-2.135 -0.064,0.065 -0.723,0 c -0.776,0 -1.013,-0.14 -1.013,-0.917 0,-0.765 0.194,-0.851 1.046,-0.851 0.248,0 0.539,0.022 0.679,0.054 l 0.075,0.075 0,1.574 z"
             id="path3546"
             style="fill:#202267;fill-opacity:1;fill-rule:nonzero;stroke:none" />
        </g>
        <g
           transform="translate(945.4178,135.3206)"
           id="g3548">
          <path
             d="m 0,0 c -0.895,0 -1.347,0.312 -1.347,1.315 l 0,6.598 0.107,0.119 1.197,0 0.108,-0.119 0,-6.404 c 0,-0.345 0.14,-0.453 0.453,-0.453 l 0.345,0 L 0.97,0.949 0.938,0.237 0.83,0.108 C 0.593,0.043 0.334,0 0,0"
             id="path3550"
             style="fill:#202267;fill-opacity:1;fill-rule:nonzero;stroke:none" />
        </g>
        <g
           transform="translate(952.5754,142.7592)"
           id="g3552">
          <path
             d="M 0,0 C 1.445,0 2.35,-0.442 2.35,-1.833 2.35,-2.835 1.94,-3.116 1.52,-3.363 1.412,-3.428 1.39,-3.45 1.39,-3.504 L 1.455,-3.59 c 0.539,-0.216 1.046,-0.625 1.046,-1.79 0,-1.466 -1.089,-1.951 -2.167,-1.951 l -2.652,0 -0.108,0.108 0,7.115 L -2.318,0 0,0 z m -0.205,-3.159 c 0.712,0.033 1.1,0.27 1.1,1.154 0,0.69 -0.259,0.97 -1.143,0.97 l -0.679,0 -0.076,-0.075 0,-1.963 0.097,-0.086 0.701,0 z m -0.118,-3.115 c 1.034,0 1.347,0.204 1.347,1.099 0,0.917 -0.539,1.111 -1.272,1.111 l -0.658,0 -0.097,-0.097 0,-2.038 0.076,-0.075 0.604,0 z"
             id="path3554"
             style="fill:#202267;fill-opacity:1;fill-rule:nonzero;stroke:none" />
        </g>
        <g
           transform="translate(958.008,141.196)"
           id="g3556">
          <path
             d="m 0,0 0.108,-0.108 0,-3.579 c 0,-0.819 0.215,-1.067 1.089,-1.067 0.269,0 0.528,0.021 0.733,0.064 l 0.096,0.108 0,4.474 L 2.135,0 3.32,0 3.428,-0.108 3.428,-5.541 3.32,-5.649 C 2.738,-5.757 1.843,-5.875 1.175,-5.875 c -1.898,0 -2.48,0.517 -2.48,2.091 l 0,3.676 L -1.197,0 0,0 z"
             id="path3558"
             style="fill:#202267;fill-opacity:1;fill-rule:nonzero;stroke:none" />
        </g>
        <g
           transform="translate(965.4134,140.1933)"
           id="g3560">
          <path
             d="m 0,0 c -0.173,0 -0.453,-0.022 -0.625,-0.086 l -0.076,-0.119 0,-4.452 -0.119,-0.108 -1.185,0 -0.108,0.108 0,5.433 0.108,0.108 c 0.538,0.119 1.337,0.227 2.027,0.227 0.355,0 0.581,-0.011 0.873,-0.044 L 0.959,0.981 0.905,-0.011 0.83,-0.065 C 0.571,-0.022 0.301,0 0,0"
             id="path3562"
             style="fill:#202267;fill-opacity:1;fill-rule:nonzero;stroke:none" />
        </g>
        <g
           transform="translate(969.9508,135.3206)"
           id="g3564">
          <path
             d="m 0,0 c -2.102,0 -2.77,1.154 -2.77,2.975 0,1.93 0.819,3.008 2.576,3.008 1.725,0 2.242,-0.938 2.242,-2.501 0,-0.733 -0.032,-0.917 -0.291,-0.917 l -3.04,0 -0.064,-0.064 c 0,-1.154 0.549,-1.445 1.552,-1.445 0.55,0 1.186,0.141 1.52,0.248 L 1.844,1.251 1.919,0.41 1.844,0.312 C 1.423,0.119 0.755,0 0,0 m -1.304,3.439 1.994,0 c 0.087,0 0.119,0.021 0.119,0.313 0,0.819 -0.205,1.25 -1.024,1.25 -0.96,0 -1.154,-0.647 -1.154,-1.488 l 0.065,-0.075"
             id="path3566"
             style="fill:#202267;fill-opacity:1;fill-rule:nonzero;stroke:none" />
        </g>
        <g
           transform="translate(973.9819,140.0641)"
           id="g3568">
          <path
             d="m 0,0 -0.162,0.054 -0.075,0.83 0.065,0.151 c 0.409,0.118 1.164,0.205 1.886,0.205 1.337,0 2.145,-0.453 2.145,-1.715 l 0,-3.913 c 0,-0.065 -0.021,-0.118 -0.14,-0.162 -0.377,-0.118 -1.142,-0.193 -1.886,-0.193 -1.941,0 -2.523,0.366 -2.523,1.606 0,1.099 0.248,1.595 1.833,1.789 l 1.272,0.162 0.064,0.065 0,0.431 c 0,0.647 -0.301,0.798 -1.142,0.798 C 0.949,0.108 0.345,0.054 0,0 m 2.479,-2.135 -0.064,0.065 -0.722,0 c -0.777,0 -1.014,-0.14 -1.014,-0.917 0,-0.765 0.194,-0.851 1.046,-0.851 0.248,0 0.539,0.022 0.679,0.054 l 0.075,0.075 0,1.574 z"
             id="path3570"
             style="fill:#202267;fill-opacity:1;fill-rule:nonzero;stroke:none" />
        </g>
        <g
           transform="translate(980.827,141.196)"
           id="g3572">
          <path
             d="m 0,0 0.108,-0.108 0,-3.579 c 0,-0.819 0.215,-1.067 1.089,-1.067 0.269,0 0.528,0.021 0.733,0.064 l 0.096,0.108 0,4.474 L 2.135,0 3.32,0 3.428,-0.108 3.428,-5.541 3.32,-5.649 C 2.738,-5.757 1.843,-5.875 1.175,-5.875 c -1.897,0 -2.48,0.517 -2.48,2.091 l 0,3.676 L -1.197,0 0,0 z"
             id="path3574"
             style="fill:#202267;fill-opacity:1;fill-rule:nonzero;stroke:none" />
        </g>
        <g
           transform="translate(908.4894,122.1994)"
           id="g3576">
          <path
             d="m 0,0 -1.93,0 -0.107,0.086 c -0.432,1.359 -1.348,4.808 -1.499,5.585 l 0.097,0.097 1.294,0 0.097,-0.097 c 0.259,-1.369 0.701,-3.353 0.981,-4.442 0.011,-0.054 0.043,-0.064 0.14,-0.064 0.108,0 0.14,0.01 0.151,0.064 0.302,1.089 0.733,3.073 0.992,4.442 l 0.14,0.097 1.186,0 L 1.628,5.66 C 1.488,4.894 0.55,1.391 0.129,0.086 L 0,0"
             id="path3578"
             style="fill:#202267;fill-opacity:1;fill-rule:nonzero;stroke:none" />
        </g>
        <g
           transform="translate(915.2805,122.674)"
           id="g3580">
          <path
             d="m 0,0 c -0.399,-0.41 -0.97,-0.582 -1.876,-0.582 -0.905,0 -1.444,0.172 -1.833,0.582 -0.42,0.453 -0.722,1.38 -0.722,2.458 0,1.088 0.291,1.94 0.722,2.382 0.389,0.421 0.971,0.561 1.855,0.561 C -0.938,5.401 -0.399,5.25 0,4.84 0.41,4.388 0.69,3.546 0.69,2.458 0.69,1.38 0.41,0.453 0,0 m -2.663,0.733 c 0.14,-0.162 0.324,-0.237 0.787,-0.237 0.496,0 0.679,0.075 0.809,0.237 0.215,0.248 0.323,0.948 0.323,1.735 0,0.799 -0.108,1.391 -0.323,1.65 -0.13,0.162 -0.313,0.227 -0.787,0.227 -0.485,0 -0.669,-0.065 -0.809,-0.227 -0.216,-0.259 -0.334,-0.851 -0.334,-1.65 0,-0.787 0.118,-1.487 0.334,-1.735"
             id="path3582"
             style="fill:#202267;fill-opacity:1;fill-rule:nonzero;stroke:none" />
        </g>
        <g
           transform="translate(921.4999,122.674)"
           id="g3584">
          <path
             d="m 0,0 c -0.399,-0.41 -0.97,-0.582 -1.876,-0.582 -0.905,0 -1.444,0.172 -1.832,0.582 -0.421,0.453 -0.723,1.38 -0.723,2.458 0,1.088 0.291,1.94 0.723,2.382 0.388,0.421 0.97,0.561 1.854,0.561 C -0.938,5.401 -0.399,5.25 0,4.84 0.41,4.388 0.69,3.546 0.69,2.458 0.69,1.38 0.41,0.453 0,0 m -2.663,0.733 c 0.14,-0.162 0.323,-0.237 0.787,-0.237 0.496,0 0.679,0.075 0.809,0.237 0.215,0.248 0.323,0.948 0.323,1.735 0,0.799 -0.108,1.391 -0.323,1.65 -0.13,0.162 -0.313,0.227 -0.787,0.227 -0.486,0 -0.669,-0.065 -0.809,-0.227 -0.215,-0.259 -0.334,-0.851 -0.334,-1.65 0,-0.787 0.119,-1.487 0.334,-1.735"
             id="path3586"
             style="fill:#202267;fill-opacity:1;fill-rule:nonzero;stroke:none" />
        </g>
        <g
           transform="translate(925.7572,126.9645)"
           id="g3588">
          <path
             d="m 0,0 c -0.172,0 -0.453,-0.022 -0.625,-0.086 l -0.076,-0.119 0,-4.452 -0.118,-0.108 -1.186,0 -0.108,0.108 0,5.433 0.108,0.108 c 0.539,0.118 1.337,0.227 2.027,0.227 0.356,0 0.582,-0.011 0.873,-0.044 L 0.96,0.981 0.906,-0.011 0.83,-0.065 C 0.571,-0.022 0.302,0 0,0"
             id="path3590"
             style="fill:#202267;fill-opacity:1;fill-rule:nonzero;stroke:none" />
        </g>
        <g
           transform="translate(930.1331,125.1209)"
           id="g3592">
          <path
             d="m 0,0 c 0,1.973 0.733,2.943 2.49,2.943 0.367,0 0.777,-0.064 0.916,-0.064 l 0.076,0.097 0,1.918 0.108,0.108 1.196,0 0.109,-0.108 0,-7.557 C 4.895,-2.717 4.884,-2.76 4.786,-2.803 4.431,-2.954 3.471,-3.029 2.781,-3.029 0.539,-3.029 0,-2.21 0,0 M 3.482,1.714 3.396,1.855 C 3.245,1.887 3.008,1.908 2.771,1.908 c -0.981,0 -1.305,-0.323 -1.305,-1.93 0,-1.584 0.184,-1.983 1.326,-1.983 0.173,0 0.442,0.011 0.593,0.054 l 0.097,0.107 0,3.558 z"
             id="path3594"
             style="fill:#202267;fill-opacity:1;fill-rule:nonzero;stroke:none" />
        </g>
        <g
           transform="translate(939.1555,122.0917)"
           id="g3596">
          <path
             d="m 0,0 c -2.102,0 -2.771,1.154 -2.771,2.976 0,1.929 0.82,3.007 2.577,3.007 1.725,0 2.242,-0.937 2.242,-2.501 0,-0.733 -0.032,-0.916 -0.291,-0.916 l -3.04,0 -0.065,-0.065 c 0,-1.154 0.55,-1.445 1.553,-1.445 0.55,0 1.185,0.141 1.52,0.248 L 1.843,1.251 1.919,0.41 1.843,0.312 C 1.423,0.119 0.755,0 0,0 m -1.305,3.439 1.995,0 c 0.086,0 0.118,0.021 0.118,0.313 0,0.819 -0.204,1.25 -1.024,1.25 -0.959,0 -1.153,-0.646 -1.153,-1.488 l 0.064,-0.075"
             id="path3598"
             style="fill:#202267;fill-opacity:1;fill-rule:nonzero;stroke:none" />
        </g>
        <g
           transform="translate(947.5844,128.42)"
           id="g3600">
          <path
             d="m 0,0 c -0.647,0 -0.873,-0.216 -0.873,-0.755 0,-0.431 0.14,-0.625 1.272,-1.423 0.905,-0.636 1.38,-1.11 1.38,-2.167 0,-1.391 -0.733,-1.951 -2.091,-1.951 -0.852,0 -1.607,0.097 -2.027,0.194 l -0.097,0.086 0.075,0.97 0.075,0.076 c 0.54,-0.097 1.1,-0.151 1.661,-0.151 0.636,0 0.905,0.183 0.905,0.776 0,0.399 -0.043,0.593 -1.52,1.714 -0.916,0.69 -1.11,1.186 -1.11,1.941 0,1.445 0.798,1.854 2.361,1.854 0.614,0 1.401,-0.108 1.66,-0.215 L 1.725,0.852 1.66,-0.086 1.596,-0.151 C 1.207,-0.054 0.474,0 0,0"
             id="path3602"
             style="fill:#202267;fill-opacity:1;fill-rule:nonzero;stroke:none" />
        </g>
        <g
           transform="translate(952.629,122.0917)"
           id="g3604">
          <path
             d="m 0,0 c -0.863,0 -1.305,0.399 -1.305,1.186 l 0,3.536 -0.064,0.065 -0.744,0 -0.108,0.107 0,0.874 0.108,0.107 0.744,0 0.064,0.065 0,1.348 0.108,0.107 1.197,0 0.108,-0.107 0,-1.348 0.064,-0.065 0.906,0 0.108,-0.107 0,-0.874 -0.108,-0.107 -0.906,0 -0.064,-0.065 0,-3.202 c 0,-0.356 0.118,-0.453 0.463,-0.453 l 0.334,0 L 1.013,0.959 0.981,0.237 0.873,0.097 C 0.636,0.043 0.302,0 0,0"
             id="path3606"
             style="fill:#202267;fill-opacity:1;fill-rule:nonzero;stroke:none" />
        </g>
        <g
           transform="translate(955.4745,126.8353)"
           id="g3608">
          <path
             d="m 0,0 -0.162,0.054 -0.075,0.83 0.064,0.151 c 0.41,0.119 1.165,0.205 1.887,0.205 1.337,0 2.145,-0.453 2.145,-1.715 l 0,-3.913 c 0,-0.065 -0.021,-0.118 -0.14,-0.162 -0.377,-0.118 -1.142,-0.194 -1.886,-0.194 -1.941,0 -2.523,0.367 -2.523,1.607 0,1.099 0.248,1.595 1.833,1.789 l 1.272,0.162 0.064,0.064 0,0.432 c 0,0.647 -0.302,0.798 -1.142,0.798 C 0.948,0.108 0.345,0.054 0,0 m 2.479,-2.135 -0.064,0.065 -0.723,0 c -0.776,0 -1.013,-0.14 -1.013,-0.916 0,-0.766 0.194,-0.852 1.046,-0.852 0.248,0 0.539,0.022 0.679,0.054 l 0.075,0.075 0,1.574 z"
             id="path3610"
             style="fill:#202267;fill-opacity:1;fill-rule:nonzero;stroke:none" />
        </g>
        <g
           transform="translate(962.8043,122.0917)"
           id="g3612">
          <path
             d="m 0,0 c -0.863,0 -1.305,0.399 -1.305,1.186 l 0,3.536 -0.064,0.065 -0.744,0 -0.108,0.107 0,0.874 0.108,0.107 0.744,0 0.064,0.065 0,1.348 0.108,0.107 1.197,0 0.108,-0.107 0,-1.348 0.064,-0.065 0.906,0 0.108,-0.107 0,-0.874 -0.108,-0.107 -0.906,0 -0.064,-0.065 0,-3.202 c 0,-0.356 0.118,-0.453 0.463,-0.453 l 0.334,0 L 1.013,0.959 0.981,0.237 0.873,0.097 C 0.636,0.043 0.302,0 0,0"
             id="path3614"
             style="fill:#202267;fill-opacity:1;fill-rule:nonzero;stroke:none" />
        </g>
        <g
           transform="translate(965.5632,128.9267)"
           id="g3616">
          <path
             d="m 0,0 -0.108,0.108 0,1.067 0.108,0.108 1.261,0 0.108,-0.108 0,-1.067 L 1.261,0 0,0 z m 0.033,-6.727 -0.108,0.108 0,5.552 0.108,0.107 1.196,0 0.108,-0.107 0,-5.552 -0.108,-0.108 -1.196,0 z"
             id="path3618"
             style="fill:#202267;fill-opacity:1;fill-rule:nonzero;stroke:none" />
        </g>
        <g
           transform="translate(968.4627,122.2965)"
           id="g3620">
          <path
             d="M 0,0 0.054,0.938 0.14,0.981 C 0.496,0.906 1.013,0.863 1.369,0.863 c 0.766,0 0.884,0.075 0.884,0.614 0,0.324 -0.183,0.485 -1.035,1.067 -0.873,0.582 -1.175,0.884 -1.175,1.607 0,1.218 0.647,1.628 2.048,1.628 0.518,0 1.111,-0.054 1.445,-0.119 L 3.59,5.584 3.525,4.625 3.45,4.582 C 3.126,4.635 2.663,4.69 2.35,4.69 1.671,4.69 1.445,4.646 1.445,4.183 1.445,3.806 1.628,3.687 2.479,3.159 3.428,2.555 3.687,2.156 3.687,1.488 c 0,-1.38 -0.755,-1.693 -2.091,-1.693 -0.594,0 -1.186,0.054 -1.531,0.119 L 0,0"
             id="path3622"
             style="fill:#202267;fill-opacity:1;fill-rule:nonzero;stroke:none" />
        </g>
        <g
           transform="translate(975.2863,122.0917)"
           id="g3624">
          <path
             d="m 0,0 c -0.863,0 -1.305,0.399 -1.305,1.186 l 0,3.536 -0.064,0.065 -0.744,0 -0.108,0.107 0,0.874 0.108,0.107 0.744,0 0.064,0.065 0,1.348 0.108,0.107 1.197,0 0.108,-0.107 0,-1.348 0.064,-0.065 0.906,0 0.108,-0.107 0,-0.874 -0.108,-0.107 -0.906,0 -0.064,-0.065 0,-3.202 c 0,-0.356 0.118,-0.453 0.463,-0.453 l 0.334,0 L 1.013,0.959 0.981,0.237 0.873,0.097 C 0.636,0.043 0.302,0 0,0"
             id="path3626"
             style="fill:#202267;fill-opacity:1;fill-rule:nonzero;stroke:none" />
        </g>
        <g
           transform="translate(978.0452,128.9267)"
           id="g3628">
          <path
             d="m 0,0 -0.108,0.108 0,1.067 0.108,0.108 1.261,0 0.108,-0.108 0,-1.067 L 1.261,0 0,0 z m 0.033,-6.727 -0.108,0.108 0,5.552 0.108,0.107 1.196,0 0.108,-0.107 0,-5.552 -0.108,-0.108 -1.196,0 z"
             id="path3630"
             style="fill:#202267;fill-opacity:1;fill-rule:nonzero;stroke:none" />
        </g>
        <g
           transform="translate(983.8663,122.0917)"
           id="g3632">
          <path
             d="m 0,0 c -2.102,0 -2.77,1.154 -2.77,2.976 0,1.929 0.819,3.007 2.576,3.007 1.725,0 2.242,-0.937 2.242,-2.501 0,-0.733 -0.032,-0.916 -0.291,-0.916 l -3.04,0 -0.064,-0.065 c 0,-1.154 0.549,-1.445 1.552,-1.445 0.55,0 1.186,0.141 1.52,0.248 L 1.844,1.251 1.919,0.41 1.844,0.312 C 1.423,0.119 0.755,0 0,0 m -1.304,3.439 1.994,0 c 0.087,0 0.119,0.021 0.119,0.313 0,0.819 -0.205,1.25 -1.024,1.25 -0.96,0 -1.154,-0.646 -1.154,-1.488 l 0.065,-0.075"
             id="path3634"
             style="fill:#202267;fill-opacity:1;fill-rule:nonzero;stroke:none" />
        </g>
        <g
           transform="translate(988.8894,125.919)"
           id="g3636">
          <path
             d="m 0,0 c 0,-0.065 0.065,-0.097 0.194,-0.097 0.107,0 0.183,0.01 0.216,0.043 0.442,0.582 1.078,1.531 1.379,2.005 l 0.162,0.097 1.434,0 C 3.482,2.048 3.547,2.016 3.514,1.951 3.342,1.703 2.253,0.312 1.606,-0.453 L 1.542,-0.582 1.628,-0.734 C 2.091,-1.369 3.342,-3.223 3.579,-3.601 3.612,-3.655 3.612,-3.72 3.46,-3.72 l -1.369,0 -0.151,0.086 C 1.585,-3.008 0.808,-1.79 0.442,-1.208 0.41,-1.154 0.291,-1.1 0.172,-1.1 0.022,-1.1 0,-1.132 0,-1.197 l 0,-2.415 -0.108,-0.108 -1.186,0 -0.107,0.108 0,7.708 0.107,0.108 1.186,0 L 0,4.096 0,0 z"
             id="path3638"
             style="fill:#202267;fill-opacity:1;fill-rule:nonzero;stroke:none" />
        </g>
        <g
           transform="translate(883.4415,150.9959)"
           id="g3640">
          <path
             d="m 0,0 0,-1.929 -4.287,0 -1.348,0 0,-1.347 0,-1.927 0,-1.347 1.348,0 4.287,0 0,-1.932 -7.563,0 0,8.482 L 0,0 z m 1.347,1.347 -9.033,0 c -0.676,0 -1.225,-0.548 -1.225,-1.225 l 0,-9.952 10.258,0 0,4.627 -5.634,0 0,1.927 5.634,0 0,4.623 z"
             id="path3642"
             style="fill:#26b9e0;fill-opacity:1;fill-rule:nonzero;stroke:none" />
        </g>
        <g
           transform="translate(889.8105,156.5525)"
           id="g3644">
          <path
             d="m 0,0 0,-4.208 0,-1.348 1.347,0 5.225,0 0,-8.481 -8.497,0 L -1.925,0 0,0 z m -0.005,-12.101 1.348,0 1.938,0 1.348,0 0,1.348 0,1.928 0,1.348 -1.348,0 -1.938,0 -1.348,0 0,-1.348 0,-1.928 0,-1.348 z m 0.127,13.448 -3.395,0 0,-16.731 11.193,0 0,9.951 c 0,0.676 -0.549,1.225 -1.225,1.225 l -5.348,0 0,4.268 c 0,0.676 -0.548,1.287 -1.225,1.287 m 1.221,-10.172 1.939,0 0,-1.929 -1.939,0 0,1.929 z"
             id="path3646"
             style="fill:#26b9e0;fill-opacity:1;fill-rule:nonzero;stroke:none" />
        </g>
        <g
           transform="translate(896.3661,138.0761)"
           id="g3648">
          <path
             d="m 0,0 0,-1.955 -17.199,0 -1.348,0 0,-1.348 0,-1.714 0,-1.348 1.348,0 17.209,0 0,-8.302 -20.492,0 0,1.932 17.22,0 1.348,0 0,1.348 0,1.741 0,1.347 -1.348,0 -17.221,0.004 L -20.486,0 0,0 z m 1.347,1.347 -23.18,0 0.003,-10.99 18.568,-0.003 0,-1.741 -18.568,0 0,-3.402 c 0,-0.677 0.549,-1.225 1.225,-1.225 l 20.737,0 c 0.677,0 1.225,0.548 1.225,1.225 l 0,9.772 -18.556,0 0,1.714 18.546,0 0,4.65 z"
             id="path3650"
             style="fill:#26b9e0;fill-opacity:1;fill-rule:nonzero;stroke:none" />
        </g>
      </g>
    </g>
  </g>
</svg>
