<?xml version="1.0" encoding="UTF-8" standalone="no"?>
<!-- Generator: Adobe Illustrator 25.1.0, SVG Export Plug-In . SVG Version: 6.00 Build 0)  -->

<svg
   xmlns:dc="http://purl.org/dc/elements/1.1/"
   xmlns:cc="http://creativecommons.org/ns#"
   xmlns:rdf="http://www.w3.org/1999/02/22-rdf-syntax-ns#"
   xmlns:svg="http://www.w3.org/2000/svg"
   xmlns="http://www.w3.org/2000/svg"
   xmlns:sodipodi="http://sodipodi.sourceforge.net/DTD/sodipodi-0.dtd"
   xmlns:inkscape="http://www.inkscape.org/namespaces/inkscape"
   version="1.1"
   id="Laag_1"
   x="0px"
   y="0px"
   viewBox="0 0 1055.9 292.92499"
   xml:space="preserve"
   sodipodi:docname="logo-sos.svg"
   width="1055.9"
   height="292.92499"
   inkscape:version="0.92.3 (2405546, 2018-03-11)"><metadata
   id="metadata25"><rdf:RDF><cc:Work
       rdf:about=""><dc:format>image/svg+xml</dc:format><dc:type
         rdf:resource="http://purl.org/dc/dcmitype/StillImage" /><dc:title></dc:title></cc:Work></rdf:RDF></metadata><defs
   id="defs23" /><sodipodi:namedview
   pagecolor="#ffffff"
   bordercolor="#666666"
   borderopacity="1"
   objecttolerance="10"
   gridtolerance="10"
   guidetolerance="10"
   inkscape:pageopacity="0"
   inkscape:pageshadow="2"
   inkscape:window-width="1920"
   inkscape:window-height="1056"
   id="namedview21"
   showgrid="false"
   inkscape:pagecheckerboard="true"
   fit-margin-top="0"
   fit-margin-left="0"
   fit-margin-right="0"
   fit-margin-bottom="0"
   inkscape:zoom="0.37708333"
   inkscape:cx="542.81011"
   inkscape:cy="239.91755"
   inkscape:window-x="0"
   inkscape:window-y="24"
   inkscape:window-maximized="1"
   inkscape:current-layer="Laag_1" />
<style
   type="text/css"
   id="style2">
	.st0{fill:#FFFFFF;}
</style>
<path
   class="st0"
   d="M 520,73 393.5,0 269.9,71.4 l -3,1.8 v 142.6 3.5 l 126.6,73 123.6,-71.4 3,-1.8 V 76.6 Z m -139.8,63.2 c -0.9,-0.9 -0.9,-2.4 0,-3.3 0.9,-0.9 2.4,-0.9 3.3,0 l 10.2,10.2 10.2,-10.2 c 0.9,-0.9 2.4,-0.9 3.3,0 0.9,0.9 0.9,2.4 0,3.3 l -10.2,10.2 10.2,10.2 c 0.9,0.9 0.9,2.4 0,3.3 -0.5,0.5 -1.1,0.7 -1.7,0.7 -0.6,0 -1.2,-0.2 -1.7,-0.7 l -10.2,-10.2 -10.2,10.2 c -0.5,0.5 -1.1,0.7 -1.7,0.7 -0.6,0 -1.2,-0.2 -1.7,-0.7 -0.9,-0.9 -0.9,-2.4 0,-3.3 l 10.2,-10.2 z m 127.8,76.1 -5.2,3 -25.7,-44.5 10.5,-17.7 7.2,-12.2 c 0.6,-0.8 1,-1.8 1,-2.9 0,-2.6 -2,-4.7 -4.6,-4.8 0,0 0,0 0,0 l -14.9,-0.2 -21.1,-0.2 -5.9,-10.2 -5.5,-9.5 L 438,103 C 427.8,89.3 411.6,80.4 393.2,80.4 c -18.4,0 -34.6,8.9 -44.8,22.6 l -6.4,11.1 2.7,-4.7 -7.6,13.2 -53.4,92.5 -4.8,-2.7 V 80 L 393.5,13.8 508.1,79.9 v 132.4 z"
   id="path4"
   inkscape:connector-curvature="0"
   style="fill:#ffffff" />
<path
   class="st0"
   d="m 787.4,76.6 c 0,-2.3 -0.7,-3.5 -2.6,-4.6 C 744.2,48.6 703.6,25.2 663,1.7 661.2,0.7 660,0.6 658.2,1.6 617.6,25.1 577,48.5 536.4,71.9 c -2.1,1.2 -2.8,2.5 -2.8,4.9 0.1,23.3 0.1,46.6 0.1,69.9 0,23.4 0,46.8 -0.1,70.2 0,2.4 0.7,3.7 2.8,4.8 20.7,11.9 41.4,23.8 62,35.8 19.9,11.5 39.8,23 59.8,34.6 1.8,1 3,0.9 4.8,-0.1 19.7,-11.4 39.3,-22.8 59,-34.1 20.9,-12.1 41.9,-24.2 62.8,-36.2 2,-1.1 2.7,-2.3 2.7,-4.6 -0.2,-46.9 -0.2,-93.7 -0.1,-140.5 z m -187,42.1 c 0,-0.4 0.1,-0.8 0.2,-1.9 7.3,4.1 14.1,7.9 21,11.7 10.6,5.9 21.2,11.8 31.9,17.7 1.4,0.8 2.5,1.4 2.5,3.5 -0.2,20.6 -0.2,41.2 -0.3,61.8 0,0.4 -0.1,0.8 -0.1,1.2 -1.3,0.3 -2,-0.6 -2.8,-1.1 -16.6,-9.5 -33.1,-19.1 -49.7,-28.6 -1.5,-0.9 -2.5,-1.7 -2.5,-3.8 -0.2,-20.1 -0.3,-40.3 -0.2,-60.5 z m 7.4,-9.5 c -0.3,-0.1 -0.5,-0.4 -1,-0.8 5,-2.9 9.9,-5.7 14.8,-8.6 12.2,-7.1 24.5,-14.1 36.7,-21.2 1.4,-0.8 2.4,-1 3.9,-0.1 16.9,9.8 33.8,19.6 50.7,29.3 0.4,0.2 0.7,0.5 1.5,1 -6.2,3.5 -11.9,6.8 -17.7,10 -11.1,6.3 -22.2,12.6 -33.3,18.9 -1.3,0.8 -2.4,1.2 -4,0.3 -17.1,-9.6 -34.3,-19.2 -51.6,-28.8 z m 58.1,101.1 c 0,-20 0.1,-39.9 0.1,-59.9 0,-1.4 0.2,-2.5 1.6,-3.3 17.3,-9.7 34.6,-19.5 51.8,-29.2 0.2,-0.1 0.4,-0.1 1,-0.2 0,12.6 0,24.9 0,37.3 0,8 0,16 0,24 0,1.5 -0.1,2.7 -1.7,3.6 -17.3,9.9 -34.6,19.9 -51.8,29.9 -0.2,0.1 -0.4,0.1 -0.6,0.1 -0.7,-0.7 -0.4,-1.6 -0.4,-2.3 z"
   id="path6"
   inkscape:connector-curvature="0"
   style="fill:#ffffff" />
<g
   id="g16"
   transform="translate(-431.5,-393.4)">
	<path
   class="st0"
   d="m 549.9,537.2 c -10,-5.6 -20,-11.1 -30.1,-16.7 -6.5,-3.6 -13,-7.2 -19.8,-11.1 -0.1,1 -0.1,1.4 -0.1,1.8 0,19 0,38.1 -0.1,57.1 0,2 1,2.7 2.4,3.5 15.6,9 31.2,18 46.9,27 0.8,0.5 1.5,1.3 2.7,1 0,-0.4 0.1,-0.8 0.1,-1.1 0.1,-19.4 0.1,-38.8 0.3,-58.3 0,-1.8 -1,-2.5 -2.3,-3.2 z"
   id="path8"
   inkscape:connector-curvature="0"
   style="fill:#ffffff" />
	<path
   class="st0"
   d="m 613.2,546.3 c 0,-11.7 0,-23.3 0,-35.2 -0.6,0.1 -0.8,0.1 -0.9,0.2 -16.3,9.2 -32.6,18.4 -48.9,27.6 -1.4,0.8 -1.5,1.8 -1.5,3.1 0,18.8 -0.1,37.7 -0.1,56.5 0,0.7 -0.3,1.6 0.4,2.2 0.2,0 0.4,0 0.6,-0.1 16.3,-9.4 32.6,-18.8 48.9,-28.2 1.5,-0.9 1.6,-1.9 1.6,-3.4 -0.1,-7.6 -0.1,-15.1 -0.1,-22.7 z"
   id="path10"
   inkscape:connector-curvature="0"
   style="fill:#ffffff" />
	<path
   class="st0"
   d="m 607.6,502.8 c -0.8,-0.5 -1.1,-0.8 -1.4,-1 -15.9,-9.2 -31.9,-18.4 -47.8,-27.6 -1.4,-0.8 -2.4,-0.7 -3.7,0.1 -11.5,6.7 -23.1,13.3 -34.6,20 -4.6,2.7 -9.2,5.3 -14,8.1 0.5,0.4 0.7,0.7 0.9,0.8 16.2,9.1 32.5,18.1 48.7,27.2 1.5,0.8 2.5,0.4 3.8,-0.3 10.5,-6 21,-11.9 31.4,-17.8 5.4,-3.2 10.8,-6.2 16.7,-9.5 z"
   id="path12"
   inkscape:connector-curvature="0"
   style="fill:#ffffff" />
	<path
   class="st0"
   d="m 555.7,394.2 -122.4,71.3 c -1.1,0.6 -1.8,1.8 -1.8,3.1 v 142.8 c 0,1.3 0.7,2.5 1.8,3.1 l 122.4,71.3 c 1.1,0.7 2.5,0.7 3.6,0 l 122.4,-71.3 c 1.1,-0.6 1.8,-1.8 1.8,-3.1 V 468.7 c 0,-1.3 -0.7,-2.5 -1.8,-3.1 L 559.3,394.3 c -1,-0.7 -2.4,-0.7 -3.6,-0.1 z m 64.6,182.5 -61.5,35.9 c -1.1,0.7 -2.5,0.7 -3.6,0 l -61.5,-35.9 c -1.1,-0.6 -1.8,-1.8 -1.8,-3.1 v -71.8 c 0,-1.3 0.7,-2.5 1.8,-3.1 l 61.5,-35.9 c 1.1,-0.7 2.5,-0.7 3.6,0 l 61.5,35.9 c 1.1,0.6 1.8,1.8 1.8,3.1 v 71.8 c 0,1.2 -0.7,2.4 -1.8,3.1 z"
   id="path14"
   inkscape:connector-curvature="0"
   style="fill:#ffffff" />
</g>
<path
   class="st0"
   d="M 1055.9,73.2 932.4,1.9 929.3,0.2 805.9,71.5 l -3.1,1.8 v 142.6 3.5 l 123.5,71.3 3.1,1.7 123.4,-71.3 3.1,-1.8 V 76.7 Z m -138.7,76 c 1.2,5.2 5.9,9 11.4,9 5.5,0 10.1,-3.8 11.4,-9 h 5 c -1.3,8 -8.2,14 -16.5,14 -8.3,0 -15.2,-6.1 -16.5,-14 z m -5.3,-5.4 c 1.3,-8 8.2,-14 16.5,-14 8.3,0 15.2,6.1 16.5,14 h -5 c -1.2,-5.2 -5.9,-9 -11.4,-9 -5.5,0 -10.1,3.8 -11.4,9 z m 132.1,68.7 -7.6,4.4 -22.8,-39.5 10.7,-18 7.4,-12.5 c 0.6,-0.8 1,-1.8 1,-2.9 0,-2.6 -2.1,-4.8 -4.7,-4.9 0,0 0,0 0,0 l -15.2,-0.2 -21.5,-0.2 -6,-10.4 -5.6,-9.7 -5.9,-10.3 c -10.4,-13.9 -26.9,-23 -45.6,-23 -18.7,0 -35.3,9 -45.6,23 l -6.5,11.3 2.7,-4.7 -7.8,13.5 -50.5,87.5 -5.5,-3.2 V 80.2 L 929.6,14 1044.2,80.2 v 132.3 z"
   id="path18"
   inkscape:connector-curvature="0"
   style="fill:#ffffff" />
</svg>